<?xml version="1.0" encoding="UTF-8" standalone="no"?>
<!-- Created with Inkscape (http://www.inkscape.org/) -->

<svg
   xmlns:dc="http://purl.org/dc/elements/1.1/"
   xmlns:cc="http://creativecommons.org/ns#"
   xmlns:rdf="http://www.w3.org/1999/02/22-rdf-syntax-ns#"
   xmlns:svg="http://www.w3.org/2000/svg"
   xmlns="http://www.w3.org/2000/svg"
   xmlns:sodipodi="http://sodipodi.sourceforge.net/DTD/sodipodi-0.dtd"
   xmlns:inkscape="http://www.inkscape.org/namespaces/inkscape"
   width="147.86761mm"
   height="103.90849mm"
   viewBox="0 0 523.94037 368.17967"
   id="svg2"
   version="1.1"
   inkscape:version="0.91 r13725"
   sodipodi:docname="Anatidae_silhouette.svg">
  <defs
     id="defs4" />
  <sodipodi:namedview
     id="base"
     pagecolor="#ffffff"
     bordercolor="#666666"
     borderopacity="1.0"
     inkscape:pageopacity="0.0"
     inkscape:pageshadow="2"
     inkscape:zoom="0.2949707"
     inkscape:cx="277.14657"
     inkscape:cy="299.41107"
     inkscape:document-units="px"
     inkscape:current-layer="layer1"
     showgrid="false"
     inkscape:window-width="1366"
     inkscape:window-height="719"
     inkscape:window-x="0"
     inkscape:window-y="0"
     inkscape:window-maximized="1"
     fit-margin-top="0"
     fit-margin-left="0"
     fit-margin-right="0"
     fit-margin-bottom="0" />
  <metadata
     id="metadata7">
    <rdf:RDF>
      <cc:Work
         rdf:about="">
        <dc:format>image/svg+xml</dc:format>
        <dc:type
           rdf:resource="http://purl.org/dc/dcmitype/StillImage" />
        <dc:title></dc:title>
      </cc:Work>
    </rdf:RDF>
  </metadata>
  <g
     inkscape:label="Layer 1"
     inkscape:groupmode="layer"
     id="layer1"
     transform="translate(-100.07914,-341.74024)">
    <path
       style="fill:#000000;fill-rule:evenodd;stroke:#000000;stroke-width:0.5;stroke-linecap:butt;stroke-linejoin:miter;stroke-miterlimit:4;stroke-dasharray:none;stroke-opacity:1"
       d="m 409.27672,423.78807 31.75349,-14.18718 c 0,0 -0.65594,-1.63929 -0.3624,-4.69628 0.0671,-0.69889 0.18385,-1.47187 0.3694,-2.31631 0.15933,-0.7251 0.36949,-1.50286 0.64249,-2.33163 0.14814,-0.44973 2.84322,-0.49308 2.9998,-0.97768 0.333,-1.0306 0.68464,-2.14023 1.05318,-3.32973 0.3111,-1.00412 -1.25017,-4.15893 -0.86602,-5.22177 0.41826,-1.15722 2.97677,-1.71789 3.43763,-2.9485 0.42165,-1.12591 -0.82082,-3.12145 -0.33507,-4.28664 0.50259,-1.20559 3.14458,-1.58802 3.68818,-2.83798 0.48177,-1.10781 -0.91838,-3.28576 -0.38533,-4.41123 0.52506,-1.10861 2.65714,-2.2223 3.20142,-3.71157 0.51248,-1.40228 -0.57499,-3.1856 0.29084,-4.10419 1.69294,-1.79612 5.56721,-1.67027 5.65468,-3.84255 l 0.1961,-4.86986 3.51299,-2.90115 1.67665,-5.46472 3.1235,-2.18169 c 0,0 7.96918,-11.94276 8.56244,-5.0222 l 0.57008,7.01767 c -8.75432,30.77015 3.79468,38.48182 2.33783,46.26968 l -1.98441,11.1986 -11.95182,20.53252 c -7.1093,18.06456 -8.82224,23.7946 -9.32882,26.76724 -3.36521,19.74718 5.35714,47.23215 5.35714,47.23215 0,0 1.51547,-0.78474 5.44643,4.91071 l 3.1e-4,0 1.78572,2.76786 c 0,0 12.19528,-0.5516 15.625,-0.17858 l 14.77678,1.60715 c 0,0 1.96428,-1.79656 5.40179,-1.51786 l 1.65179,0.13393 c 0,0 12.73563,-6.64335 16.65178,-8.16965 l 8.70536,-3.39285 c 0,0 13.38309,-6.44882 15.13392,-7.05357 l 5.46624,-1.88807 c 0,0 6.35794,-3.5269 7.59115,-4.54499 1.13069,-0.93345 3.18452,-2.74981 5.02297,-3.96873 -0.31188,-2.11032 2.98438,-5.93251 5.83267,-7.55474 5.00027,-2.84788 16.64345,-4.77388 22.33698,-0.16847 l 4.60943,3.72849 c 0,0 25.08545,0.6909 24.98978,2.79943 1.7834,1.32138 -6.3601,2.8914 -9.50053,4.15639 -4.68612,1.55148 -8.91398,4.12042 -8.55117,4.84604 l 6.69118,0.94779 c 4.9789,0.70525 8.64247,5.52454 8.64247,5.52454 4.34246,1.46156 1.82043,2.22074 0.93077,2.54825 -3.56825,0.41962 -24.37919,-1.15042 -24.37919,-1.15042 -1.64702,1.06378 -0.2693,2.42516 -7.09345,1.59948 -3.6772,-0.44492 -17.72322,3.70537 -17.72322,3.70537 l -15.04464,4.24107 c -8.8477,2.49416 -35.68173,18.02671 -35.68173,18.02671 l -8.3012,4.03161 c -15.84753,9.06953 -22.83757,46.17567 -48.10851,52.52793 -4.25999,2.24031 -22.72921,15.45393 -22.72921,15.45393 l -23.75079,13.08482 c -11.68203,6.41194 -35.1598,9.75261 -35.1598,9.75261 0,0 -2.29588,1.95095 -2.51297,6.58185 l -0.74147,15.81736 c 0.22972,6.80651 -1.70972,1.48146 -3.01432,7.31246 -1.89506,8.47008 -1.49085,27.14179 -1.49085,27.14179 l -4.35538,-1.26376 c -10.02757,-2.90961 -14.23683,10.82757 -14.23683,10.82757 l -1.73621,-6.47129 c -1.03276,-3.84936 -8.28882,-13.17485 -8.28882,-13.17485 l -2.74905,-0.18446 c -5.83635,-0.39162 18.0854,-27.67294 18.0854,-27.67294 l 9.36745,-4.86655 c 2.30892,-1.19952 4.35765,-14.45055 4.35765,-14.45055 0,0 -3.64086,0.20427 -5.06944,0.24897 -1.5158,0.0474 -10.46875,-0.33482 -10.46875,-0.33482 -0.6622,0.88542 -1.10411,0.67773 -3.14732,1.67411 -4.05383,1.97686 -8.20862,1.15043 -8.20862,1.15043 l -5.08045,5.08141 c -2.06548,2.06587 -8.47506,2.40912 -8.47506,2.40912 l -1.62872,1.98403 c -1.41631,1.72528 -4.61443,4.06087 -4.61443,4.06087 0,0 -5.02337,9.17172 -5.76593,12.99836 l -2.26356,11.6648 -1.33325,9.89702 c -3.75192,6.66948 -9.69181,14.7595 -13.81032,22.78469 -3.72733,7.26294 -5.72296,14.79265 -7.63213,15.33178 0.2898,-1.74638 0.43318,-4.11888 -0.32442,-5.58347 -2.52044,-4.87253 -7.29401,4.42667 -5.97273,5.46498 l -0.91716,0.7024 c -1.77862,1.60076 -1.34037,-0.6814 -1.34037,-0.6814 -0.28286,0.31467 10.15205,-26.09646 11.36315,-31.28185 l 3.25143,-13.92117 5.83994,-4.45097 c 7.62026,-5.89956 6.73165,-17.59364 6.73165,-17.59364 l -9.73258,5.25762 -0.35875,-7.31873 -10.15233,6.25208 -0.22661,-4.40696 -10.45805,0.57114 -3.80141,3.86852 c -0.19631,0.19978 -2.20613,-1.45195 -3.30856,-1.28649 -1.84873,0.27747 -3.20579,2.22638 -3.94215,2.04764 -1.68247,-0.40839 0.64678,-2.163 -1.13893,-2.48235 -2.00622,-0.35877 -3.78754,0.44104 -4.69217,-0.46088 -1.38075,-1.3766 3.02441,-4.91552 1.00101,-5.34428 -4.23944,-0.89834 -13.95912,4.07906 -5.63084,-5.41635 0.98734,-1.12571 -6.61331,0.54455 -7.22,-0.50624 -1.0671,-1.84825 8.66752,-7.07357 6.6277,-7.33474 -7.6086,-0.97417 -17.12454,0.12482 5.45358,-8.56663 1.85111,-0.71259 -11.40409,-3.75704 -10.13978,-5.31869 1.11519,-1.37744 13.25858,-0.10436 15.06164,-1.02513 2.43319,-1.24256 -6.05469,-4.70972 -6.05469,-4.70972 0,0 6.53264,1.04309 17.51962,0.64218 7.38919,-0.26963 11.81855,-0.62478 22.66815,-5.79964 0,0 1.74563,-4.94901 8.61685,-8.45652 l 2.14483,-1.45339 6.1627,-8.15724 c 2.29031,-3.01284 29.71027,-21.5151 28.83845,-22.52511 l -2.30054,-2.81754 c -0.69249,-0.84811 -1.95034,0.5974 -2.63438,0.22113 -3.51689,-1.93453 -3.72249,-5.9242 -3.72249,-5.9242 l -17.41714,6.99563 c -3.47554,1.39596 -5.72424,-3.19226 -7.52181,-2.09225 -6.08609,3.7243 -20.52045,6.225 -12.37148,-10.36245 1.90004,-3.86759 -3.90021,1.8851 -6.62169,-0.66746 -2.80896,-2.6346 -6.76987,-9.79244 -5.50593,-13.78649 0.41112,-1.29916 -2.75245,-1.03022 -2.67095,-1.10302 -2.97586,-2.91266 -5.05326,-6.32165 -4.83671,-10.38605 0.0856,-1.60716 -3.7593,-5.88503 -7.77121,-11.67207 -2.79627,-4.03353 -5.47229,-8.72213 -8.77609,-13.29892 -7.47466,-10.35475 -16.40661,-19.65314 -19.42872,-18.89669 l -1.4597,0.47968 c -5.38384,1.76922 -27.76785,20.80357 -27.76785,20.80357 l -6.66923,2.49621 c -5.01027,6.62502 -7.0365,2.42181 -10.83722,3.44912 l -9.36857,3.96539 c -2.40414,1.01759 -6.3478,-1.21961 -10.18768,-1.46384 -5.5835,-0.35513 -13.64827,3.46608 -19.05108,0.44957 -2.29761,-1.28281 0.61256,-5.14236 -2.00684,-6.49425 -3.3318,-1.71955 -11.61488,0.91189 -14.72894,-1.3735 -2.70168,-1.98276 6.833,-10.39928 3.54438,-12.30964 -3.85183,-2.23754 -23.02866,0.64953 -26.74463,-1.61937 -2.02212,-1.23467 2.37241,-6.36516 0.33103,-7.51776 -2.90319,-1.63919 -14.11782,0.17533 -16.82434,-1.30281 -3.03669,-1.65845 15.01846,-10.94396 13.55775,-13.56509 -1.5246,-2.73578 -22.13677,0.5964 -24.17488,-1.73682 -2.320874,-2.65691 13.01451,-8.21129 13.93944,-11.41483 0.74235,-2.57117 -12.88135,-2.86551 -14.10679,-4.67108 -2.443474,-3.60023 8.55285,-6.21923 9.97261,-9.34156 2.10074,-4.61996 -3.36334,-8.84461 -3.36334,-8.84461 0.0674,-3.0557 44.89313,-0.94512 55.21585,-1.14212 19.74154,-0.37674 39.31182,-0.46802 56.74107,2.52085 0,0 41.46974,1.7948 57.75865,6.36712 L 312.9928,443.287 c 0,0 21.14675,-0.58887 32.95623,9.34391 l 30.2392,25.43374 c 0,0 1.38736,-2.60688 3.17055,-7.04648 0.34213,-0.85181 0.69884,-1.77109 1.06311,-2.75236 0.36247,-0.97643 -0.7127,-2.01424 -0.25383,-3.10806 0.54165,-1.29113 2.39168,-2.66029 3.00518,-4.09862 0.36711,-0.86068 0.11548,-3.42927 0.51668,-4.31174 0.43662,-0.96037 0.8936,-1.93134 1.37124,-2.90789 0.59075,-1.20779 2.89257,-2.42412 3.51291,-3.63947 0.51104,-1.0012 -0.44416,-2.00174 0.1006,-2.9963 0.78867,-1.43989 3.11201,-2.86726 3.99018,-4.26599 1.34514,-2.14252 1.54423,-4.89941 3.21606,-6.68724 1.60001,-1.71103 4.67364,-2.46322 5.9498,-4.04954 0.7429,-0.92346 -0.0792,-1.83 0.53763,-2.69018 1.86878,-2.6062 4.81359,-4.78678 6.90838,-5.72271 z"
       id="path4334-5"
       inkscape:connector-curvature="0"
       sodipodi:nodetypes="scsssssssssssssccccscsccsccccscscscscscssccccscccscsccccscscscscscscscscscscscsccscscscscsccccccsssssssssssscscccscsscssssscssscscccsssssssssssssscscscscsssssssssssss" />
  </g>
</svg>
