<?xml version="1.0" encoding="UTF-8" standalone="no"?>
<!-- Created with Inkscape (http://www.inkscape.org/) -->

<svg
   xmlns:dc="http://purl.org/dc/elements/1.1/"
   xmlns:cc="http://creativecommons.org/ns#"
   xmlns:rdf="http://www.w3.org/1999/02/22-rdf-syntax-ns#"
   xmlns:svg="http://www.w3.org/2000/svg"
   xmlns="http://www.w3.org/2000/svg"
   xmlns:sodipodi="http://sodipodi.sourceforge.net/DTD/sodipodi-0.dtd"
   xmlns:inkscape="http://www.inkscape.org/namespaces/inkscape"
   width="89.641335mm"
   height="99.839722mm"
   viewBox="0 0 317.62678 353.76279"
   id="svg2"
   version="1.1"
   inkscape:version="0.91 r13725"
   sodipodi:docname="Columbidae_silhouette.svg">
  <defs
     id="defs4" />
  <sodipodi:namedview
     id="base"
     pagecolor="#ffffff"
     bordercolor="#666666"
     borderopacity="1.0"
     inkscape:pageopacity="0.0"
     inkscape:pageshadow="2"
     inkscape:zoom="0.35"
     inkscape:cx="244.56251"
     inkscape:cy="11.014354"
     inkscape:document-units="px"
     inkscape:current-layer="layer1"
     showgrid="false"
     inkscape:window-width="1366"
     inkscape:window-height="719"
     inkscape:window-x="0"
     inkscape:window-y="0"
     inkscape:window-maximized="1"
     fit-margin-top="0"
     fit-margin-left="0"
     fit-margin-right="0"
     fit-margin-bottom="0" />
  <metadata
     id="metadata7">
    <rdf:RDF>
      <cc:Work
         rdf:about="">
        <dc:format>image/svg+xml</dc:format>
        <dc:type
           rdf:resource="http://purl.org/dc/dcmitype/StillImage" />
        <dc:title></dc:title>
      </cc:Work>
    </rdf:RDF>
  </metadata>
  <g
     inkscape:label="Layer 1"
     inkscape:groupmode="layer"
     id="layer1"
     transform="translate(-198.15194,-341.34357)">
    <path
       inkscape:connector-curvature="0"
       style="fill:#000000;fill-rule:evenodd;stroke:#000000;stroke-width:0.5;stroke-linecap:butt;stroke-linejoin:miter;stroke-miterlimit:4;stroke-dasharray:none;stroke-opacity:1"
       d="m 243.00884,341.59911 c -3.85882,0.0593 -5.05078,0.58593 -5.05078,0.58593 l -5.63672,1.16211 c -13.17383,2.71804 -16.16406,17.93164 -16.16406,17.93164 0,0 -0.62437,5.72373 -3.4082,8.20703 l -3.29688,2.93946 c 0,0 -2.19338,3.28428 -3.20703,4.19531 l -3.44531,3.0957 c 0,0 -4.77919,5.3639 -4.37305,9.83203 l 0.27149,2.98438 c 3.87153,-0.88035 3.96749,-1.12251 9.35742,-4.64063 0,0 21.62242,-9.23258 29.3164,9.625 1.67091,4.09531 2.42985,9.91049 1.76758,13.00586 l 0.37891,-0.12695 c 0,0 0.26862,16.82031 -1.89453,28.1582 l -7.32422,38.38672 c 0,0 -8.61911,26.52445 -4.54492,42.42578 6.4358,25.11856 15.14596,37.15571 24.2832,47.01367 0,0 9.72346,10.18502 28.79102,26.6504 7.71809,7.65905 15.74044,14.70785 23.26562,23.10355 0,0 -0.72281,10.5643 3.16211,12.789 l 5.22266,2.9903 c 0,0 -1.02527,6.6481 -0.40039,15.0449 0.44643,5.9989 0.89181,9.2259 1.375,13.834 -0.50656,0 -1.14965,11.1519 -4.50782,16.4101 l -4.79883,7.5137 -16.91992,2.7148 c -9.35697,1.5363 -22.97541,-0.3453 -22.82617,0.078 0,0 -12.54885,5.8725 -8.10351,6.0313 3.10769,0.111 10.5641,-5.6293 9.51367,0.3906 0,0 17.73827,1.3921 25.88867,0.7598 l 22.38672,-1.7383 c 0,0 2.54408,-7.3337 6.47265,-3.2266 3.92857,4.1072 6.07227,3.6172 6.07227,3.6172 0,0 15.1236,-3.6697 16.96484,-7.5449 1.06687,-2.2454 1.67129,-5.2299 3.78711,-5.8281 0,0 14.49598,8.5629 16.86719,2.2832 l 0.73047,-1.9336 c 0,0 2.67276,-0.5726 4.28125,1.8848 l 1.35742,2.0957 c 1.22028,-1.8055 2.71207,-2.9623 0.74414,-4.9297 -3.75542,-3.7545 -13.24213,-2.4387 -16.58789,-3.1465 -1.2174,-0.2575 -1.99975,0.2893 -1.96875,0.2558 -2.17752,0.3965 -9.44865,-1.2824 -10.52734,-9.7578 l -0.90039,-6.8808 0.0742,-8.5957 c 0.0323,-3.7985 1.0039,-7.252 1.0039,-7.252 l 1.46485,-1.6406 c 3.0017,-3.3622 -1.48047,-8.5176 -1.48047,-8.5176 0,0 7.93836,-0.4173 14.40625,-2.6699 1.91261,-1.3396 5.20842,-2.3129 7.53515,-2.252 -0.25914,-0.058 15.93682,4.6425 18.55469,1.6973 1.07926,-0.899 2.29464,-1.664 3.97852,-1.832 -0.23725,-0.024 15.23301,7.6698 19.0039,5.1133 l 1.86133,-1.2618 c 0,0 11.18622,4.2528 13.66797,4.7989 l 4.41016,0.9687 c 0,0 25.57284,23.9846 28.30664,24.834 l 2.10351,0.6543 c 0,0 23.82161,19.8999 29.82617,21.7344 l 4.55469,1.3906 c 3.96438,-0.8041 4.93152,-4.5666 8.12891,-3.5059 4.48691,1.4886 9.64695,-0.9367 10.65039,-2.9668 2.24122,-4.5342 7.46741,-1.1993 8.0039,-4.5625 l -0.38281,-3.7304 -3.36719,-3.8574 c -0.86408,-1.0233 -4.99023,-4.5625 -4.99023,-4.5625 0.24379,-0.4776 10.0186,-1.2899 8.7207,-5.1836 l -0.87695,-2.7032 -4.45898,-4.0683 c -1.18895,-1.085 -4.59961,-5.1797 -4.59961,-5.1797 0,0 2.69881,-3.4419 -0.84766,-7.2324 -8.78563,-9.3901 -16.52376,-13.8543 -27.45117,-17.3145 0,0 -6.88983,-6.7398 -9.24219,-8.2012 l -16.50976,-10.291 -3.44141,-2.3984 c -0.15186,-0.1059 -16.78729,-19.58461 -17.8125,-19.14846 l -2.50781,-4.43164 c -1.71545,-3.03028 -9.19141,-6.76953 -9.19141,-6.76953 l -8.20898,-9.09961 c -5.63205,-6.24333 -31.70433,-32.49733 -31.48243,-31.16992 l -13.88476,-20.2832 c -3.69952,-5.40395 -31.9707,-30.08594 -31.9707,-30.08594 -1.29431,-3.41775 -5.00043,-6.86486 -8.09961,-9.7207 -2.86806,-2.64286 -16.67774,-25.82813 -16.67774,-25.82813 l -10.75195,-22.93554 c -1.97074,-4.20386 -8.58203,-23.10938 -8.58203,-23.10938 0,0 -5.53693,-17.06878 -6.59571,-25.82031 -1.17908,-9.74588 -14.83593,-23.90039 -14.83593,-23.90039 l -3.31836,-2.63477 c -3.30496,-2.32063 -7.60463,-3.72874 -10.91211,-4.10351 -4.55509,-0.51614 -7.83119,-0.64888 -10.14649,-0.61328 z m 84.57813,308.39649 c 0,0 6.16003,24.474 -0.0781,31.9668 l -1.86523,2.2695 -1.79688,0.4297 c -4.20449,1.0042 -6.14453,-2.1016 -6.14453,-2.1016 l -1.73047,-2.5644 c -1.80096,-2.6684 11.61524,-30 11.61524,-30 z"
       id="path4299-6" />
  </g>
</svg>
