<?xml version="1.0" encoding="UTF-8" standalone="no"?>
<!-- Created with Inkscape (http://www.inkscape.org/) -->

<svg
   xmlns:dc="http://purl.org/dc/elements/1.1/"
   xmlns:cc="http://creativecommons.org/ns#"
   xmlns:rdf="http://www.w3.org/1999/02/22-rdf-syntax-ns#"
   xmlns:svg="http://www.w3.org/2000/svg"
   xmlns="http://www.w3.org/2000/svg"
   xmlns:sodipodi="http://sodipodi.sourceforge.net/DTD/sodipodi-0.dtd"
   xmlns:inkscape="http://www.inkscape.org/namespaces/inkscape"
   width="119.19089mm"
   height="83.571953mm"
   viewBox="0 0 422.32992 296.12109"
   id="svg2"
   version="1.1"
   inkscape:version="0.91 r13725"
   sodipodi:docname="Galliformes_silhouette.svg">
  <defs
     id="defs4" />
  <sodipodi:namedview
     id="base"
     pagecolor="#ffffff"
     bordercolor="#666666"
     borderopacity="1.0"
     inkscape:pageopacity="0.0"
     inkscape:pageshadow="2"
     inkscape:zoom="0.49497475"
     inkscape:cx="110.05037"
     inkscape:cy="285.02263"
     inkscape:document-units="px"
     inkscape:current-layer="layer1"
     showgrid="false"
     inkscape:window-width="1366"
     inkscape:window-height="719"
     inkscape:window-x="0"
     inkscape:window-y="0"
     inkscape:window-maximized="1"
     fit-margin-top="0"
     fit-margin-left="0"
     fit-margin-right="0"
     fit-margin-bottom="0" />
  <metadata
     id="metadata7">
    <rdf:RDF>
      <cc:Work
         rdf:about="">
        <dc:format>image/svg+xml</dc:format>
        <dc:type
           rdf:resource="http://purl.org/dc/dcmitype/StillImage" />
        <dc:title></dc:title>
      </cc:Work>
    </rdf:RDF>
  </metadata>
  <g
     inkscape:label="Layer 1"
     inkscape:groupmode="layer"
     id="layer1"
     transform="translate(-159.74888,-400.12901)">
    <path
       style="fill:#000000;fill-rule:evenodd;stroke:#000000;stroke-width:0.5;stroke-linecap:butt;stroke-linejoin:miter;stroke-miterlimit:4;stroke-dasharray:none;stroke-opacity:1"
       d="m 555.09479,494.80157 0.17856,6.25 -0.98214,10.89286 c -0.303,3.33298 -5.89286,20.71429 -5.89286,20.71429 0,0 -0.95911,2.94311 -6.33928,13.74999 -3.17678,6.38105 -10.44404,13.12718 -10.44404,13.12718 l -8.71015,6.6313 c -3.97084,3.02129 -18.11962,10.73288 -18.11962,10.73288 l -10.16466,6.25032 c -2.3298,1.4064 -12.97414,5.4927 -12.97414,5.4927 l -12.65848,3.59868 c -3.59497,1.00943 -17.36441,5.07679 -19.30325,6.62189 0,0 -7.74404,6.55275 -10.92923,12.18791 l -6.29704,11.14059 1.99493,11.27645 c 1.00798,5.66985 20.20623,41.85054 20.20623,41.85054 0,0 14.36873,4.26116 19.44226,4.74274 13.90868,1.32022 16.74767,4.37008 20.15155,7.41558 l -14.69436,-1.33661 c -3.70567,-0.36153 7.76367,6.25314 6.61064,7.24796 0,0 -31.47995,-3.27496 -28.75067,-1.19611 l 5.00295,3.81066 -5.61897,-0.91545 c -3.07048,-0.54586 -19.23755,-5.8707 -19.23755,-5.8707 l -0.86355,-2.8085 c -0.72957,-2.37277 -2.98395,-2.78957 -2.98395,-2.78957 l -1.78996,0.7359 c -4.62738,1.90243 -12.05869,3.34613 -12.05869,3.34613 0,0 2.1835,-5.55264 7.513,-8.52317 l 7.56409,-4.28915 c -0.55772,-3.20679 -2.7716,-5.83599 -3.28083,-9.62835 -0.61519,-4.58139 -3.9001,-16.00734 -3.9001,-16.00734 L 423.75553,636.498 c -0.74593,-2.37272 -7.63178,-17.65909 -7.63178,-17.65909 l -0.0425,-7.78306 c -0.0171,-3.13514 2.46224,-12.59534 2.46224,-12.59534 l -0.63134,-2.62008 c -1.09763,-4.55521 -2.32731,-4.08916 -2.32731,-4.08916 l -15.93649,-4.4497 C 391.6808,585.07691 361.2734,572.54353 361.2734,572.54353 l -16.97613,-0.69422 c -16.12931,-0.6596 -20.00444,-11.19641 -20.00444,-11.19641 l 5.35552,-9.24418 c 2.02552,-3.49625 -6.54401,-1.46556 -6.54401,-1.46556 l -7.38456,6.8227 c -5.11693,4.7276 -20.17858,-1.25 -20.17858,-1.25 -14.45445,8.23409 -25.27713,4.84603 -28.92857,-1.96429 -2.45722,-4.58297 -17.05357,-5.35714 -17.05357,-5.35714 l -12.94642,-5.35714 c -15.19194,-6.28632 -9.82143,-14.91071 -9.82143,-14.91071 l -6.60714,-3.30357 c -7.68149,-3.84074 -5.71429,-11.42858 -5.71429,-11.42858 l -6.07142,-0.53573 c -16.96277,-1.49675 -23.57144,9.01786 -23.57144,9.01786 l -6.60714,0.0893 c -13.37346,0.18073 -14.46428,54.82142 -14.46428,54.82142 -8.86441,-35.17007 -3.60874,-76.94552 32.67857,-100.89285 29.06746,-19.18268 115.73713,-10.79836 132.31593,4.91585 0,0 10.70105,-1.45626 32.84614,-1.82128 l 11.49048,-0.1894 c 0,0 37.20862,-11.97209 43.81537,-12.69004 l 24.67608,-2.68152 c 0,0 19.75694,-6.45253 28.55409,-8.37215 l 23.6793,-5.16704 c 0,0 10.16123,-3.95252 13.24664,-4.61368 l 11.49049,-2.46226 c 0,0 2.3118,-4.44725 7.19734,-6.75538 l 8.01809,-3.78808 c -3.50064,2.70111 -25.22737,-2.16275 -24.31316,-17.97167 0.0679,-1.17482 1.58591,-2.63116 1.9007,-4.29493 0.1739,-0.91907 -1.07404,-2.14961 -0.64362,-2.84442 0.3219,-0.51962 1.89503,0.55397 2.19927,0.002 0.46748,-0.84891 -0.46922,-3.34197 0.25481,-3.80555 0.41755,-0.26735 1.67026,2.9595 2.15209,2.71643 0.0107,-0.002 -0.44916,-3.91 1.65674,-3.98621 0.98692,-0.0357 4.41861,4.32353 5.28991,3.8295 0.93099,-0.52787 -0.8339,-5.34319 0.42197,-5.33558 1.34717,0.008 4.28755,6.37937 5.72675,6.21998 1.70104,-0.18839 2.33912,-5.11495 4.17651,-4.85887 2.48217,0.34595 2.70408,4.24031 5.20713,5.52863 0.99903,0.51419 6.26183,-2.31458 7.3628,-1.86243 1.1919,0.48949 0.22866,3.45604 1.10598,4.19246 0.8845,0.74247 2.54559,-1.76951 3.50713,-1.2143 0.85199,0.49195 1.60296,3.93106 2.30921,4.97605 1.0727,1.58719 2.04222,0.91866 3.10583,1.79868 9.46661,7.83258 15.98277,16.93056 18.66071,29.10714 l 5.17857,3.92856 c 3.43419,2.61931 2.75846,5.95865 2.75846,5.95865 l -9.19005,-0.61788 c -7.03036,-0.47267 -8.4154,1.07011 -8.4154,1.07011 2.49407,4.41638 4.43237,9.5789 4.62731,16.73383 0.34504,12.6637 -14.17405,16.698 -17.20795,8.18254 0,0 3.36236,10.49504 3.49907,15.2799 z"
       id="path4321-3"
       inkscape:connector-curvature="0"
       sodipodi:nodetypes="scscscscscscscscscscscscscscscscscscscscscscscscscscscscscscscscscscssssscssssssssssscscscscs" />
  </g>
</svg>
