<?xml version="1.0" encoding="UTF-8" standalone="no"?>
<!-- Created with Inkscape (http://www.inkscape.org/) -->

<svg
   xmlns:dc="http://purl.org/dc/elements/1.1/"
   xmlns:cc="http://creativecommons.org/ns#"
   xmlns:rdf="http://www.w3.org/1999/02/22-rdf-syntax-ns#"
   xmlns:svg="http://www.w3.org/2000/svg"
   xmlns="http://www.w3.org/2000/svg"
   xmlns:sodipodi="http://sodipodi.sourceforge.net/DTD/sodipodi-0.dtd"
   xmlns:inkscape="http://www.inkscape.org/namespaces/inkscape"
   width="46.439308mm"
   height="44.144295mm"
   viewBox="0 0 164.54873 156.41679"
   id="svg2"
   version="1.1"
   inkscape:version="0.91 r13725"
   sodipodi:docname="Laridae_silhouette.svg">
  <defs
     id="defs4" />
  <sodipodi:namedview
     id="base"
     pagecolor="#ffffff"
     bordercolor="#666666"
     borderopacity="1.0"
     inkscape:pageopacity="0.0"
     inkscape:pageshadow="2"
     inkscape:zoom="1.4"
     inkscape:cx="135.45465"
     inkscape:cy="45.569253"
     inkscape:document-units="px"
     inkscape:current-layer="layer1"
     showgrid="false"
     inkscape:window-width="1366"
     inkscape:window-height="719"
     inkscape:window-x="0"
     inkscape:window-y="0"
     inkscape:window-maximized="1"
     fit-margin-top="0"
     fit-margin-left="0"
     fit-margin-right="0"
     fit-margin-bottom="0" />
  <metadata
     id="metadata7">
    <rdf:RDF>
      <cc:Work
         rdf:about="">
        <dc:format>image/svg+xml</dc:format>
        <dc:type
           rdf:resource="http://purl.org/dc/dcmitype/StillImage" />
        <dc:title></dc:title>
      </cc:Work>
    </rdf:RDF>
  </metadata>
  <g
     inkscape:label="Layer 1"
     inkscape:groupmode="layer"
     id="layer1"
     transform="translate(-260.43515,-402.63256)">
    <path
       style="fill:#000000;fill-rule:evenodd;stroke:#000000;stroke-width:0.5;stroke-linecap:butt;stroke-linejoin:miter;stroke-miterlimit:4;stroke-dasharray:none;stroke-opacity:1"
       d="m 405.49107,533.43365 0.49107,1.51785 c 0,0 8.54871,0.41478 8.75,5.17857 l 0.067,1.58482 c -1.35265,-0.17419 -1.56995,-0.0107 -3.71799,0.54376 -0.73746,-0.65493 -1.19731,-0.83622 -2.43344,-1.03978 -1.79879,-0.2202 -2.20726,-0.17109 -3.73436,0.0693 0,0 -4.49826,4.12683 -6.09249,4.86136 l -6.34872,2.92514 c 0,0 -7.47213,5.78754 -13.365,6.41255 -3.20252,0.33966 -4.89125,0.59971 -4.89125,0.59971 l -6.64663,1.67934 c -6.2072,1.56631 -13.25826,0.88389 -13.25826,0.88389 l -10.54346,-0.94702 c -3.19304,-0.2834 -11.83772,-2.14658 -11.83772,-2.14658 l -4.95607,-0.75761 -4.21795,-0.17467 -3.11294,-0.34242 c -1.5625,-0.17858 -3.92165,0.25696 -3.92165,0.25696 l -15.7059,-0.81316 c -2.50113,-0.11958 -2.95146,-2.31463 -2.95146,-2.31463 l -9.11742,1.66547 c -2.04863,0.37422 -4.28572,-2.58928 -4.28572,-2.58928 0,0 13.28799,-2.25124 17.32143,-3.83929 l 10.37184,-4.08362 c 0,0 4.94439,-2.44807 6.19664,-2.90156 l 9.00023,-3.2081 -2.86009,-0.091 c -6.60923,-0.21027 -2.08357,-8.84934 -2.08357,-8.84934 l 0.22805,-3.32857 -0.14322,-3.35216 0.27037,-3.22291 -0.43013,-2.2885 -1.55372,-4.06252 0.11551,-2.92819 -1.3361,-1.5622 -0.55926,-3.15274 -1.04745,-1.52504 0.12967,-1.6322 -1.02134,-1.98122 -0.0861,-2.90915 -0.81633,-2.49242 c -0.3109,-0.94925 -0.76089,-3.20251 -1.72427,-6.07751 -0.26625,-0.79456 -0.97989,-1.63661 -1.2463,-2.51175 -0.19272,-0.63306 0.0517,-1.34793 -0.14932,-2.0135 -0.28165,-0.93258 -0.26271,-1.78344 -0.61271,-2.63825 -0.28594,-0.69834 -0.9441,-1.39932 -1.16885,-2.14966 -0.1425,-0.47573 0.085,-1.20332 -0.0805,-1.6779 -0.18352,-0.52633 -0.79963,-1.05207 -0.95853,-1.57752 -0.22271,-0.73632 0.0511,-1.47205 -0.19411,-2.20797 -0.12854,-0.38585 -0.82175,-0.77176 -0.94228,-1.15783 -0.22074,-0.70707 0.061,-1.84121 -0.16594,-2.51344 -0.20429,-0.60527 -1.03009,-1.19436 -1.21176,-1.76355 -0.31311,-0.98112 -0.0163,-2.09443 -0.24811,-2.93341 -0.21404,-0.77458 -1.00891,-1.20881 -1.22355,-1.79478 -0.53719,-1.46667 -0.46789,-1.99698 -0.46789,-1.99698 l -2.1946,-1.95129 -3.75242,-2.34712 c -1.39005,-1.00471 -1.61032,-3.55107 -1.61032,-3.55107 l -5.661,-6.38423 c -0.63945,-0.72114 -3.69667,-3.63855 -7.00198,-7.33695 -3.64642,-4.08007 -7.86633,-9.07799 -7.92933,-9.01489 l -5.0192,-5.99778 c -0.14402,-0.1721 0.53251,-1.02462 -0.34839,-1.98507 -1.02623,-1.11889 -3.64558,-2.40841 -4.1151,-3.29489 -0.67236,-1.26944 1.18889,-0.78786 0.13297,-2.20521 -1.37741,-1.84886 -3.86938,-2.95681 -4.83431,-4.97755 -0.53894,-1.12861 0.33596,-1.53037 0.15835,-2.61969 -0.0781,-0.47904 -1.74973,-1.35084 -1.84713,-1.83875 -0.11342,-0.56788 0.64351,-1.10042 0.70781,-1.58316 0.0901,-0.67665 -0.97735,-0.81352 -0.96309,-1.25466 0.007,-0.21345 0.39379,-0.67202 0.99037,-0.80169 0.50145,-0.10899 1.22965,0.093 1.22965,0.093 0,0 6.90276,4.50052 13.30803,8.31058 4.84686,2.88307 9.50534,5.25455 10.12596,5.63839 l 12.72993,7.87316 c 0,0 13.45959,8.29714 15.08822,9.189 4.8104,2.63426 7.15525,3.53554 10.22779,5.61898 0,0 12.4955,7.5059 13.25826,8.08122 l 5.13762,3.8751 c 0,0 21.97736,17.30781 21.50461,21.65719 l -1.09253,3.47985 -0.24676,6.29694 c -0.17815,2.53343 -0.60905,7.40887 -0.16653,12.4543 0.57037,5.82878 0.0302,5.67907 4.97794,1.52097 l 13.70102,-9.95154 c 0.37166,-0.26981 1.25996,-1.70165 3.13375,-3.962 0.41455,-0.50008 1.47175,-0.95579 1.91313,-1.54404 0.33219,-0.44271 0.4067,-1.34804 0.757,-1.82017 0.24858,-0.33502 1.05366,-0.77182 1.42446,-1.00574 0.95154,-0.60028 0.93811,-1.77661 1.35264,-2.68248 0.35438,-0.77446 1.16572,-1.25513 1.56344,-2.07368 0.17429,-0.3587 0.34155,-0.72102 0.50073,-1.08647 0.18311,-0.42041 0.88951,-0.84495 1.04594,-1.27286 0.41423,-1.13315 1.69283,-1.637 2.209,-2.58943 0.33652,-0.62099 -0.0296,-1.65528 0.32572,-2.21115 0.43251,-0.67665 2.93847,-0.85367 3.4006,-1.42727 0.34704,-0.43076 -1.46238,-1.46256 -1.14315,-1.84601 2.99046,-3.59212 6.87791,-4.4484 6.87791,-4.4484 0,0 1.27206,-0.38773 3.21398,0.81329 2.26626,1.40161 5.41441,4.36352 8.02937,6.74898 5.55217,5.06486 8.78191,11.12181 8.22234,12.76763 l 0.44064,1.16112 -0.24767,1.52234 -1.4678,1.12731 c 0,0 -0.8996,1.41131 -1.54475,3.55143 -0.66252,2.19775 -1.18164,4.98271 -4.08374,6.40166 l -7.35595,3.59661 c 0,0 -5.56554,3.41755 -10.74476,8.34958 -4.89982,4.66596 -9.90444,11.93018 -10.4424,15.00423 l -1.25001,7.14287 c 0.0365,-0.21879 16.17097,0.81098 17.90179,6.16072 z"
       id="path4272"
       inkscape:connector-curvature="0"
       sodipodi:nodetypes="scsccccscscscscccscscscscscscccccccccccccssssssssssssssccscsscsssssssssscsscscscsccccssssssssssssscssscccsscsscs" />
  </g>
</svg>
