<?xml version="1.0" encoding="UTF-8" standalone="no"?>
<!-- Created with Inkscape (http://www.inkscape.org/) -->

<svg
   xmlns:dc="http://purl.org/dc/elements/1.1/"
   xmlns:cc="http://creativecommons.org/ns#"
   xmlns:rdf="http://www.w3.org/1999/02/22-rdf-syntax-ns#"
   xmlns:svg="http://www.w3.org/2000/svg"
   xmlns="http://www.w3.org/2000/svg"
   xmlns:sodipodi="http://sodipodi.sourceforge.net/DTD/sodipodi-0.dtd"
   xmlns:inkscape="http://www.inkscape.org/namespaces/inkscape"
   width="73.297386mm"
   height="47.8647mm"
   viewBox="0 0 259.71515 169.59933"
   id="svg4411"
   version="1.1"
   inkscape:version="0.91 r13725"
   sodipodi:docname="Mimidae-silhouette.svg">
  <defs
     id="defs4413" />
  <sodipodi:namedview
     id="base"
     pagecolor="#ffffff"
     bordercolor="#666666"
     borderopacity="1.0"
     inkscape:pageopacity="0.0"
     inkscape:pageshadow="2"
     inkscape:zoom="0.35"
     inkscape:cx="-322.28489"
     inkscape:cy="21.942527"
     inkscape:document-units="px"
     inkscape:current-layer="layer1"
     showgrid="false"
     fit-margin-top="0"
     fit-margin-left="0"
     fit-margin-right="0"
     fit-margin-bottom="0"
     inkscape:window-width="1366"
     inkscape:window-height="719"
     inkscape:window-x="0"
     inkscape:window-y="0"
     inkscape:window-maximized="1" />
  <metadata
     id="metadata4416">
    <rdf:RDF>
      <cc:Work
         rdf:about="">
        <dc:format>image/svg+xml</dc:format>
        <dc:type
           rdf:resource="http://purl.org/dc/dcmitype/StillImage" />
        <dc:title></dc:title>
      </cc:Work>
    </rdf:RDF>
  </metadata>
  <g
     inkscape:label="Layer 1"
     inkscape:groupmode="layer"
     id="layer1"
     transform="translate(-250.14204,-384.7054)">
    <path
       style="fill:#000000;fill-opacity:1;fill-rule:evenodd;stroke:#000000;stroke-width:0.40000001;stroke-linecap:butt;stroke-linejoin:miter;stroke-miterlimit:4;stroke-dasharray:none;stroke-opacity:1"
       d="m 428.58853,448.71198 -19.4462,8.84977 c 0,0 -5.9166,8.00243 -9.1996,12.29557 -4.4335,5.79764 -9.7858,9.53331 -9.7858,9.53331 0,0 2.0163,3.8915 -1.7047,6.12407 l -3.4724,2.08344 c 0,0 5.8894,6.55295 11.6799,6.88166 l 5.7768,3.31456 c 0,0 13.4974,8.69123 -5.2086,3.75651 l -5.1454,-1.35739 c 0,0 8.0137,5.8373 12.2796,9.31234 1.5349,1.2503 5.0393,2.46232 5.4927,5.77681 l -14.2684,-5.90308 c -2.943,-1.21761 -19.256,-6.50285 -19.256,-6.50285 -0.3157,-0.0631 -9.8022,-1.92284 -12.6269,1.64149 l -3.6295,4.57988 c 0,0 0.8342,1.27753 -0.8605,2.73892 l -2.1892,1.88785 c 0,0 -5.6312,18.16424 -6.2473,19.97298 l -4.6287,13.58803 c 0,0 1.5453,1.28507 9.0474,1.42614 0,0 5.3306,-1.60029 8.0325,3.98574 0,0 -6.3689,-1.98928 -10.9217,-0.5118 -3.0241,0.98138 -8.4039,-1.91574 -8.4039,-1.91574 l -4.6953,3.051 c -2.3162,1.50506 -28.379,0.3788 -28.379,0.3788 0,0 1.7114,-2.40257 3.504,-2.52537 2.6198,-0.17948 12.9426,-10e-6 12.9426,-10e-6 l 7.3236,-1.19955 c 5.0328,-0.82434 8.3969,-8.39689 8.3969,-8.39689 0,0 3.0936,-9.02825 4.9245,-14.26841 l 4.6088,-13.63706 -0.012,-0.05 c 0,0 -13.6227,7.46027 -20.1786,7.58929 l -9.0733,0.17857 c 0,0 0.5179,1.87371 -3.5159,4.375 l -4.4356,2.75039 c 0,0 -17.1709,12.31542 -19.101,14.26177 l -2.7288,2.75177 c 0,0 -5.4786,3.7349 4.4965,3.18288 l 3.4953,-0.19343 c 0,0 6.65,-1.30589 7.2914,2.24662 l 0.2902,1.60714 c -4.5559,-0.3366 -10.2863,-0.49339 -14.3973,-0.84821 l -7.5,-0.64732 c 0,0 -1.2603,3.13184 -9.1518,3.05804 l -19.1072,-0.15626 1.1608,-2.74554 c 1.2963,-3.06634 14.3973,-1.6741 14.3973,-1.6741 0.067,-0.0223 4.6875,-0.5895 8.5044,-3.63839 l 5.8288,-4.65594 14.3912,-10.44953 c 2.4298,-1.76184 8.0117,-5.92186 8.0117,-5.92186 l -3.1017,-4.43606 c -1.0358,-1.55455 -11.894,-6.30319 -12.1291,-6.29919 l -8.9062,-4.89447 c -10.4518,-5.77404 -18.4669,-16.69908 -18.4669,-16.69908 l -3.7565,-5.08233 c -4.7044,-6.36485 -7.292,-20.51872 -7.292,-20.51872 l -0.5367,-7.26048 c -0.5235,-7.08278 3.963,-20.10846 3.963,-20.10846 l 2.0098,-5.78293 c 1.232,-3.54509 0.6023,-9.78921 0.6023,-9.78921 l 0.2203,-12.17201 c 0.1348,-7.45123 -2.2595,-14.1711 -2.2595,-14.1711 l -4.6499,-5.59793 c -1.9403,-2.30302 -6.3616,-6.20536 -6.3616,-6.20536 l 1.2723,-0.44643 c 7.1195,-2.49807 18.125,10.26786 18.125,10.26786 8.7423,1.42316 17.5174,4.18481 24.8999,9.19194 3.0953,2.58636 10.4874,9.92724 12.3704,17.05916 0,0 6.9125,11.22149 10.8591,13.32139 2.721,1.66279 4.5906,2.96856 8.0646,4.95416 0,0 12.7653,1.01187 17.2616,3.77978 4.2257,3.03007 6.5495,3.14646 13.0723,7.60789 3.6333,1.79971 10.5441,3.31096 19.1045,1.32265 l 14.9254,-3.46672 c 0,0 17.7544,-6.61189 18.3591,-6.87414 l 25.7249,-11.15611 c 0,0 33.7548,-13.53663 39.7332,-15.65071 4.8447,-1.71316 27.9314,-7.14735 27.9314,-7.14735 0,0 12.4281,1.8711 5.1234,7.15043 -4.2979,3.10623 -17.3595,7.53621 -17.3595,7.53621 l 0.227,0.0115 c 0,0 -19.7473,7.18694 -24.1174,8.90197 -3.2615,1.27998 -18.6261,7.89395 -18.6261,7.89395 0,0 -15.9271,7.42853 -18.8931,8.77829 z"
       id="path4352-7-5"
       inkscape:connector-curvature="0"
       sodipodi:nodetypes="scscscccscscscscscscscscscscsccccscscscscscscscscscscscscscscscscscscccccccscscscsccscs" />
  </g>
</svg>
