<?xml version="1.0" encoding="UTF-8" standalone="no"?>
<!-- Created with Inkscape (http://www.inkscape.org/) -->

<svg
   xmlns:dc="http://purl.org/dc/elements/1.1/"
   xmlns:cc="http://creativecommons.org/ns#"
   xmlns:rdf="http://www.w3.org/1999/02/22-rdf-syntax-ns#"
   xmlns:svg="http://www.w3.org/2000/svg"
   xmlns="http://www.w3.org/2000/svg"
   xmlns:sodipodi="http://sodipodi.sourceforge.net/DTD/sodipodi-0.dtd"
   xmlns:inkscape="http://www.inkscape.org/namespaces/inkscape"
   width="200.83046mm"
   height="242.83122mm"
   viewBox="0 0 711.60399 860.42559"
   id="svg2"
   version="1.1"
   inkscape:version="0.91 r13725"
   sodipodi:docname="parts-of-a-bird.svg">
  <defs
     id="defs4" />
  <sodipodi:namedview
     id="base"
     pagecolor="#ffffff"
     bordercolor="#666666"
     borderopacity="1.0"
     inkscape:pageopacity="0.0"
     inkscape:pageshadow="2"
     inkscape:zoom="0.35"
     inkscape:cx="355.11492"
     inkscape:cy="737.13811"
     inkscape:document-units="px"
     inkscape:current-layer="layer1"
     showgrid="false"
     inkscape:window-width="1366"
     inkscape:window-height="719"
     inkscape:window-x="0"
     inkscape:window-y="0"
     inkscape:window-maximized="1"
     fit-margin-top="0"
     fit-margin-left="0"
     fit-margin-right="0"
     fit-margin-bottom="0" />
  <metadata
     id="metadata7">
    <rdf:RDF>
      <cc:Work
         rdf:about="">
        <dc:format>image/svg+xml</dc:format>
        <dc:type
           rdf:resource="http://purl.org/dc/dcmitype/StillImage" />
        <dc:title></dc:title>
      </cc:Work>
    </rdf:RDF>
  </metadata>
  <g
     inkscape:label="Layer 1"
     inkscape:groupmode="layer"
     id="layer1"
     transform="translate(-18.507996,-102.70784)">
    <path
       style="fill:none;fill-rule:evenodd;stroke:#000000;stroke-width:1;stroke-linecap:butt;stroke-linejoin:miter;stroke-miterlimit:4;stroke-dasharray:8, 8;stroke-dashoffset:0;stroke-opacity:1"
       d="m 415.42056,175.48651 c 0,0 -17.94815,6.44089 -32.75126,39.65209 -12.2584,27.50208 -5.56955,7.80925 -20.81056,39.80831 0,0 6.366,6.61252 36.5819,15.91184 15.80331,5.01692 24.59972,21.33635 24.59972,21.33635 -3.29426,11.75274 -1.98115,12.04384 -1.98115,12.04384 l -5.70983,10.48496 c 0,0 2.4153,0.0366 -3.24721,10.98102 -3.04778,5.89071 -7.42285,17.64886 -7.42285,17.64886 0,0 -46.03554,22.68338 14.78132,42.6686 0,0 8.58311,1.48414 17.4347,2.00979 7.64369,0.45392 17.43022,0.19638 17.43022,0.19638 0,0 14.16009,-24.07919 15.68913,-62.18631 0.68776,-17.14051 -1.34305,-44.86772 -1.34305,-44.86772 0,0 -2.21498,-9.39841 5.01314,-21.21302 4.81204,-12.26087 11.63425,-26.10443 11.63425,-26.10443 0,0 12.31015,-20.57512 19.58531,-22.7253 9.00801,-2.66233 11.96257,-2.06239 21.28063,-3.76365 11.18731,-2.04254 16.28064,-8.03233 16.28064,-8.03233 l 3.02239,-0.20363 c 0,0 -7.08762,-6.93506 -17.14736,-6.24478 -10.48257,0.71929 -35.70892,1.33136 -35.70892,1.33136 0,0 -8.89424,-16.66526 -33.84368,-23.93641 -21.35346,-6.22316 -43.36748,5.20418 -43.36748,5.20418 z"
       id="path4184-2"
       inkscape:connector-curvature="0"
       sodipodi:nodetypes="ccccsccsccscscccscccscsc" />
    <path
       style="fill:none;fill-rule:evenodd;stroke:#000000;stroke-width:1px;stroke-linecap:butt;stroke-linejoin:miter;stroke-opacity:1"
       d="m 517.03756,192.91648 -24.29894,1.46385 c 0,0 0.24022,0.26359 0.65136,1.21395 l 0.301,0.69579 c 0,0 3.04248,-0.83525 6.59565,-0.22317 l 2.4058,0.44576 c 0,0 -29.42065,5.72719 -34.55799,11.5561 l -0.45354,0.5146 c 11.43384,-3.54505 33.01625,-6.25673 39.7602,-7.08058 6.31672,-0.77166 37.81758,-2.58852 37.81758,-2.58852 0,0 -2.51221,-7.54657 -28.22112,-5.99778 z"
       id="path3438-37"
       inkscape:connector-curvature="0"
       sodipodi:nodetypes="scscccscscs" />
    <path
       style="fill:none;fill-rule:evenodd;stroke:#000000;stroke-width:1px;stroke-linecap:butt;stroke-linejoin:miter;stroke-opacity:1"
       d="m 478.33608,211.6043 0.50509,1.95717 c 0,0 27.65314,-6.30872 26.45336,-3.40926 l -0.37881,0.91544 19.12976,-3.44082 c 16.07316,-2.83644 18.8141,-8.5863 18.8141,-8.5863 l -20.81305,1.24737 -14.03869,1.21534 -12.61011,1.57249 -15.60955,2.59393 c -7.65358,1.33859 -13.16355,3.59866 -13.16355,3.59866 0,0 11.1576,0.18986 11.71145,2.33598 z"
       id="path3454-59"
       inkscape:connector-curvature="0"
       sodipodi:nodetypes="scscsccccscs" />
    <path
       style="fill:none;fill-rule:evenodd;stroke:#000000;stroke-width:1;stroke-linecap:butt;stroke-linejoin:miter;stroke-miterlimit:4;stroke-dasharray:8, 8;stroke-dashoffset:0;stroke-opacity:1"
       d="m 443.17015,210.84669 6.81853,-0.50508 c 0,0 8.17647,-2.13572 10.22779,-3.34613 l 5.08233,-2.99889 c 0,0 5.46114,-2.36755 10.5119,-3.18829 3.2715,-0.53162 7.70242,0.37881 7.70242,0.37881 0,0 -9.92985,2.73581 -13.5108,5.30329 l -3.34612,2.39911 c 0,0 -13.71334,7.11744 -20.8344,13.06885 l -13.06885,10.92228 -5.4927,4.86136 c -13.04319,11.34194 -27.14785,-3.59867 -27.14785,-3.59867 0,0 -8.93327,-7.77513 -6.50169,-17.93639 0,0 0.79371,-4.63064 5.73842,-7.99723 l 2.09822,-1.42857 c 0.92696,-0.89562 7.7052,-6.06596 13.125,-3.74999 l 8.82649,3.7717 c 0,0 10.11168,4.75937 19.77131,4.04384 z"
       id="path4272-2"
       inkscape:connector-curvature="0"
       sodipodi:nodetypes="scscscscscsccscscs" />
    <path
       style="opacity:1;fill:none;fill-opacity:1;stroke:#000000;stroke-width:1.35599995;stroke-miterlimit:4;stroke-dasharray:none;stroke-dashoffset:0;stroke-opacity:1"
       d="m 455.54453,196.64142 c 0.98303,5.73976 -3.91171,11.42736 -12.94259,11.42736 -9.03087,0 -13.76758,-5.97855 -13.44765,-11.93243 0.25254,-4.69978 5.81491,-10.33011 13.57392,-10.03839 7.64515,0.28744 11.79288,4.56782 12.81632,10.54346 z"
       id="path4145-28"
       inkscape:connector-curvature="0"
       sodipodi:nodetypes="sssss" />
    <path
       style="opacity:1;fill:none;fill-opacity:1;stroke:#000000;stroke-width:1.35599995;stroke-miterlimit:4;stroke-dasharray:none;stroke-dashoffset:0;stroke-opacity:1"
       d="m 452.14427,195.13172 c 1.02855,4.41079 0.47052,9.65326 -8.52317,9.65959 -7.4262,0.005 -14.31635,-4.11015 -11.17481,-10.03839 1.57386,-2.96994 5.20703,-6.27985 10.66973,-5.74526 7.12285,0.69707 8.35669,3.24416 9.02825,6.12406 z"
       id="path4145-3-97"
       inkscape:connector-curvature="0"
       sodipodi:nodetypes="sssss" />
    <path
       style="opacity:1;fill:#000000;fill-opacity:1;stroke:#000000;stroke-width:0.67428011;stroke-miterlimit:4;stroke-dasharray:none;stroke-dashoffset:0;stroke-opacity:1"
       d="m 446.95171,197.44521 c 0.14974,1.72147 -2.2477,3.78183 -5.06126,3.56154 -3.96982,-0.31083 -4.72999,-1.98463 -4.65271,-4.58443 0.0239,-0.80399 1.65574,-3.6764 1.87162,0.65846 0,0 0.57148,1.37137 2.48554,1.29578 0,0 2.03851,0.34166 2.59553,-0.73273 1.07096,-2.06571 0.0571,-3.03056 0.90241,-3.23182 1.53267,-0.3649 1.79925,2.3478 1.85887,3.0332 z"
       id="path4145-3-6-3"
       inkscape:connector-curvature="0"
       sodipodi:nodetypes="ssssssss" />
    <path
       style="fill:none;fill-rule:evenodd;stroke:#000000;stroke-width:1px;stroke-linecap:butt;stroke-linejoin:miter;stroke-opacity:1"
       d="m 410.91164,202.31686 c 0,0 2.67113,-3.25837 13.44537,-4.64286 0.75405,-0.0969 4.51184,-0.40337 4.51184,-0.40337 0,0 0.86305,3.85357 2.003,5.37013 1.49901,1.99426 4.60976,4.15969 7.20639,4.77545 8.48047,2.01106 12.73983,-1.31703 14.92131,-3.09633 3.45855,-2.82093 2.35756,-8.65218 2.35756,-8.65218 -0.004,-0.0297 8.8107,-0.42031 16.47338,2.52748 1.42242,0.5472 15.07463,2.56624 12.26511,2.55469 -7.77195,-0.032 -13.51322,-0.7663 -22.89328,5.67794 -7.03927,4.83608 -23.95456,4.46048 -23.95456,4.46048 -17.72288,-4.19876 -15.55548,-5.87801 -26.33612,-8.57143 z"
       id="path4178-6"
       inkscape:connector-curvature="0"
       sodipodi:nodetypes="cscssscssscc" />
    <path
       style="fill:none;fill-rule:evenodd;stroke:#000000;stroke-width:1;stroke-linecap:butt;stroke-linejoin:miter;stroke-miterlimit:4;stroke-dasharray:8, 8;stroke-dashoffset:0;stroke-opacity:1"
       d="m 409.64571,202.26039 c 0,0 3.17716,-4.90732 7.57614,-8.71256 0.94373,-0.81635 2.85082,-2.31964 7.67319,-5.38658 5.00146,-3.18083 11.5755,-3.54179 14.67644,-3.76793 5.49704,-0.40088 18.63001,2.86956 26.1377,5.99778 7.57614,3.15673 9.07156,4.1507 14.079,5.55584 1.4332,0.40218 10.74866,1.4521 13.52658,2.55695 -2.58853,0.72605 -4.6515,1.46999 -8.22328,2.11501 -2.93029,0.52917 -4.61277,-1.11275 -9.52148,-1.48366 -3.07781,-0.49719 -7.11447,-2.02031 -9.08743,-2.52539 -6.34501,-1.01015 -10.43297,-0.97858 -10.81178,-0.97858 -0.75762,0 -1.07329,-6.50286 -8.20749,-8.83884 -4.40255,-1.44154 -12.2481,-1.4521 -16.60438,4.86136 -3.17561,4.60233 -0.69061,5.62163 -2.65165,5.80838 -3.95172,0.37634 -6.37659,-10e-6 -11.67989,2.0203 -5.3033,2.0203 -6.88167,2.77792 -6.88167,2.77792 z"
       id="path4180-1"
       inkscape:connector-curvature="0"
       sodipodi:nodetypes="ccsssscscccssssc" />
    <path
       style="fill:none;fill-rule:evenodd;stroke:#000000;stroke-width:1;stroke-linecap:butt;stroke-linejoin:miter;stroke-miterlimit:4;stroke-dasharray:8, 8;stroke-dashoffset:0;stroke-opacity:1"
       d="m 426.13805,262.26141 9.95248,9.55548 c 0,0 9.07903,9.38565 30.18685,9.80363 3.29274,0.13032 2.52952,-0.50009 2.46225,-4.04062 -0.0771,-4.06092 0.52248,-4.07421 -0.12626,-6.81853 l 12.93995,-29.81932 c 0,0 6.61322,-11.90361 10.0746,-17.2365 3.4135,-5.2591 13.61539,-12.98142 13.61539,-12.98142 0,0 1.04687,-1.82568 -3.38506,-1.39924 -4.43192,0.42644 -23.56363,4.31503 -23.56363,4.31503 0,0 -2.56671,0.99638 -14.48812,10.34063 -12.81428,10.86211 -32.84041,26.67924 -35.61641,28.64217 -4.06599,2.87509 -2.05204,9.63869 -2.05204,9.63869 z"
       id="path4182-2"
       inkscape:connector-curvature="0"
       sodipodi:nodetypes="cccsccscscccc" />
    <path
       style="fill:none;fill-rule:evenodd;stroke:#000000;stroke-width:1;stroke-linecap:butt;stroke-linejoin:miter;stroke-miterlimit:4;stroke-dasharray:1, 12;stroke-dashoffset:0;stroke-opacity:1"
       d="m 359.01106,260.95208 c 0,0 -58.07385,42.51695 -84.05814,91.01892 12.90579,-11.64182 25.47844,-17.68704 31.87653,-23.91036 8.14724,-7.92469 16.82913,-12.06041 16.82913,-12.06041 0,0 33.71601,-14.0403 54.2143,-18.71188 20.49829,-4.67158 44.63874,-5.75513 44.63874,-5.75513 0,0 -7.89251,-12.42424 -14.11798,-15.912 -9.96755,-5.58425 -26.09306,-10.94756 -30.18715,-12.47174 -8.99167,-3.34748 -12.27267,-4.25397 -16.16289,-7.80573 z"
       id="path4184-7-3-9"
       inkscape:connector-curvature="0"
       sodipodi:nodetypes="ccscscsscc" />
    <path
       style="fill:none;fill-rule:evenodd;stroke:#000000;stroke-width:1px;stroke-linecap:butt;stroke-linejoin:miter;stroke-opacity:1"
       d="m 415.32411,175.42085 c 0,0 -17.9482,6.44089 -32.7513,39.65209 -12.2584,27.50208 -6.5797,10.33463 -21.8207,42.33369 -3.3458,7.8577 -58.431,42.51695 -83.701,92.44749 -34.0001,27.86893 -34.9413,38.66936 -34.9413,38.66936 l -27.5885,29.96491 -40.8718,35.3155 c 0,0 -6.505,5.33703 -7.4663,9.08412 l -28.1805,20.51271 c 0,0 -9.7264,7.95975 -37.9014,30.13899 -27.1602,21.38037 -19.6451,17.10965 -29.2415,24.38114 -13.5441,10.26284 -19.1609,18.192 -19.1609,18.192 0,0 10.6496,-3.91888 15.2324,-6.58485 1.2901,-0.75051 1.5754,2.21908 4.195,1.56559 1.878,-0.46849 1.8245,1.48018 5.5662,-0.45199 1.2999,-0.67127 4.1556,2.01528 4.1556,2.01528 0,0 2.3133,5.01756 13.7276,-2.06027 8.5869,-5.32464 27.9829,-19.9699 32.4162,-23.65317 10.0583,-8.35676 26.9036,-21.87972 26.9036,-21.87972 l 29.4643,-23.57144 7.1428,-0.71428 c 0,0 -7.7678,8.83929 -8.5714,15.17857 3.817,5.88859 24.6042,-18.77704 52.2971,-14.9181 5.732,0.79875 18.77,-0.85017 18.77,-0.85017 0,0 1.7749,-6.0123 7.0561,-12.70701 l 18.0436,7.28672 c 0,0 -16.1395,12.17026 -7.6854,11.50353 7.3269,-0.57783 20.2106,0.0877 49.5543,-3.17211 35.8976,-2.01486 77.9315,-26.43203 77.9315,-26.43203 0,0 38.659,-25.59632 60.8764,-78.35349 9.1459,-21.71777 10.6245,-35.19087 11.1434,-52.33732 0.5189,-17.14645 -1.343,-44.86772 -1.343,-44.86772 0,0 -2.215,-9.39841 5.0131,-21.21303 4.8121,-12.26087 11.6343,-26.10443 11.6343,-26.10443 0,0 12.3101,-20.57512 19.5853,-22.7253 9.008,-2.66233 11.9625,-2.06239 21.2806,-3.76365 11.1873,-2.04254 16.2806,-8.03233 16.2806,-8.03233 l 3.0224,-0.20363 c 0,0 -7.0876,-6.93506 -17.1473,-6.24478 -10.4826,0.71929 -35.7089,1.33136 -35.7089,1.33136 0,0 -8.8943,-16.66526 -33.8437,-23.93641 -21.3535,-6.22316 -43.3675,5.20418 -43.3675,5.20418 z"
       id="path4184-7-31"
       inkscape:connector-curvature="0"
       sodipodi:nodetypes="cccccccccsscssscssccccscccsccsscccscccscsc" />
    <path
       style="fill:none;fill-rule:evenodd;stroke:#000000;stroke-width:1;stroke-linecap:butt;stroke-linejoin:miter;stroke-miterlimit:4;stroke-dasharray:6, 6;stroke-dashoffset:0;stroke-opacity:1"
       d="m 270.70687,452.70621 c 0,0 -38.89906,15.75567 -52.4739,27.87133 0,0 1.96985,-1.57821 15.8163,0.35126 5.732,0.79874 18.77,-0.85017 18.77,-0.85017 0,0 1.7749,-6.0123 7.0561,-12.70701 l 18.0436,7.28672 c 0,0 -16.1395,12.17026 -7.6854,11.50353 7.3269,-0.57783 20.2106,0.0877 49.5543,-3.17211 35.8976,-2.01486 77.9315,-26.43203 77.9315,-26.43203 0,0 30.07271,-16.25241 56.07819,-69.00958 -30.413,2.74657 -43.825,-4.79983 -43.825,-4.79983 -8.31791,14.07297 -46.0294,42.70289 -77.48978,56.36366 -44.99271,19.53679 -61.77591,13.59423 -61.77591,13.59423 z"
       id="path4184-7-9-4"
       inkscape:connector-curvature="0"
       sodipodi:nodetypes="csccccscccssc" />
    <path
       style="fill:none;fill-rule:evenodd;stroke:#000000;stroke-width:1;stroke-linecap:butt;stroke-linejoin:miter;stroke-miterlimit:4;stroke-dasharray:1, 2;stroke-dashoffset:0;stroke-opacity:1"
       d="m 387.8885,365.37361 c 0,0 4.16667,6.84524 8.03572,9.82143 3.86905,2.97619 15.17857,8.03571 15.17857,8.03571 0,0 -16.0119,16.13095 -25.17857,23.48214 -9.16667,7.35119 -30.35714,20.44643 -30.35714,20.44643 0,0 -28.63095,15.53571 -42.94643,19.82143 -7.15774,2.14286 -17.8497,5.49107 -26.39508,6.33928 -8.54539,0.84822 -15.47992,0.26786 -15.47992,0.26786 0,0 10.54306,-4.30942 25.22686,-11.90198 14.68379,-7.59255 35.47262,-20.07537 48.5867,-28.8714 13.11408,-8.79603 21.67881,-14.55876 24.32458,-18.80378 3.48984,-5.5993 7.53245,-13.10697 8.64757,-15.24427 4.28572,-8.21428 10.35714,-13.39285 10.35714,-13.39285 z"
       id="path4405-7"
       inkscape:connector-curvature="0"
       sodipodi:nodetypes="cscscsscssssc" />
    <path
       style="fill:none;fill-rule:evenodd;stroke:#000000;stroke-width:1px;stroke-linecap:butt;stroke-linejoin:miter;stroke-opacity:1"
       d="m 320.1266,484.06929 c 0,0 5.19741,13.47299 10.4611,17.59282 1.25775,0.98442 8.9208,13.47311 15.24884,23.79225 6.51228,10.61961 8.16434,15.43832 16.33016,27.44261 0.22157,2.28413 -0.69285,3.91802 -2.41853,6.44576 -1.88591,2.76244 -3.1048,3.78327 -6.24513,4.96116 -3.19429,1.19813 -7.5063,0.7355 -11.24666,1.21208 -3.8304,0.48806 -11.46068,1.68652 -11.46068,1.68652 0,0 -6.17743,1.50444 -5.92164,4.30552 2.85714,-1.70834 6.97511,-1.00828 6.97511,-1.00828 l 0.77557,2.51423 c 0,0 6.76095,0.35175 13.645,-0.76206 6.88406,-1.11381 13.95434,-4.00887 14.9518,-4.56784 2.05993,-1.15438 7.66198,1.36464 9.13779,0.29772 2.81938,-2.03825 8.4433,0.12626 8.4433,0.12626 0,0 9.08999,4.80679 13.98897,6.25058 7.41595,2.18558 20.98655,4.58765 22.92301,3.53464 l 0.89286,-2.27678 -2.49999,-1.02679 c 0,0 3.9787,0.29509 5.82654,0.9758 1.35913,0.50068 3.72702,2.23399 3.72702,2.23399 0,0 -0.23003,-2.34556 -0.89286,-3.25443 -0.75393,-1.03378 -3.21428,-2.09821 -3.21428,-2.09821 0,0 -2.48191,-1.57339 -3.88393,-1.91965 -1.71973,-0.42471 -5.3125,-0.13393 -5.3125,-0.13393 0,0 -10.5506,-1.78571 -15.53572,-3.2366 -4.98512,-1.45089 -14.375,-5.46875 -14.375,-5.46875 0,0 14.59077,5.87054 17.76227,6.0212 3.17151,0.15067 8.6291,-0.15067 11.16631,-0.17299 5.0744,-0.0447 14.91071,-0.44643 14.91071,-0.44643 0,0 0.86025,-1.34392 0.84822,-2.09821 -0.0112,-0.69948 -0.84822,-1.91965 -0.84822,-1.91965 0,0 2.97619,-1.0119 4.10715,-0.84821 1.13095,0.16369 4.55357,1.65179 4.55357,1.65179 0,0 -1.32276,-2.50584 -2.45536,-3.25893 -0.85655,-0.56955 -2.99108,-0.75893 -2.99108,-0.75893 0,0 -4.75481,0.14087 -8.47579,0.27234 -3.63104,0.1283 -7.40437,0.80806 -7.40437,0.80806 0,0 -20.82609,1.36907 -21.05326,1.05998 -0.22717,-0.30909 20.21889,-1.10726 20.21889,-1.10726 0,0 0.32987,-1.94854 -0.35853,-2.66232 -0.29874,-0.30975 -0.17997,-1.27839 -0.17997,-1.27839 0,0 3.68703,-0.39291 5.35714,-0.97054 1.00346,-0.34706 -2.5163,-0.6559 -3.49034,-1.07855 -0.97405,-0.42265 -0.27197,-1.59955 -1.65945,-1.26795 -1.73159,0.41384 -3.22103,0.66494 -5.19144,1.28231 -1.9704,0.61737 -4.42178,1.60102 -6.562,2.21726 -4.28044,1.23249 -8.8315,2.25806 -8.8315,2.25806 0,0 -11.40627,0.47598 -16.6588,-2.33784 -2.70815,-1.45077 -7.88031,-9.05283 -12.68391,-18.03328 -4.97338,-9.29788 -10.23935,-17.10544 -10.57742,-17.82895 -7.23695,-15.48776 -11.74668,-18.37838 -15.90555,-31.12218 -0.7186,-2.20195 -0.0396,-8.07687 -0.0396,-8.07687 0,0 -4.62594,0.94516 -6.93891,1.29147 -2.31296,0.34631 -6.9389,0.78639 -6.93891,0.78639 z"
       id="path4422-5"
       inkscape:connector-curvature="0"
       sodipodi:nodetypes="csscssaccccssscacccacacacsccscacscacscscsssssccsscscscc" />
    <path
       style="fill:none;fill-rule:evenodd;stroke:#000000;stroke-width:1;stroke-linecap:butt;stroke-linejoin:miter;stroke-miterlimit:4;stroke-dasharray:8, 8;stroke-dashoffset:0;stroke-opacity:1"
       d="m 402.32143,197.18363 c 0,0 18.20187,-29.61947 66.07142,-11.78571 l 18.2143,6.78571"
       id="path4469"
       inkscape:connector-curvature="0"
       sodipodi:nodetypes="csc" />
    <path
       style="fill:none;fill-rule:evenodd;stroke:#000000;stroke-width:1px;stroke-linecap:butt;stroke-linejoin:miter;stroke-opacity:1"
       d="m 260.62105,466.91172 c 0,0 -1.84413,3.41564 -4.11899,6.5981 -2.27486,3.18246 -4.3071,5.78441 -3.67289,10.7549 0.4026,3.15528 1.54936,3.92655 2.11104,4.87261 0.56169,0.94607 0.53831,2.06692 2.64125,5.92139 2.10294,3.85446 5.09892,11.32256 7.1396,17.17804 1.38772,3.98188 2.79894,11.65383 3.4569,12.16881 0.62888,0.49221 1.1297,7.80715 3.13455,13.25697 2.07481,5.64 1.90985,8.8309 4.18998,14.4956 2.32583,5.7781 2.73589,8.1542 4.01256,12.2605 1.32723,4.2689 0.86884,6.0587 3.79104,12.8644 0.22157,2.2841 1.15629,6.675 0.97432,9.2136 0,0 -1.09082,0.7858 -4.10226,1.2111 0,0 -4.1825,-2.0579 -6.42524,-2.6272 -2.68021,-0.6803 -8.24639,-0.9027 -8.24639,-0.9027 0,0 -6.17743,-0.6384 -5.92164,2.1626 3.03571,-0.8154 5.27868,0.1525 5.27868,0.1525 l -0.11729,2.1571 c 0,0 1.80786,1.3282 2.83286,1.7574 1.8388,0.77 5.81214,1.4091 5.81214,1.4091 5.91565,1.5277 8.37937,1.2156 9.50538,1.4143 2.05993,0.3635 3.12056,2.2051 5.47707,2.7084 4.06757,0.8688 6.47902,4.412 6.47902,4.412 0,0 4.40116,2.7315 8.72111,5.5363 3.22026,2.0908 8.99444,7.1953 8.99444,7.1953 l 2.58929,-1.4732 -1.78571,-1.4732 c 0,0 1.25567,0.3713 1.80869,0.7079 1.31075,0.798 3.45917,3.0376 3.45917,3.0376 0,0 -0.96031,-3.4292 -2.05358,-4.7723 -0.57335,-0.7043 -2.23213,-1.5625 -2.23213,-1.5625 0.2881,-3.1964 -2.47351,-4.1938 -5.62502,-5.2902 -4.98512,-1.4508 -10.71428,-8.058 -10.71428,-8.058 0,0 4.51822,4.2578 9.87931,7.1059 5.3611,2.8481 11.56506,4.2864 13.15081,4.3617 3.17151,0.1507 10.0502,3.2054 12.5056,3.8449 4.62797,1.2053 8.03572,1.1607 8.03572,1.1607 0,0 -0.0487,-1.8329 0.13393,-2.7232 0.11168,-0.5443 0.58035,-1.5625 0.58035,-1.5625 0,0 2.61905,0.059 4.19644,2.6339 0.59702,0.9744 -0.26787,-3.8839 -0.26787,-3.8839 0,0 -1.23419,-1.4914 -2.09822,-1.8303 -1.37211,-0.5383 -4.41965,-0.134 -4.41965,-0.134 0,0 -3.23695,-1.377 -8.4758,-2.0491 -3.60377,-0.4623 -26.33294,-8.5669 -26.33294,-8.5669 0,0 16.52854,4.506 18.76816,4.4528 3.03961,-0.072 23.72386,0.4127 30.66532,-0.9287 1.22515,-0.2367 0.41916,-3.0199 -0.26924,-3.7337 -0.29874,-0.3098 4.40471,0.3202 6.87361,-0.6534 1.7649,-0.696 -4.17012,-2.3572 -2.50001,-2.9348 1.00346,-0.3471 -9.92702,0.5941 -10.90106,0.1714 -0.97405,-0.4226 -12.50411,1.3469 -13.89159,1.6785 -1.73159,0.4138 -5.09603,-0.4958 -8.31644,0.3895 -3.48826,0.1709 -2.45749,-0.6312 -7.09771,-0.2828 -4.36973,-0.5532 -7.76007,-1.4919 -7.76007,-1.4919 0,0 -5.95984,-0.774 -11.21237,-3.5879 -2.70815,-1.4507 -9.89582,-15.6251 -12.25543,-22.6096 -3.72338,-9.7443 -4.64278,-14.6722 -4.64278,-14.6722 -6.76733,-15.6986 -5.43323,-19.76732 -9.5921,-32.51112 -0.7186,-2.20195 -4.58528,-20.57751 -4.58528,-20.57751 0,0 -2.27124,-5.50506 0.6809,-10.59581 3.35262,-5.78134 10.70926,-10.00416 9.55278,-9.831 -13.04583,-4.45192 -17.79804,-7.92618 -17.79805,-7.92618 z"
       id="path4422-0-3"
       inkscape:connector-curvature="0"
       sodipodi:nodetypes="cssssasssacssaccccassscscccacacccscscacscacsccssssssccsscsccsccc" />
    <g
       id="g4600"
       transform="translate(517.65471,133.84521)">
      <path
         sodipodi:nodetypes="sssss"
         inkscape:connector-curvature="0"
         id="path4520-9"
         d="m -95.75077,161.12128 c -0.57617,2.19759 -0.74537,3.70138 -2.90419,2.90419 -2.19448,-0.81036 -3.96585,-1.80905 -4.16688,-3.40927 -0.36847,-2.93314 0.30653,-3.18294 3.21986,-2.84105 2.80585,0.32928 4.51413,0.8177 3.85121,3.34613 z"
         style="opacity:1;fill:none;fill-opacity:1;stroke:#000000;stroke-width:1;stroke-miterlimit:4;stroke-dasharray:none;stroke-dashoffset:0;stroke-opacity:1" />
      <path
         sodipodi:nodetypes="cssssc"
         inkscape:connector-curvature="0"
         id="path4520-1-3"
         d="m -97.05876,166.34486 c -0.50748,1.01627 0.0483,1.7199 -0.74008,2.01979 -0.78836,0.2999 -3.80474,-0.11961 -5.14303,-0.46571 -2.36929,-0.61274 -6.86114,-2.88592 -6.00041,-4.24982 1.65183,-2.61746 7.62008,-9.62584 5.68474,-2.60569 -0.42129,1.52815 7.36679,2.96241 6.19878,5.30143 z"
         style="opacity:1;fill:none;fill-opacity:1;stroke:#000000;stroke-width:1;stroke-miterlimit:4;stroke-dasharray:none;stroke-dashoffset:0;stroke-opacity:1" />
      <path
         sodipodi:nodetypes="csssscc"
         inkscape:connector-curvature="0"
         id="path4520-0-6"
         d="m -107.22501,161.11089 c -0.74364,0.52525 -0.85824,1.72069 -1.56052,2.24146 -0.70228,0.52076 -2.34937,0.23292 -3.65798,0.0237 -2.30999,-0.36927 -5.76827,0.21111 -5.75925,-1.40166 0.0135,-2.41406 1.55616,-2.53342 5.74524,-2.2097 3.05276,0.23591 13.1778,-5.40585 5.23251,1.34617 z"
         style="opacity:1;fill:none;fill-opacity:1;stroke:#000000;stroke-width:1;stroke-miterlimit:4;stroke-dasharray:none;stroke-dashoffset:0;stroke-opacity:1" />
      <path
         sodipodi:nodetypes="csssssc"
         inkscape:connector-curvature="0"
         id="path4520-3-6"
         d="m -101.0793,178.90716 c -1.43645,1.76011 -2.64557,3.08378 -4.86136,2.46225 -2.88896,-0.81036 -5.11975,-2.54829 -5.3033,-4.23002 -0.6775,-6.20745 2.82796,-10.80792 3.31597,-11.28933 0,0 6.1812,2.44434 8.74272,2.32423 1.41101,-0.0662 2.1475,3.22598 0.90437,5.32712 -1.72259,2.91153 -2.7984,5.40575 -2.7984,5.40575 z"
         style="opacity:1;fill:none;fill-opacity:1;stroke:#000000;stroke-width:1;stroke-miterlimit:4;stroke-dasharray:none;stroke-dashoffset:0;stroke-opacity:1" />
      <path
         sodipodi:nodetypes="sssss"
         inkscape:connector-curvature="0"
         id="path4520-6-2-1"
         d="m -108.38907,166.02919 c -0.57617,2.19759 -1.6309,3.42572 -3.93098,3.35062 -5.52107,-0.18026 -8.40238,-2.58487 -8.09545,-4.1682 0.83688,-4.31706 1.95832,-3.40615 5.31808,-2.26069 2.67396,0.91165 7.37127,0.54984 6.70835,3.07827 z"
         style="opacity:1;fill:none;fill-opacity:1;stroke:#000000;stroke-width:1;stroke-miterlimit:4;stroke-dasharray:none;stroke-dashoffset:0;stroke-opacity:1" />
      <path
         sodipodi:nodetypes="ssscss"
         inkscape:connector-curvature="0"
         id="path4520-6-0-8"
         d="m -120.60505,165.90145 c -0.82736,2.51549 -1.54876,5.35289 -6.43097,3.57383 -2.15536,-0.7854 -4.6355,-1.00547 -4.83653,-2.60569 -0.36847,-2.93314 -1.12192,-5.44237 5.00558,-5.47498 1.51281,-0.008 6.08306,-1.07857 8.03201,-1.50649 1.57798,-0.34647 -0.78161,3.00798 -1.77009,6.01333 z"
         style="opacity:1;fill:none;fill-opacity:1;stroke:#000000;stroke-width:1;stroke-miterlimit:4;stroke-dasharray:none;stroke-dashoffset:0;stroke-opacity:1" />
      <path
         sodipodi:nodetypes="sscssscss"
         inkscape:connector-curvature="0"
         id="path4520-6-6-7"
         d="m -112.8337,177.4635 c -0.59505,0.96761 -1.82028,1.59681 -2.64715,2.93654 -0.82688,1.33974 -1.52326,2.8543 -2.66776,2.73551 -8.66769,-0.89963 -7.0462,-3.55012 -7.24723,-5.15034 -0.0921,-0.73329 -0.31154,-3.02319 0.4667,-4.98555 0.77825,-1.96236 2.55417,-3.59717 3.23844,-4.80597 1.36855,-2.4176 4.11293,-0.1031 4.11293,-0.1031 0,0 3.34951,1.75082 5.74978,1.3695 1.25702,-0.1997 1.6945,3.61256 -1.00571,8.00341 z"
         style="opacity:1;fill:none;fill-opacity:1;stroke:#000000;stroke-width:1;stroke-miterlimit:4;stroke-dasharray:none;stroke-dashoffset:0;stroke-opacity:1" />
      <path
         sodipodi:nodetypes="csscsssc"
         inkscape:connector-curvature="0"
         id="path4520-6-8-9"
         d="m -105.09299,187.60705 c -2.09403,2.46545 -0.52554,4.45567 -2.8149,4.6899 0,0 -1.9771,0.25863 -4.57206,0.55586 -2.59496,0.29722 -6.90503,0.22785 -7.00554,-0.57226 -0.18423,-1.46657 -0.6027,-4.81346 1.53139,-8.34939 2.09858,-3.47708 5.25012,-8.09692 6.06347,-7.70594 0,0 3.14626,6.87149 9.12265,4.76525 0,0 -1.47895,5.62045 -2.32501,6.61658 z"
         style="opacity:1;fill:none;fill-opacity:1;stroke:#000000;stroke-width:1;stroke-miterlimit:4;stroke-dasharray:none;stroke-dashoffset:0;stroke-opacity:1" />
      <path
         sodipodi:nodetypes="csssscc"
         inkscape:connector-curvature="0"
         id="path4520-6-68-2"
         d="m -119.75552,191.40671 c -0.30566,2.25121 -5.52739,2.38468 -7.8149,2.63634 -2.37305,0.26107 -6.31037,-0.72756 -6.22045,-2.33784 0.52439,-9.39079 8.30914,-12.5732 8.30914,-12.5732 0.67054,-0.22184 0.61468,2.7796 2.51936,3.44222 1.90469,0.66262 5.80085,-0.70941 5.18248,0.52 -1.43676,2.85656 -1.68881,6.20006 -1.97563,8.31248 z"
         style="opacity:1;fill:none;fill-opacity:1;stroke:#000000;stroke-width:1;stroke-miterlimit:4;stroke-dasharray:none;stroke-dashoffset:0;stroke-opacity:1" />
      <path
         sodipodi:nodetypes="ssssscss"
         inkscape:connector-curvature="0"
         id="path4520-6-84-0"
         d="m -125.51924,173.81948 c 0,0 0.99995,4.4544 -0.24375,5.30176 -1.76712,1.20397 -5.37523,3.60022 -5.37523,3.60022 -5.41594,-2.27111 -3.96585,-5.21832 -4.16687,-6.81854 -0.18423,-1.46657 -0.0927,-3.33928 1.15133,-4.1931 1.53255,-1.05185 3.13548,-3.21413 4.53077,-3.1305 1.72324,0.10329 4.15289,0.95239 5.2368,1.75361 0.90339,0.66778 -0.30027,1.66843 -1.13305,3.48655 z"
         style="opacity:1;fill:none;fill-opacity:1;stroke:#000000;stroke-width:1;stroke-miterlimit:4;stroke-dasharray:none;stroke-dashoffset:0;stroke-opacity:1" />
      <path
         sodipodi:nodetypes="cscsscssc"
         inkscape:connector-curvature="0"
         id="path4520-6-3-23"
         d="m -130.88907,167.85954 c 0.88064,0.71752 1.60819,0.43039 -3.87199,3.7805 -0.73265,0.44787 -1.97064,0.41515 -3.05005,0.0165 -2.19448,-0.81036 -3.43015,-2.16619 -4.47938,-3.76641 -0.81048,-1.23608 -0.063,-3.01008 0.42389,-3.56384 0.48686,-0.55377 1.87501,-0.29637 3.15311,-0.6165 1.54879,-0.56641 5.28815,-1.60638 6.19514,-0.91501 0.90699,0.69138 -0.36069,3.44336 1.62928,5.06471 z"
         style="opacity:1;fill:none;fill-opacity:1;stroke:#000000;stroke-width:1;stroke-miterlimit:4;stroke-dasharray:none;stroke-dashoffset:0;stroke-opacity:1" />
      <path
         sodipodi:nodetypes="sssccs"
         inkscape:connector-curvature="0"
         id="path4520-6-1-7"
         d="m -133.61807,190.8435 c 0.56025,2.19759 -2.94106,3.56116 -5.24017,3.6618 -5.2339,0.22912 -5.79676,-0.86203 -5.99778,-2.46225 -0.36847,-2.93314 6.71558,-15.33514 10.10153,-11.67989 1.10927,0.87455 3.74653,2.32617 3.74653,2.32617 0,0 -2.93298,6.88773 -2.61011,8.15417 z"
         style="opacity:1;fill:none;fill-opacity:1;stroke:#000000;stroke-width:1;stroke-miterlimit:4;stroke-dasharray:none;stroke-dashoffset:0;stroke-opacity:1" />
      <path
         sodipodi:nodetypes="sscsscs"
         inkscape:connector-curvature="0"
         id="path4520-6-4-5"
         d="m -135.17196,173.85641 c -0.28808,1.0988 -0.73234,5.35305 -0.73234,5.35305 -1.5904,0.94005 -4.69723,2.28623 -4.69723,2.28623 0,0 -3.58815,-0.36815 -4.50405,-1.44001 -0.91591,-1.07185 -0.2568,-3.25259 -0.35731,-4.0527 -0.36848,-2.93314 5.80838,-5.36643 5.80838,-5.36643 0.74484,1.63313 5.14546,0.69143 4.48255,3.21986 z"
         style="opacity:1;fill:none;fill-opacity:1;stroke:#000000;stroke-width:1;stroke-miterlimit:4;stroke-dasharray:none;stroke-dashoffset:0;stroke-opacity:1" />
      <path
         sodipodi:nodetypes="cssscsc"
         inkscape:connector-curvature="0"
         id="path4520-6-9-92"
         d="m -140.31702,170.48544 c 0.14229,1.12699 -1.22048,1.32901 -1.78399,1.67822 0,0 -1.47685,1.21013 -2.41484,0.55633 -1.70629,-1.18932 -3.56406,-1.80905 -4.16688,-3.40927 -1.04213,-2.76641 -0.40775,-3.1383 2.55021,-3.77855 1.40785,-0.42774 4.55338,-1.32766 4.03366,-0.20974 -0.4954,1.06561 0.59545,4.30058 1.78184,5.16301 z"
         style="opacity:1;fill:none;fill-opacity:1;stroke:#000000;stroke-width:1;stroke-miterlimit:4;stroke-dasharray:none;stroke-dashoffset:0;stroke-opacity:1" />
      <path
         sodipodi:nodetypes="csssscsc"
         inkscape:connector-curvature="0"
         id="path4520-6-7-2"
         d="m -145.45839,176.38178 c 0,0 0.12124,1.5299 -0.34521,3.12201 -0.4119,1.40592 -3.26529,3.08257 -4.79113,3.08576 -2.33932,0.005 -4.96582,-1.62835 -5.14902,-3.23071 -0.10214,-0.8934 3.57552,-6.85194 3.57552,-6.85194 2.23909,-1.24957 2.54585,-2.69474 5.00149,-1.52482 1.27522,0.60754 1.6225,1.34768 2.46097,1.71628 0.83847,0.36859 -0.75262,3.68342 -0.75262,3.68342 z"
         style="opacity:1;fill:none;fill-opacity:1;stroke:#000000;stroke-width:1;stroke-miterlimit:4;stroke-dasharray:none;stroke-dashoffset:0;stroke-opacity:1" />
      <path
         sodipodi:nodetypes="cssscccc"
         inkscape:connector-curvature="0"
         id="path4520-6-27-8"
         d="m -150.56911,171.24305 c 0,0 -1.41193,1.08664 -1.7961,1.63764 -0.38418,0.551 -0.87172,0.87 -1.86702,0.28441 -1.55511,-0.91496 -1.78733,-1.13492 -2.87224,-2.2932 -2.0209,-2.15756 -0.38699,-2.20762 2.48391,-2.80948 1.6239,-0.34044 5.32619,-1.81673 5.32619,-1.81673 0,0 0.54653,2.71074 0.69694,3.85836 z"
         style="opacity:1;fill:none;fill-opacity:1;stroke:#000000;stroke-width:1;stroke-miterlimit:4;stroke-dasharray:none;stroke-dashoffset:0;stroke-opacity:1" />
      <path
         sodipodi:nodetypes="cssscsc"
         inkscape:connector-curvature="0"
         id="path4520-6-22-9"
         d="m -155.76203,178.79923 c -1.58633,1.43998 -2.37607,2.59019 -4.7351,3.21987 -1.65795,0.44254 -3.08197,-2.0616 -3.59866,-3.72495 -0.43848,-1.41156 1.85559,-3.74075 2.9768,-5.73443 1.12122,-1.99368 1.45009,-3.39118 3.58919,-3.23067 0,0 1.90256,3.43458 4.52433,4.16818 1.70165,0.47614 -1.78885,4.42357 -2.75656,5.302 z"
         style="opacity:1;fill:none;fill-opacity:1;stroke:#000000;stroke-width:1;stroke-miterlimit:4;stroke-dasharray:none;stroke-dashoffset:0;stroke-opacity:1" />
      <path
         sodipodi:nodetypes="scsscss"
         inkscape:connector-curvature="0"
         id="path4520-6-61-7"
         d="m -163.5172,175.8819 c -0.57618,2.19759 -0.49283,2.94377 -2.65165,2.96732 -1.09724,-0.40518 -1.78032,1.05744 -2.45218,0.42247 -1.18422,-1.11921 -1.61419,-2.65282 -1.7147,-3.45293 -0.36848,-2.93314 0.74847,-3.30921 3.72493,-3.8512 1.40293,-0.46671 6.50894,-2.59826 7.20387,-2.11894 0.69494,0.47932 -3.77881,4.76907 -4.11027,6.03328 z"
         style="opacity:1;fill:none;fill-opacity:1;stroke:#000000;stroke-width:1;stroke-miterlimit:4;stroke-dasharray:none;stroke-dashoffset:0;stroke-opacity:1" />
      <path
         sodipodi:nodetypes="cssccsssc"
         inkscape:connector-curvature="0"
         id="path4520-6-06-3"
         d="m -144.59443,189.95776 c -0.57618,2.19759 -0.20966,4.63888 -2.36848,4.42205 -1.1638,-0.1169 -3.68468,-0.0316 -5.21937,-0.15844 -1.5347,-0.12689 -3.17735,-1.02215 -3.27786,-1.82226 -0.18424,-1.46657 0.68579,-4.92597 2.18729,-6.75581 1.12531,-1.37138 3.34437,-2.92786 4.54169,-3.64419 2.97485,-1.77979 4.02147,-1.63367 4.7498,-1.54819 1.40293,0.16464 2.56588,0.95099 3.60586,0.84838 1.29417,-0.12769 -4.0214,6.63532 -4.21893,8.65846 z"
         style="opacity:1;fill:none;fill-opacity:1;stroke:#000000;stroke-width:1;stroke-miterlimit:4;stroke-dasharray:none;stroke-dashoffset:0;stroke-opacity:1" />
      <path
         sodipodi:nodetypes="ccsscsscc"
         inkscape:connector-curvature="0"
         id="path4520-6-39-6"
         d="m -154.17544,186.04136 c 0,0 -2.38687,8.49961 -4.54569,7.70242 0,0 -2.32546,-0.1314 -3.6833,-0.65083 -1.35784,-0.51942 -2.84531,-1.83206 -2.94583,-2.63217 -0.36848,-2.93314 3.77893,-7.34982 5.74524,-8.7757 0.57177,-0.41462 2.55156,-1.44248 3.63361,-2.38238 0.48788,-0.42379 0.77149,1.31424 1.88015,2.27434 1.10866,0.96009 3.04237,1.14225 3.04237,1.14225 z"
         style="opacity:1;fill:none;fill-opacity:1;stroke:#000000;stroke-width:1;stroke-miterlimit:4;stroke-dasharray:none;stroke-dashoffset:0;stroke-opacity:1" />
      <path
         sodipodi:nodetypes="ssscss"
         inkscape:connector-curvature="0"
         id="path4520-6-48-12"
         d="m -172.9264,185.66257 c -2.13923,2.67481 -1.93669,2.45368 -5.17703,2.65164 -2.23688,0.13666 -2.57689,-2.69293 -1.95718,-4.16688 1.14577,-2.72512 6.80939,-7.16042 9.72272,-6.81853 0,0 1.151,0.97146 2.24149,2.42348 0,0 -4.2994,5.24685 -4.83,5.91029 z"
         style="opacity:1;fill:none;fill-opacity:1;stroke:#000000;stroke-width:1;stroke-miterlimit:4;stroke-dasharray:none;stroke-dashoffset:0;stroke-opacity:1" />
      <path
         sodipodi:nodetypes="cccsccc"
         inkscape:connector-curvature="0"
         id="path4520-6-12-93"
         d="m -170.14847,177.13941 c -5.31062,0.80923 -8.45238,5.9536 -9.97526,6.31345 -1.2685,0.29973 -3.88827,0.9209 -4.88102,-0.35867 -0.99276,-1.27958 -0.58022,-3.76438 0.90354,-4.81837 1.34249,-0.95363 4.91846,-1.18753 6.06092,-2.27284 2.08487,-0.48652 8.88739,-3.59 8.11578,-3.13284 -0.89493,1.37195 -0.22396,4.26927 -0.22396,4.26927 z"
         style="opacity:1;fill:none;fill-opacity:1;stroke:#000000;stroke-width:1;stroke-miterlimit:4;stroke-dasharray:none;stroke-dashoffset:0;stroke-opacity:1" />
      <path
         sodipodi:nodetypes="csscscsc"
         inkscape:connector-curvature="0"
         id="path4520-6-93-1"
         d="m -165.35025,190.65019 c 0,0 -2.32373,2.18615 -4.48255,1.38896 -2.19448,-0.81036 -4.1952,-1.59616 -4.10375,-3.21986 0.18514,-3.2871 4.41028,-7.03415 5.93465,-9.47018 0.37465,-0.59872 4.01795,-0.51259 4.01795,-0.51259 0.76885,1.16525 2.07014,2.54447 2.83402,3.07438 1.49449,1.03674 -0.24484,0.74815 -1.65065,2.43273 -1.66853,1.9994 -2.32943,4.07622 -2.54967,6.30656 z"
         style="opacity:1;fill:none;fill-opacity:1;stroke:#000000;stroke-width:1;stroke-miterlimit:4;stroke-dasharray:none;stroke-dashoffset:0;stroke-opacity:1" />
      <path
         sodipodi:nodetypes="sssscs"
         inkscape:connector-curvature="0"
         id="path4520-6-44-9"
         d="m -106.35677,192.85759 c -1.80139,2.32011 -5.14551,13.11884 -6.20776,13.61848 -2.47431,1.16382 -12.27327,2.93657 -12.47045,1.32287 -0.17928,-1.46718 -0.48211,-5.05309 0.60618,-8.40805 1.0883,-3.35495 3.56773,-6.47894 5.02439,-6.308 2.80585,0.32928 14.65067,-2.28994 13.04764,-0.2253 z"
         style="opacity:1;fill:none;fill-opacity:1;stroke:#000000;stroke-width:1;stroke-miterlimit:4;stroke-dasharray:none;stroke-dashoffset:0;stroke-opacity:1" />
      <path
         sodipodi:nodetypes="cscssscc"
         inkscape:connector-curvature="0"
         id="path4520-6-76-4"
         d="m -120.1726,192.91548 c -0.0667,1.1007 -2.49349,2.24341 -3.88986,5.40818 -1.77362,4.01977 -1.22404,9.42844 -1.22404,9.42844 0,0 -3.83252,1.78901 -7.18509,1.92591 -3.35257,0.13689 -5.59385,-1.12579 -5.69436,-1.92588 -0.36849,-2.93314 1.30882,-14.99172 4.04061,-14.33153 10.42019,2.51824 12.37746,-1.29772 13.5108,-0.63135 z"
         style="opacity:1;fill:none;fill-opacity:1;stroke:#000000;stroke-width:1;stroke-miterlimit:4;stroke-dasharray:none;stroke-dashoffset:0;stroke-opacity:1" />
      <path
         sodipodi:nodetypes="sssscss"
         inkscape:connector-curvature="0"
         id="path4520-6-31-7"
         d="m -135.7105,194.24347 c -1.03954,0.45791 -2.09343,4.48769 -2.26592,7.5547 -0.17249,3.067 0.53641,5.17124 -0.54898,5.70663 -10.46702,5.16309 -13.78728,1.94095 -13.98831,0.34073 -0.36848,-2.93314 5.12796,-14.52223 8.04129,-14.18034 1.40293,0.16464 2.95556,1.41818 5.23532,0.98232 2.27976,-0.43586 3.5266,-0.40404 3.5266,-0.40404 z"
         style="opacity:1;fill:none;fill-opacity:1;stroke:#000000;stroke-width:1;stroke-miterlimit:4;stroke-dasharray:none;stroke-dashoffset:0;stroke-opacity:1" />
      <path
         sodipodi:nodetypes="ssssssss"
         inkscape:connector-curvature="0"
         id="path4520-6-75-8"
         d="m -146.41363,194.2611 c -0.28809,1.0988 -2.74727,3.33418 -4.45727,7.15239 -1.71,3.81821 -2.09531,8.46145 -3.24514,8.50498 0,0 -4.45625,1.25757 -6.68219,0.42246 -2.22595,-0.8351 -3.31882,-4.16804 -3.41934,-4.96815 -0.36848,-2.93314 5.48356,-11.89551 8.01809,-13.38452 1.21792,-0.71552 -0.13346,1.50587 3.845,2.05142 4.55971,0.62525 6.27231,-1.04279 5.94085,0.22142 z"
         style="opacity:1;fill:none;fill-opacity:1;stroke:#000000;stroke-width:1;stroke-miterlimit:4;stroke-dasharray:none;stroke-dashoffset:0;stroke-opacity:1" />
      <path
         sodipodi:nodetypes="csssssssc"
         inkscape:connector-curvature="0"
         id="path4520-6-96-4"
         d="m -158.57219,193.97629 c -0.14405,0.5494 -2.27058,3.06925 -3.53841,5.46458 -1.09781,2.0741 -2.1502,4.39884 -2.06017,5.8627 0,0 -6.29311,0.76398 -7.35026,0.59477 -2.65298,-0.42464 -2.59574,-1.91216 -3.40795,-3.76641 -1.18609,-2.70782 3.10781,-8.57652 5.63058,-10.0732 0,0 1.01316,0.12923 2.1654,-0.0671 1.15224,-0.19634 1.81855,-1.25395 2.55344,-0.41335 1.82266,2.08484 6.00737,2.39801 6.00737,2.39801 z"
         style="opacity:1;fill:none;fill-opacity:1;stroke:#000000;stroke-width:1;stroke-miterlimit:4;stroke-dasharray:none;stroke-dashoffset:0;stroke-opacity:1" />
      <path
         sodipodi:nodetypes="sssscscs"
         inkscape:connector-curvature="0"
         id="path4520-6-21-5"
         d="m -174.34134,198.24602 c -0.28808,1.09879 -0.99528,1.80317 -1.1427,3.26961 -0.13577,1.35055 -4.15448,0.66452 -5.23389,0.26592 -2.19448,-0.81036 -3.77644,-2.69293 -3.97747,-4.29315 -0.36847,-2.93314 4.53654,-9.55953 7.44987,-9.21764 0.70146,0.0823 3.63466,-1.36505 3.16523,0.43858 -0.33946,1.30427 4.00707,3.34556 4.00707,3.34556 0,0 -3.93665,4.9269 -4.26811,6.19112 z"
         style="opacity:1;fill:none;fill-opacity:1;stroke:#000000;stroke-width:1;stroke-miterlimit:4;stroke-dasharray:none;stroke-dashoffset:0;stroke-opacity:1" />
      <path
         sodipodi:nodetypes="csssssc"
         inkscape:connector-curvature="0"
         id="path4520-6-78-03"
         d="m -184.27296,194.8281 c -0.57618,2.19759 -2.70254,3.63824 -4.86136,2.84105 -2.19448,-0.81036 -2.80132,-2.07049 -3.59867,-3.4724 -1.8837,-3.31195 7.96528,-9.93765 10.85914,-10.41719 0.5931,-0.0983 2.34455,-1.10849 1.53359,1.44463 -0.47953,1.50973 1.02989,3.25496 1.02989,3.25496 -2.34446,2.13553 -4.63113,5.08473 -4.96259,6.34895 z"
         style="opacity:1;fill:none;fill-opacity:1;stroke:#000000;stroke-width:1;stroke-miterlimit:4;stroke-dasharray:none;stroke-dashoffset:0;stroke-opacity:1" />
      <path
         sodipodi:nodetypes="cssssssc"
         inkscape:connector-curvature="0"
         id="path4520-6-5-61"
         d="m -183.72269,184.45947 c -0.28809,1.09879 -2.32111,0.91929 -4.86764,2.95395 -2.54653,2.03466 -5.60657,6.28348 -6.68598,5.88489 -2.19448,-0.81036 -3.58704,-2.6298 -3.78807,-4.23002 -0.36847,-2.93314 0.40622,-4.3693 4.10374,-6.18718 5.15114,-2.53255 8.69267,-4.35256 10.99195,-4.17081 0.43397,0.0343 -1.85075,0.92091 -1.33879,3.9633 0.24994,1.48529 1.75052,1.15377 1.58479,1.78587 z"
         style="opacity:1;fill:none;fill-opacity:1;stroke:#000000;stroke-width:1;stroke-miterlimit:4;stroke-dasharray:none;stroke-dashoffset:0;stroke-opacity:1" />
      <path
         sodipodi:nodetypes="csc"
         inkscape:connector-curvature="0"
         id="path5455-06"
         d="m -111.68236,196.91856 c 0,0 -1.05459,0.8561 -4.3275,0.72063 l -3.17204,-0.1313"
         style="fill:none;fill-rule:evenodd;stroke:#000000;stroke-width:1px;stroke-linecap:butt;stroke-linejoin:miter;stroke-opacity:1" />
      <path
         sodipodi:nodetypes="csc"
         inkscape:connector-curvature="0"
         id="path5455-0-3"
         d="m -151.34361,198.04055 c 0,0 -0.57351,0.5633 -3.83643,0.2742 l -2.99347,-0.26523"
         style="fill:none;fill-rule:evenodd;stroke:#000000;stroke-width:1px;stroke-linecap:butt;stroke-linejoin:miter;stroke-opacity:1" />
      <path
         sodipodi:nodetypes="csc"
         inkscape:connector-curvature="0"
         id="path5455-3-2"
         d="m -139.26942,197.82475 c 0,0 -1.13302,0.53918 -4.37214,0.051 l -2.05598,-0.30987"
         style="fill:none;fill-rule:evenodd;stroke:#000000;stroke-width:1px;stroke-linecap:butt;stroke-linejoin:miter;stroke-opacity:1" />
      <path
         sodipodi:nodetypes="csc"
         inkscape:connector-curvature="0"
         id="path5455-09-0"
         d="m -126.51049,197.69082 c 0,0 -2.31264,0.62982 -5.5775,0.36348 l -1.60955,-0.1313"
         style="fill:none;fill-rule:evenodd;stroke:#000000;stroke-width:1px;stroke-linecap:butt;stroke-linejoin:miter;stroke-opacity:1" />
      <path
         sodipodi:nodetypes="csc"
         inkscape:connector-curvature="0"
         id="path5455-2-6"
         d="m -162.90335,197.43189 c 0,0 -2.25835,-0.0844 -3.12214,-0.52937 -1.43705,-0.74033 -3.03812,-0.89023 -3.03812,-0.89023"
         style="fill:none;fill-rule:evenodd;stroke:#000000;stroke-width:1px;stroke-linecap:butt;stroke-linejoin:miter;stroke-opacity:1" />
      <path
         sodipodi:nodetypes="csc"
         inkscape:connector-curvature="0"
         id="path5455-5-1"
         d="m -174.34085,194.01225 c 0,0 -0.73281,1.14417 -3.43464,-0.70795 l -2.14526,-1.47058"
         style="fill:none;fill-rule:evenodd;stroke:#000000;stroke-width:1px;stroke-linecap:butt;stroke-linejoin:miter;stroke-opacity:1" />
      <path
         sodipodi:nodetypes="csc"
         inkscape:connector-curvature="0"
         id="path5455-4-5"
         d="m -183.05514,189.74439 c 0,0 -1.1719,-0.3271 -1.91678,-0.70794 -0.60436,-0.309 -1.20776,-0.97952 -1.20776,-0.97952"
         style="fill:none;fill-rule:evenodd;stroke:#000000;stroke-width:1px;stroke-linecap:butt;stroke-linejoin:miter;stroke-opacity:1" />
      <path
         sodipodi:nodetypes="csc"
         inkscape:connector-curvature="0"
         id="path5455-05-5"
         d="m -189.04621,184.85154 c 0,0 -1.14596,-0.27934 -1.73821,-0.70795 -0.80093,-0.57963 -1.65419,-1.0688 -1.65419,-1.0688"
         style="fill:none;fill-rule:evenodd;stroke:#000000;stroke-width:1px;stroke-linecap:butt;stroke-linejoin:miter;stroke-opacity:1" />
      <path
         sodipodi:nodetypes="csscsccsc"
         inkscape:connector-curvature="0"
         id="path4520-6-99-4"
         d="m -140.53192,244.58276 c -1.82617,1.30474 -1.94452,2.25216 -4.65293,2.26837 -1.21921,0.007 -2.00074,0.0789 -2.64645,-0.46541 -0.64571,-0.54429 -0.96622,-1.83072 -0.8846,-2.26656 0.27208,-1.45284 3.69792,-3.87009 8.03109,-7.02621 4.33316,-3.15612 8.17667,-6.74917 8.17667,-6.74917 l 3.95394,0.78028 c 0.95605,0.12344 -3.04108,2.05866 -5.90258,5.32836 -2.86151,3.26971 -5.54343,7.75046 -6.07514,8.13034 z"
         style="opacity:1;fill:none;fill-opacity:1;stroke:#000000;stroke-width:1;stroke-miterlimit:4;stroke-dasharray:none;stroke-dashoffset:0;stroke-opacity:1" />
      <path
         sodipodi:nodetypes="csccssscsssc"
         inkscape:connector-curvature="0"
         id="path4520-6-08-7"
         d="m -132.80193,230.53745 c 0,0 -7.69425,6.68235 -11.4521,9.39852 -3.75784,2.71617 -11.66316,6.45658 -11.66316,6.45658 0,0 -3.48477,0.92378 -5.11992,0.37274 -1.45656,-0.68493 -4.43867,-3.84839 -2.94303,-5.03655 2.05818,-1.63507 10.91917,-6.25783 20.46853,-14.47901 4.77468,-4.11059 12.15894,-10.79931 15.53703,-14.54074 3.37809,-3.74143 0.20067,-3.28306 2.75001,-4.53558 2.17885,-1.07049 1.33896,1.00264 7.27232,-0.39164 2.9477,-0.69268 6.57889,-1.17295 6.57889,-1.17295 1.36124,0.43165 -5.12601,5.00393 -12.90179,11.20539 -4.01955,3.20573 -8.52678,12.72324 -8.52678,12.72324 z"
         style="opacity:1;fill:none;fill-opacity:1;stroke:#000000;stroke-width:1;stroke-miterlimit:4;stroke-dasharray:none;stroke-dashoffset:0;stroke-opacity:1" />
      <path
         sodipodi:nodetypes="sssscssss"
         inkscape:connector-curvature="0"
         id="path4520-6-32-65"
         d="m -125.34836,208.06599 c -0.26408,1.00724 -6.77277,9.33106 -15.45884,17.01862 -10.26511,9.08508 -23.0203,17.63211 -24.18965,17.2003 -1.01239,-0.37384 -3.85342,2.68886 -6.36808,2.94703 -2.9362,0.30144 -5.51919,-2.21132 -5.62748,-3.07331 -0.18952,-1.50867 17.90364,-13.59639 27.57877,-22.11397 9.1352,-8.04227 9.83412,-12.58665 11.24897,-12.42061 0.99462,0.11672 2.97785,2.66643 5.09429,2.43579 3.8541,-0.42001 8.14995,-3.626 7.72202,-1.99385 z"
         style="opacity:1;fill:none;fill-opacity:1;stroke:#000000;stroke-width:1;stroke-miterlimit:4;stroke-dasharray:none;stroke-dashoffset:0;stroke-opacity:1" />
      <path
         sodipodi:nodetypes="ssssssss"
         inkscape:connector-curvature="0"
         id="path4520-6-15-6"
         d="m -138.21398,207.25978 c -0.32866,0.83712 -5.87312,8.02691 -13.98886,14.95678 -12.38601,10.57616 -28.59324,22.08974 -29.89748,21.60812 -2.19448,-0.81036 -4.68014,-1.80905 -5.41688,-4.65927 -0.4193,-1.62216 15.81678,-12.05203 25.2434,-20.44789 7.20561,-6.41771 8.76789,-10.30914 10.03003,-10.16102 1.20195,0.14106 1.84477,2.52424 4.67255,1.86833 8.87667,-2.05896 9.94427,-4.66031 9.35724,-3.16505 z"
         style="opacity:1;fill:none;fill-opacity:1;stroke:#000000;stroke-width:1;stroke-miterlimit:4;stroke-dasharray:none;stroke-dashoffset:0;stroke-opacity:1" />
      <path
         sodipodi:nodetypes="sssssss"
         inkscape:connector-curvature="0"
         id="path4520-6-991-9"
         d="m -152.78768,208.66813 c -0.57618,2.19759 -32.80665,30.57301 -35.04705,30.04705 -1.31971,-0.30982 -5.50399,3.3248 -9.7689,2.82744 -3.38796,-0.39509 -4.16099,-5.25257 -2.96941,-5.96885 18.61638,-11.19056 35.28868,-28.25947 37.23772,-27.57319 1.05186,0.37037 2.89905,2.76721 4.85918,2.69313 3.79403,-0.1434 6.0897,-3.55595 5.68846,-2.02558 z"
         style="opacity:1;fill:none;fill-opacity:1;stroke:#000000;stroke-width:1;stroke-miterlimit:4;stroke-dasharray:none;stroke-dashoffset:0;stroke-opacity:1" />
      <path
         sodipodi:nodetypes="sssssssss"
         inkscape:connector-curvature="0"
         id="path4520-6-49-3"
         d="m -163.17556,207.67566 c -0.27211,1.03786 -9.11227,6.7243 -17.46343,13.4839 -9.33176,7.55334 -20.37292,15.01956 -21.51218,14.59886 -1.11558,-0.41195 -6.75377,1.77796 -9.1495,0.59927 -2.31698,-1.13995 -2.44943,-5.87064 -1.8031,-6.32997 4.5648,-3.24407 9.22628,-4.57867 18.4211,-9.84448 10.50711,-6.01734 19.9415,-15.0539 21.49519,-14.87157 2.1516,0.2525 6.83402,0.73534 8.63137,0.0573 0.63244,-0.23857 1.53513,1.71707 1.38055,2.30664 z"
         style="opacity:1;fill:none;fill-opacity:1;stroke:#000000;stroke-width:1;stroke-miterlimit:4;stroke-dasharray:none;stroke-dashoffset:0;stroke-opacity:1" />
      <path
         sodipodi:nodetypes="sssssssss"
         inkscape:connector-curvature="0"
         id="path4520-6-10-7"
         d="m -173.57906,204.94562 c -0.31305,1.19403 -11.43328,9.85708 -16.8073,12.79853 -6.66798,3.64971 -21.85534,12.44052 -22.84118,12.07648 -1.14454,-0.42265 -5.88322,0.7964 -8.90261,-0.13242 -2.76987,-0.85206 -3.88066,-3.83706 -3.97684,-4.60268 -0.18296,-1.45636 11.51207,-4.91784 22.03952,-10.75433 10.6751,-5.91835 20.19503,-14.19808 21.52331,-13.55246 2.0548,0.99875 3.31468,2.1912 5.33121,1.06817 1.81099,-1.00857 3.81134,2.42192 3.63389,3.09871 z"
         style="opacity:1;fill:none;fill-opacity:1;stroke:#000000;stroke-width:1;stroke-miterlimit:4;stroke-dasharray:none;stroke-dashoffset:0;stroke-opacity:1" />
      <path
         sodipodi:nodetypes="ssssssssss"
         inkscape:connector-curvature="0"
         id="path4520-6-758-4"
         d="m -183.31764,200.58276 c -0.12711,1.95821 -15.14866,10.53679 -24.54998,15.39661 -1.37205,0.70925 -17.80338,9.12993 -18.08635,9.02544 -1.09482,-0.40429 -5.54385,-1.96304 -6.3524,-4.42777 -0.81214,-2.47566 0.49805,-5.34247 1.91766,-6.66008 0,0 5.05857,0.97305 10.7105,-2.54546 9.22758,-5.74448 25.29897,-16.55307 26.88436,-16.36701 1.0704,0.12561 3.09157,3.6362 5.11758,2.88459 2.4392,-0.90489 3.02637,-1.51548 3.39808,0.55831 0.1127,0.62874 1.01984,1.22197 0.96055,2.13537 z"
         style="opacity:1;fill:none;fill-opacity:1;stroke:#000000;stroke-width:1;stroke-miterlimit:4;stroke-dasharray:none;stroke-dashoffset:0;stroke-opacity:1" />
      <path
         sodipodi:nodetypes="ssssssssssss"
         inkscape:connector-curvature="0"
         id="path4520-6-70-52"
         d="m -192.51407,194.70776 c -0.40308,1.5374 -7.45552,2.98535 -27.92605,16.75128 -4.05123,2.72436 -6.43046,1.31332 -6.94243,1.77791 -2.84623,2.58287 -3.42766,-1.97586 -4.16688,-3.40927 -0.42648,-0.82699 2.28962,-3.48869 8.23793,-6.09168 3.32158,-1.45353 5.70325,-5.89628 9.13603,-7.64204 4.71702,-2.39887 4.87854,-2.96225 7.30622,-4.88305 1.59132,-1.25906 2.72316,-2.89654 4.07204,-3.86002 1.70091,-1.21491 3.48352,-1.62155 4.02121,-1.79283 1.14842,-0.36582 -2.2649,2.86475 0.26347,5.33274 1.6603,1.62066 3.66767,2.43229 5.22756,1.43532 0.8217,-0.52516 0.93542,1.75415 0.7709,2.38164 z"
         style="opacity:1;fill:none;fill-opacity:1;stroke:#000000;stroke-width:1;stroke-miterlimit:4;stroke-dasharray:none;stroke-dashoffset:0;stroke-opacity:1" />
      <path
         sodipodi:nodetypes="csc"
         inkscape:connector-curvature="0"
         id="path5455-2-4-5"
         d="m -220.37752,208.95327 c 0,0 -0.78105,-0.88355 -0.78616,-1.8552 -0.008,-1.45844 -0.008,-1.45844 -0.008,-1.45844"
         style="fill:none;fill-rule:evenodd;stroke:#000000;stroke-width:1px;stroke-linecap:butt;stroke-linejoin:miter;stroke-opacity:1" />
      <path
         sodipodi:nodetypes="csc"
         inkscape:connector-curvature="0"
         id="path5455-2-8-4"
         d="m -213.99871,217.45834 c 0,0 -1.18506,-1.66276 -2.04885,-2.10773 -1.43705,-0.74033 -2.02797,-1.77412 -2.02797,-1.77412"
         style="fill:none;fill-rule:evenodd;stroke:#000000;stroke-width:1px;stroke-linecap:butt;stroke-linejoin:miter;stroke-opacity:1" />
      <path
         sodipodi:nodetypes="csc"
         inkscape:connector-curvature="0"
         id="path5455-2-0-7"
         d="m -205.17796,223.0164 c 0,0 -1.69014,-1.15769 -2.55393,-1.60266 -1.43705,-0.74033 -3.03812,-1.2059 -3.03812,-1.2059"
         style="fill:none;fill-rule:evenodd;stroke:#000000;stroke-width:1px;stroke-linecap:butt;stroke-linejoin:miter;stroke-opacity:1" />
      <path
         sodipodi:nodetypes="csc"
         inkscape:connector-curvature="0"
         id="path5455-2-42-44"
         d="m -194.60975,227.24863 -2.80647,-0.4031 c -1.60012,-0.22983 -2.78558,-1.07963 -2.78558,-1.07963"
         style="fill:none;fill-rule:evenodd;stroke:#000000;stroke-width:1px;stroke-linecap:butt;stroke-linejoin:miter;stroke-opacity:1" />
      <path
         sodipodi:nodetypes="csc"
         inkscape:connector-curvature="0"
         id="path5455-2-9-30"
         d="m -181.17796,230.80669 -3.69035,-0.4031 c -1.60698,-0.17553 -4.04827,-0.76396 -4.04827,-0.76396"
         style="fill:none;fill-rule:evenodd;stroke:#000000;stroke-width:1px;stroke-linecap:butt;stroke-linejoin:miter;stroke-opacity:1" />
      <path
         sodipodi:nodetypes="csc"
         inkscape:connector-curvature="0"
         id="path5455-2-61-7"
         d="m -170.18811,232.30161 -2.80647,-0.15056 c -1.61422,-0.0866 -3.16439,-0.51142 -3.16439,-0.51142"
         style="fill:none;fill-rule:evenodd;stroke:#000000;stroke-width:1px;stroke-linecap:butt;stroke-linejoin:miter;stroke-opacity:1" />
      <path
         sodipodi:nodetypes="csc"
         inkscape:connector-curvature="0"
         id="path5455-2-04-86"
         d="m -154.16781,233.43804 c 0,0 -3.00058,0.0865 -3.94289,-0.15057 -1.43705,-0.36152 -3.03812,-0.006 -3.03812,-0.006"
         style="fill:none;fill-rule:evenodd;stroke:#000000;stroke-width:1px;stroke-linecap:butt;stroke-linejoin:miter;stroke-opacity:1" />
      <path
         sodipodi:nodetypes="csc"
         inkscape:connector-curvature="0"
         id="path5455-2-2-8"
         d="m -139.22079,234.80669 c 0,0 -2.30611,0.0865 -3.24841,-0.15056 -1.43705,-0.36152 -3.10125,-0.44829 -3.10125,-0.44829"
         style="fill:none;fill-rule:evenodd;stroke:#000000;stroke-width:1px;stroke-linecap:butt;stroke-linejoin:miter;stroke-opacity:1" />
      <path
         sodipodi:nodetypes="ssssssss"
         inkscape:connector-curvature="0"
         id="path4520-6-33-84"
         d="m -149.48507,261.13941 c -0.49752,0.94767 -5.71637,6.07621 -11.80054,9.83441 -6.91186,4.26947 -12.18525,8.83308 -13.64268,9.10595 -1.13498,0.2125 -2.57189,0.32283 -4.3313,0.4429 -1.805,0.12317 -3.91959,0.24333 -4.00246,-0.56917 -0.63854,-6.26044 10.61376,-8.84006 18.96054,-13.05394 8.58211,-4.33269 15.34504,-10.23613 16.7736,-10.11644 1.66943,0.13987 -0.66291,1.891 -1.95716,4.35629 z"
         style="opacity:1;fill:none;fill-opacity:1;stroke:#000000;stroke-width:1;stroke-miterlimit:4;stroke-dasharray:none;stroke-dashoffset:0;stroke-opacity:1" />
      <path
         sodipodi:nodetypes="sssssssss"
         inkscape:connector-curvature="0"
         id="path4520-6-80-3"
         d="m -146.38264,255.69319 c -1.48149,1.72238 -32.11236,19.26721 -33.71384,17.61455 -1.39091,-1.43536 -0.4283,-4.46095 -0.63134,-6.06092 -0.16574,-1.306 2.43211,-0.75161 6.12118,-1.60787 2.63467,-0.61152 5.79701,-2.32264 7.57901,-2.74841 1.19289,-0.28501 8.37229,-4.47353 13.57736,-9.01835 3.66548,-3.2005 5.34595,-6.68372 7.73941,-7.05882 1.22765,-0.1924 5.39595,-1.42813 4.72175,-0.20686 -0.76172,1.37981 -3.80122,7.23549 -5.39353,9.08668 z"
         style="opacity:1;fill:none;fill-opacity:1;stroke:#000000;stroke-width:1;stroke-miterlimit:4;stroke-dasharray:none;stroke-dashoffset:0;stroke-opacity:1" />
      <path
         sodipodi:nodetypes="sscscsssss"
         inkscape:connector-curvature="0"
         id="path4520-6-47-1"
         d="m -146.88735,247.17746 c -0.26918,1.02671 -5.27347,6.75949 -11.47153,10.82773 -7.06843,4.63952 -15.42378,7.60757 -15.42378,7.60757 0,0 -3.95487,1.29831 -5.54206,0.37477 -1.05346,-0.61298 0.0664,-3.33505 -0.0138,-3.97344 0.49333,-1.61821 5.19147,-5.40379 10.43176,-9.1512 3.89396,-2.78462 6.5712,-6.34377 7.87725,-6.1905 1.63976,0.19243 8.06083,-1.03617 12.56503,-3.56524 1.1042,-0.62 -0.20051,1.01991 -0.048,2.06192 0.1524,1.04089 1.76274,1.48328 1.62506,2.00839 z"
         style="opacity:1;fill:none;fill-opacity:1;stroke:#000000;stroke-width:1;stroke-miterlimit:4;stroke-dasharray:none;stroke-dashoffset:0;stroke-opacity:1" />
      <path
         sodipodi:nodetypes="cssssssssssssssssssssssssc"
         inkscape:connector-curvature="0"
         id="path4520-6-689-4"
         d="m -308.23079,350.38986 c -2.3619,2.91187 -16.72813,8.83209 -18.77394,9.88597 -4.03515,2.07867 -7.75517,3.41568 -8.55851,2.64921 -0.99457,-0.94893 1.36117,-5.30087 1.36117,-5.30087 0.71909,-1.69089 6.51232,-11.48581 10.77693,-14.51339 2.59654,-1.84336 0.62118,3.46174 1.72371,3.59112 1.6043,0.18827 6.43144,-0.68842 15.6587,-6.03472 0.71633,-0.41504 11.92775,-6.29391 18.30057,-9.0405 0.81307,-0.35042 12.59573,-6.31462 13.38046,-5.96539 0.28181,0.12542 14.07007,-6.84091 16.60231,-7.32365 0,0 14.9387,-6.43162 17.37505,-6.95098 0.21698,-0.0463 14.68765,-6.9668 15.53938,-7.31564 3.0172,-1.23574 10.90065,-6.08126 12.14788,-6.65778 1.92489,-0.88977 12.05635,-7.91352 13.7949,-8.73505 3.16643,-1.49626 8.30609,-5.09149 9.89388,-5.90403 1.6274,-0.83281 3.98927,-2.30463 5.8221,-2.35194 1.77551,-0.0458 4.96615,0.5872 8.26029,-0.37124 0.47906,-0.13938 -5.32267,3.44898 -5.71028,3.82336 -1.66007,1.60337 -7.91127,4.74668 -11.09589,6.96517 -2.25193,1.56875 -7.46759,4.75403 -12.1432,7.40046 -3.33387,1.887 -12.78807,6.73102 -16.37648,8.83397 -4.07269,2.38676 -16.90796,8.2353 -18.36226,9.04225 -4.00889,2.22443 -11.79021,4.6709 -15.89508,6.53017 -3.91985,1.77547 -14.30623,6.61726 -15.00831,7.09718 -2.9528,2.01847 -10.03651,4.36169 -12.21277,6.05711 -2.2026,1.71595 -18.54749,10.21405 -26.50061,14.58921 z"
         style="opacity:1;fill:none;fill-opacity:1;stroke:#000000;stroke-width:1;stroke-miterlimit:4;stroke-dasharray:none;stroke-dashoffset:0;stroke-opacity:1" />
      <path
         sodipodi:nodetypes="cssssssssssssssssssssssssssssc"
         inkscape:connector-curvature="0"
         id="path4520-6-53-9"
         d="m -308.81235,332.30468 c -0.1115,0.42525 -0.98186,2.78883 -0.075,3.75399 0.87643,0.93276 3.50709,0.4828 4.74499,0.055 0.35369,-0.12223 11.00125,-5.5612 18.88098,-10.04467 5.28104,-3.00485 7.0153,-4.36813 8.8596,-5.31657 2.24248,-1.15322 3.8196,-0.53621 6.69927,-1.40149 0.35463,-0.10656 4.97978,-1.51392 9.362,-3.86302 5.00095,-2.68078 8.01414,-4.90631 9.97058,-5.93863 2.65183,-1.39924 9.16441,-6.67595 13.00506,-7.64767 0.62901,-0.15915 14.04257,-6.60146 18.24936,-8.75876 3.3011,-1.69285 14.76929,-7.58549 19.06304,-9.78592 2.0825,-1.06723 9.39659,-5.34117 11.56025,-6.32999 2.26717,-1.03612 8.19208,-3.87375 8.19208,-3.87375 1.0758,-0.50871 -1.30723,2.17344 -2.36845,3.98689 -0.88482,1.512 -0.12376,3.00709 -0.53502,3.07453 -2.34692,0.38485 -6.33838,2.92734 -6.65474,3.1116 -2.417,1.40778 -7.84095,4.57399 -10.06759,6.02 -2.30559,1.49728 -19.63168,11.89146 -21.46436,12.78126 -2.13731,1.03769 -16.81252,7.73244 -17.09857,7.90054 -1.7044,1.00162 -13.30393,6.00405 -14.69414,6.62024 -4.83755,2.14416 -14.87227,6.17051 -15.20916,6.31625 -2.95668,1.27903 -10.63588,4.52367 -12.44375,5.33395 -8.46551,3.79423 -22.16534,10.44603 -23.58067,11.24756 -4.31309,2.44259 -11.41914,5.96173 -12.21067,6.10932 0,0 -4.03138,1.67242 -4.9406,0.98783 0,0 -0.80998,-3.14266 -0.92271,-4.03996 -0.36848,-2.93313 14.14582,-21.21865 17.05915,-20.87676 1.55927,0.18299 -0.0789,2.55929 -1.40068,5.14793 -1.05673,2.06954 -1.68573,4.30701 -1.98025,5.43034 z"
         style="opacity:1;fill:none;fill-opacity:1;stroke:#000000;stroke-width:1;stroke-miterlimit:4;stroke-dasharray:none;stroke-dashoffset:0;stroke-opacity:1" />
      <path
         sodipodi:nodetypes="csssscc"
         inkscape:connector-curvature="0"
         id="path4520-6-36-2"
         d="m -290.67253,321.26016 c -0.57617,2.19759 -1.37515,3.0143 -3.26133,4.33276 0,0 -3.95031,1.98689 -4.62639,1.56619 -0.9831,-0.61175 -0.32538,-4.23148 -0.0762,-5.15403 0.79223,-2.93314 0.93153,-2.73651 4.73772,-1.68034 2.72224,0.7554 6.38913,-0.25372 3.22621,0.93542 z"
         style="opacity:1;fill:none;fill-opacity:1;stroke:#000000;stroke-width:1;stroke-miterlimit:4;stroke-dasharray:none;stroke-dashoffset:0;stroke-opacity:1" />
      <path
         sodipodi:nodetypes="sssscsssss"
         inkscape:connector-curvature="0"
         id="path4520-6-753-0"
         d="m -277.67017,320.71216 c -0.57618,2.19759 -19.16204,11.68882 -21.38633,12.27919 0,0 -3.28297,4.35356 -9.67547,3.3821 -2.48033,-0.37692 2.04536,-8.25155 1.93716,-9.1128 -0.36848,-2.93314 5.03867,-10.50435 6.96986,-10.16247 1.94158,2.52259 2.16972,0.9793 1.94158,2.52259 -0.41258,2.79097 -2.72681,7.23893 -0.0865,7.47654 2.51651,0.22648 6.04055,-2.14832 9.30356,-6.49481 0,0 3.16143,-0.17733 5.25356,0.0317 2.93556,0.29334 5.88073,-0.44901 5.74257,0.0779 z"
         style="opacity:1;fill:none;fill-opacity:1;stroke:#000000;stroke-width:1;stroke-miterlimit:4;stroke-dasharray:none;stroke-dashoffset:0;stroke-opacity:1" />
      <path
         sodipodi:nodetypes="cssssscc"
         inkscape:connector-curvature="0"
         id="path4520-6-56-6"
         d="m -161.60336,246.47633 c -0.57618,2.19759 -32.81771,23.90445 -37.62818,27.77921 -0.55002,0.44303 -30.81137,22.33382 -52.87585,36.07216 -11.21048,6.98015 -22.11384,10.1795 -22.35488,10.01575 -0.41494,-0.28189 16.75189,-10.67137 34.40874,-22.05209 18.76532,-12.0952 37.68661,-25.39968 38.04407,-25.67732 6.70259,-5.20599 36.13538,-27.93169 39.04871,-27.5898 0.69448,1.8309 1.22574,0.51657 1.35739,1.45209 z"
         style="opacity:1;fill:none;fill-opacity:1;stroke:#000000;stroke-width:1;stroke-miterlimit:4;stroke-dasharray:none;stroke-dashoffset:0;stroke-opacity:1" />
      <path
         sodipodi:nodetypes="sssssssssssssssss"
         inkscape:connector-curvature="0"
         id="path4520-6-29-8"
         d="m -252.60546,305.88998 c -1.46006,2.00818 -21.1918,13.52281 -23.97562,14.77919 -2.13223,0.96231 -12.9333,0.0343 -11.39902,-0.46284 7.39938,-2.39743 23.78867,-10.95081 28.13057,-12.93034 0.94961,-0.43294 20.33127,-11.83026 22.54282,-13.2768 2.53989,-1.6613 9.80701,-7.11145 11.76981,-8.40401 3.00336,-1.97778 14.90105,-10.58747 17.1689,-12.12754 4.22422,-2.86861 17.70873,-13.4403 20.37657,-15.33801 2.69449,-1.91668 15.00769,-11.97245 17.01988,-13.03513 0.8903,-0.47019 5.94054,-2.87027 5.94054,-2.87027 1.05249,1.10172 0.84447,1.14253 1.30402,2.18863 0.31906,0.7263 -12.36955,8.05029 -12.95212,8.73089 -1.4165,1.65484 -15.18126,11.54226 -15.62282,12.04665 -1.3241,1.51251 -16.56097,12.00274 -20.07879,14.48259 -1.03927,0.73262 -14.96461,9.97808 -15.40656,10.41192 -0.62537,0.61387 -12.26708,8.11652 -13.20673,8.83433 -2.76764,2.11421 -11.19891,6.40333 -11.61145,6.97074 z"
         style="opacity:1;fill:none;fill-opacity:1;stroke:#000000;stroke-width:1;stroke-miterlimit:4;stroke-dasharray:none;stroke-dashoffset:0;stroke-opacity:1" />
      <path
         sodipodi:nodetypes="sssssss"
         inkscape:connector-curvature="0"
         id="path4520-6-127-9"
         d="m -180.35336,266.29706 c -2.18331,1.30474 -9.3168,6.29067 -12.10062,7.36848 -1.16338,0.45043 -24.80954,15.59998 -25.56517,14.99804 -0.6613,-0.5268 21.15949,-15.98321 21.75543,-16.44302 3.91724,-3.02243 14.2351,-11.30795 17.14843,-10.96605 1.05923,0.1243 -0.59152,1.39657 -0.62118,2.11522 -0.0489,1.18503 0.77984,2.09265 -0.61689,2.92733 z"
         style="opacity:1;fill:none;fill-opacity:1;stroke:#000000;stroke-width:1;stroke-miterlimit:4;stroke-dasharray:none;stroke-dashoffset:0;stroke-opacity:1" />
      <path
         sodipodi:nodetypes="sssssss"
         inkscape:connector-curvature="0"
         id="path4520-6-09-2"
         d="m -180.53193,273.17206 c -0.57617,2.19759 -8.69179,4.14781 -15.58276,7.99348 -1.06328,0.59339 -42.23486,21.41781 -42.98606,20.83569 -0.69199,-0.53624 37.66557,-22.85268 39.71204,-24.15568 2.49364,-1.58771 15.84224,-11.04008 18.75557,-10.69819 1.42249,0.16694 -0.0974,1.86679 -0.35543,3.03945 -0.25095,1.14042 0.78348,1.73866 0.45664,2.98525 z"
         style="opacity:1;fill:none;fill-opacity:1;stroke:#000000;stroke-width:1;stroke-miterlimit:4;stroke-dasharray:none;stroke-dashoffset:0;stroke-opacity:1" />
      <path
         sodipodi:nodetypes="sscsssssssssss"
         inkscape:connector-curvature="0"
         id="path4520-6-29-3-66"
         d="m -267.78172,311.09369 c -1.96604,1.13844 -19.35299,9.22145 -21.65419,9.24347 -8.62305,0.0825 -9.41228,-2.25548 -9.61331,-3.8557 -0.14063,-1.11943 5.58649,0.0372 10.01402,-1.39786 7.17349,-2.32515 14.29088,-5.85568 16.50941,-6.88962 4.10668,-1.9139 22.0502,-11.60334 25.35979,-13.61406 3.69329,-2.24384 11.51188,-7.2389 21.06885,-13.77198 9.76739,-6.67691 12.30563,-8.78998 19.41011,-13.55057 5.33512,-3.57497 13.55204,-10.3785 22.80875,-17.25009 4.86548,-3.61183 8.65273,-5.8977 8.9411,-5.83613 0.58931,0.12583 2.80192,1.47938 2.80192,1.47938 -8.90351,6.99368 -32.48207,25.03045 -35.9102,27.5209 -8.67169,6.29976 -28.74905,20.23062 -33.50142,23.3437 -4.43074,2.90241 -20.95218,11.51961 -26.23483,14.57856 z"
         style="opacity:1;fill:none;fill-opacity:1;stroke:#000000;stroke-width:1;stroke-miterlimit:4;stroke-dasharray:none;stroke-dashoffset:0;stroke-opacity:1" />
      <path
         sodipodi:nodetypes="cssssssssssssssssc"
         inkscape:connector-curvature="0"
         id="path4520-6-29-3-3-4"
         d="m -281.85056,305.96304 c -5.57232,1.94306 -17.36847,2.63634 -17.36847,2.63634 -1.11064,-2.05843 -0.0373,-3.59477 -0.3276,-5.7307 -0.20216,-1.48739 4.03809,0.0196 7.74096,0.003 3.58954,-0.0164 9.92699,-2.41394 13.51462,-3.91517 3.75987,-1.5733 12.47647,-6.20836 16.18085,-8.24914 5.16372,-2.84475 21.70734,-14.06273 26.0648,-16.66925 1.11879,-0.66923 23.53586,-14.09266 27.50478,-16.48126 4.44752,-2.67663 16.16059,-10.9197 19.96903,-13.52374 2.96309,-2.02602 2.03341,-2.4593 2.96309,-2.02602 0.92041,0.42896 0.86383,0.63161 1.47133,0.98107 0.59874,0.34442 1.58576,0.88926 1.58576,0.88926 -1.23851,2.35481 -9.41106,7.96389 -10.05399,8.45372 -4.00353,3.05022 -25.16172,18.0719 -26.74045,19.46822 -3.48455,3.08193 -19.42369,12.80278 -23.02811,14.8897 -2.79908,1.62064 -20.0027,11.08587 -20.4401,11.42617 -2.77388,2.15809 -13.38187,5.87636 -19.0365,7.84811 z"
         style="opacity:1;fill:none;fill-opacity:1;stroke:#000000;stroke-width:1;stroke-miterlimit:4;stroke-dasharray:none;stroke-dashoffset:0;stroke-opacity:1" />
      <path
         sodipodi:nodetypes="sssssssssssssssssss"
         inkscape:connector-curvature="0"
         id="path4520-6-29-3-6-9"
         d="m -270.09058,306.96477 c -0.17077,0.65136 -14.65263,6.32418 -15.96959,7.07279 -3.45451,1.96368 -12.77789,2.92671 -13.00916,1.3241 -0.42671,-2.95693 -0.0108,-5.00815 -0.25254,-6.62913 0,0 3.82509,-0.18266 6.7554,-0.31567 1.55925,-0.0708 5.2034,-0.39758 8.79113,-1.54883 6.52713,-2.09445 11.6727,-4.50682 15.33291,-6.03846 6.0488,-2.53116 16.51956,-8.80052 19.77802,-10.39096 4.31215,-2.10474 17.13329,-10.66253 21.20803,-13.10179 6.45558,-3.86452 18.33935,-13.13986 22.34569,-15.86237 3.82189,-2.59717 15.63643,-11.26188 18.51032,-13.42872 2.64541,-1.99457 2.82327,-3.00505 4.33569,-4.17758 0.64649,-0.50121 4.49057,-2.17686 4.49057,-2.17686 2.46945,2.38641 2.86684,1.65174 2.46945,2.38641 -0.59479,1.09965 -10.39513,7.04492 -10.75454,7.56824 -0.96517,1.40536 -15.90584,11.92288 -19.77263,15.00296 -1.15332,0.91867 -18.45894,12.36237 -21.60838,15.06069 -3.37677,2.89308 -22.61314,14.22188 -26.84291,16.75767 -3.60976,2.16409 -15.69645,8.0741 -15.80746,8.49751 z"
         style="opacity:1;fill:none;fill-opacity:1;stroke:#000000;stroke-width:1;stroke-miterlimit:4;stroke-dasharray:none;stroke-dashoffset:0;stroke-opacity:1" />
      <path
         sodipodi:nodetypes="sssssssssss"
         inkscape:connector-curvature="0"
         id="path4520-6-7535-5"
         d="m -244.01406,219.36848 c 3.58911,-3.40306 8.20017,-7.09824 12.56467,-10.28642 0,0 -0.20527,4.42126 1.39433,4.65992 2.12573,0.31716 -2.13526,-0.68923 -2.75621,5.599 -0.35236,3.56831 5.34914,4.8455 5.61819,5.99782 0.6724,2.87981 -8.36947,8.16868 -10.14233,9.2792 -4.81463,3.01588 -17.39221,8.7626 -18.88451,9.47801 -1.81662,0.87089 -10.61496,5.27161 -15.92511,8.46507 -3.2043,1.92703 -4.05974,4.03898 -4.40421,2.89914 -0.85518,-2.8298 16.59985,-22.9203 20.51872,-26.14218 6.05649,-4.9793 10.11965,-8.15107 12.01646,-9.94956 z"
         style="opacity:1;fill:none;fill-opacity:1;stroke:#000000;stroke-width:1;stroke-miterlimit:4;stroke-dasharray:none;stroke-dashoffset:0;stroke-opacity:1" />
      <path
         sodipodi:nodetypes="ssssssssssssss"
         inkscape:connector-curvature="0"
         id="path4520-6-62-0"
         d="m -239.49521,254.26732 c -1.88642,1.26602 -48.85389,28.32386 -51.0127,27.52667 -1.23572,-0.45632 3.30439,-11.09814 5.9632,-15.38228 3.41706,-5.50591 4.64398,-6.71556 7.67385,-10.12409 3.61438,-4.06606 6.72812,-4.61402 13.27005,-8.22053 6.82854,-3.76452 6.06147,-3.0453 15.58243,-7.7525 7.36937,-3.64344 13.70767,-7.28039 17.55344,-10.12969 3.63072,-2.68997 3.86861,-6.74029 4.53527,-5.03989 0.47828,1.21989 1.6366,4.3256 4.59456,4.79155 2.65095,0.41758 6.18776,-0.66277 7.87848,-0.2708 0.50543,0.11717 0.53031,1.88538 0.60954,3.49708 0.0864,1.75667 2.29444,2.2167 1.00425,2.94387 -2.88616,1.62667 -7.4783,5.16487 -8.34007,5.79345 -6.16196,4.49458 -12.01695,7.47108 -19.3123,12.36716 z"
         style="opacity:1;fill:none;fill-opacity:1;stroke:#000000;stroke-width:1;stroke-miterlimit:4;stroke-dasharray:none;stroke-dashoffset:0;stroke-opacity:1" />
      <path
         sodipodi:nodetypes="sssssssssssssssss"
         inkscape:connector-curvature="0"
         id="path4520-6-91-4"
         d="m -257.4546,287.86822 c -0.3145,1.19953 -14.25453,9.25539 -25.25297,12.98423 -9.1511,3.10252 -15.60524,2.12157 -16.58569,1.75952 -1.19935,-0.44289 1.31551,-6.62092 4.03918,-11.93611 2.25991,-4.41016 3.93789,-8.63263 4.65109,-8.79459 4.51153,-1.02449 3.77862,-0.80603 11.3701,-4.68683 9.84499,-5.03281 16.41867,-9.83826 25.88203,-14.64317 11.93659,-6.06067 16.06623,-9.93831 24.97316,-15.44496 11.65996,-7.20868 13.79484,-10.13664 16.55448,-10.89371 0.81353,-0.22318 3.77859,0.75585 10.48498,-0.94902 2.01903,-0.51327 -1.25118,2.31839 1.82472,5.1718 0.51827,0.48079 2.76255,1.79188 5.4404,0.65717 2.53039,-1.07223 6.3364,-2.68653 6.3364,-2.68653 0.71545,1.60245 1.8889,2.6953 1.58534,3.28699 -0.79749,1.55447 -10.38801,7.93676 -12.23733,9.19764 -7.30509,4.98066 -22.40942,14.1081 -24.75273,15.48743 -11.79822,6.94476 -34.0682,20.55583 -34.31316,21.49014 z"
         style="opacity:1;fill:none;fill-opacity:1;stroke:#000000;stroke-width:1;stroke-miterlimit:4;stroke-dasharray:none;stroke-dashoffset:0;stroke-opacity:1" />
    </g>
    <g
       id="g4862"
       transform="translate(334.82582,119.93841)">
      <path
         sodipodi:nodetypes="cssssssssssssc"
         inkscape:connector-curvature="0"
         id="path4520-6-87-1"
         d="m -229.65928,389.31483 c 3.42244,-2.31942 16.24324,-13.2282 23.00519,-18.21711 5.8105,-4.28695 21.32169,-16.04262 26.26217,-19.84039 4.25894,-3.27387 11.78282,-8.80362 11.78282,-8.80362 2.3632,0.11883 2.8247,0.002 4.31765,0.0668 1.44022,0.0624 6.371,-0.97913 5.51057,-0.35541 -6.00712,4.35414 -15.48978,10.31978 -23.20166,16.6366 -5.78905,4.74183 -15.75212,12.02467 -21.2669,16.5118 -2.12571,1.7296 -8.47394,6.44793 -15.94208,11.93058 -13.04729,9.57851 -25.58226,19.30251 -31.05052,23.18932 -3.91293,2.78128 -19.23371,12.74452 -14.16688,7.48359 2.05069,-2.12926 12.80653,-10.9508 16.88057,-14.35891 2.16688,-1.81269 14.1913,-11.7507 17.86907,-14.24315 z"
         style="opacity:1;fill:none;fill-opacity:1;stroke:#000000;stroke-width:1;stroke-miterlimit:4;stroke-dasharray:none;stroke-dashoffset:0;stroke-opacity:1" />
      <path
         sodipodi:nodetypes="sscssssssssssssssss"
         inkscape:connector-curvature="0"
         id="path4520-6-17-1"
         d="m -262.15495,424.36415 c -3.33528,2.03079 -5.93641,4.6485 -9.34391,6.31346 -2.74392,1.34073 -11.9208,6.39845 -12.12183,4.79823 -0.74728,-2.42806 15.58509,-16.44121 18.49842,-16.09932 1.16686,0.13694 8.47739,-4.41741 10.15933,-5.5064 2.72922,-1.76705 10.81955,-8.21904 12.55684,-9.21756 0.43834,-0.25193 15.96135,-12.52113 18.44012,-13.80082 0.59809,-0.30877 17.63493,-13.25448 21.42726,-16.01077 4.0782,-2.96406 18.127,-14.35151 21.83078,-16.99675 1.32733,-0.94798 14.19608,-10.75776 16.78389,-11.98681 0.3365,-0.15982 2.28573,-2.93844 5.16303,-3.40506 2.76294,-0.44807 7.00715,-1.31255 8.72947,-1.81545 0,0 1.82608,1.03434 0.92173,1.78248 -8.98625,7.43405 -15.73754,12.96007 -20.95068,17.34336 -4.4567,3.74726 -12.57974,9.60432 -16.25185,12.28908 -3.91521,2.86249 -19.18673,12.92055 -23.46463,16.36378 -4.1155,3.31251 -16.80312,12.73302 -22.72453,16.81984 -4.2734,2.94941 -11.73014,6.91021 -15.27604,9.27059 -3.45106,2.29724 -9.48704,6.88048 -14.3774,9.85812 z"
         style="opacity:1;fill:none;fill-opacity:1;stroke:#000000;stroke-width:1;stroke-miterlimit:4;stroke-dasharray:none;stroke-dashoffset:0;stroke-opacity:1" />
      <path
         sodipodi:nodetypes="ssssss"
         inkscape:connector-curvature="0"
         id="path4520-6-272-5"
         d="m -263.77253,427.61198 c -0.57617,2.1976 1.08553,3.95393 -1.07329,3.15674 -2.19448,-0.81036 -4.18021,-1.75289 -2.84106,-2.65167 1.14959,-0.77154 1.75015,-1.05758 2.87527,-1.79317 1.22727,-0.80238 2.17377,-1.8878 3.56445,-2.68938 2.23315,-1.28717 -1.86245,1.44905 -2.52537,3.97748 z"
         style="opacity:1;fill:none;fill-opacity:1;stroke:#000000;stroke-width:1;stroke-miterlimit:4;stroke-dasharray:none;stroke-dashoffset:0;stroke-opacity:1" />
      <path
         sodipodi:nodetypes="ssscs"
         inkscape:connector-curvature="0"
         id="path4520-6-26-97"
         d="m -257.37637,426.07135 c -0.57617,2.19759 0.37379,3.30829 -1.6415,4.41943 0,0 -4.59719,1.85275 -4.79822,0.25253 -0.36847,-2.93315 0.8116,-6.33967 11.17481,-12.56378 7.00555,-4.57806 -4.07217,5.36339 -4.73509,7.89182 z"
         style="opacity:1;fill:none;fill-opacity:1;stroke:#000000;stroke-width:1;stroke-miterlimit:4;stroke-dasharray:none;stroke-dashoffset:0;stroke-opacity:1" />
      <path
         sodipodi:nodetypes="ssssss"
         inkscape:connector-curvature="0"
         id="path4520-6-106-7"
         d="m -232.77714,405.30406 c -2.29717,1.25446 -10.6901,9.72478 -15.81171,16.78116 -3.88108,5.34722 -4.52053,10.48265 -5.48533,10.40875 -2.33249,-0.17865 -3.87657,-1.36262 -4.0776,-2.96284 -0.36847,-2.93315 3.68683,-9.39868 8.39843,-13.37677 6.16824,-5.20796 19.27032,-12.10309 16.97621,-10.8503 z"
         style="opacity:1;fill:none;fill-opacity:1;stroke:#000000;stroke-width:1;stroke-miterlimit:4;stroke-dasharray:none;stroke-dashoffset:0;stroke-opacity:1" />
      <path
         sodipodi:nodetypes="csssssssc"
         inkscape:connector-curvature="0"
         id="path4520-6-159-6"
         d="m -151.09476,361.25936 c 0,0 -29.22264,23.34458 -54.08833,42.66573 -17.57561,13.65661 -33.15323,25.12442 -33.90852,25.70559 -6.83734,5.26107 -14.33261,4.82347 -14.53363,3.22325 -0.12234,-0.97384 4.47403,-14.83702 17.27485,-24.18161 47.40016,-34.60208 64.04083,-48.0463 65.98691,-47.81792 1.665,0.1954 7.68005,0.1194 12.56854,-0.12981 3.34956,-0.17077 6.70018,-0.92219 6.70018,-9.7e-4 z"
         style="opacity:1;fill:none;fill-opacity:1;stroke:#000000;stroke-width:1;stroke-miterlimit:4;stroke-dasharray:none;stroke-dashoffset:0;stroke-opacity:1" />
      <path
         sodipodi:nodetypes="csc"
         inkscape:connector-curvature="0"
         id="path4765-73"
         d="m -244.85889,427.98984 c 0,0 30.75032,-29.63319 34.10714,-32.32143 l 43.03572,-34.46428"
         style="fill:none;fill-rule:evenodd;stroke:#000000;stroke-width:1px;stroke-linecap:butt;stroke-linejoin:miter;stroke-opacity:1" />
      <path
         sodipodi:nodetypes="csc"
         inkscape:connector-curvature="0"
         id="path4809-6"
         d="m -135.57318,328.8827 c 0,0 -10.62546,5.59117 -15,5.89286 l -5.17857,0.35714"
         style="fill:none;fill-rule:evenodd;stroke:#000000;stroke-width:1px;stroke-linecap:butt;stroke-linejoin:miter;stroke-opacity:1" />
      <path
         sodipodi:nodetypes="csc"
         inkscape:connector-curvature="0"
         id="path4811-5"
         d="m -127.71603,335.31127 c 0,0 -11.74051,6.78511 -14.01786,6.875 l -6.78572,0.26786"
         style="fill:none;fill-rule:evenodd;stroke:#000000;stroke-width:1px;stroke-linecap:butt;stroke-linejoin:miter;stroke-opacity:1" />
      <path
         sodipodi:nodetypes="csc"
         inkscape:connector-curvature="0"
         id="path4813-6"
         d="m -154.94818,337.36484 c 0,0 -2.80518,2.10255 -4.375,2.85714 -2.06125,0.99082 -6.51785,2.14286 -6.51785,2.14286"
         style="fill:none;fill-rule:evenodd;stroke:#000000;stroke-width:1px;stroke-linecap:butt;stroke-linejoin:miter;stroke-opacity:1" />
      <path
         sodipodi:nodetypes="cscsc"
         inkscape:connector-curvature="0"
         id="path4815-3"
         d="m -125.21603,328.8827 c 0,0 -5.97121,3.09319 -9.20339,3.90464 -1.99772,0.50153 -6.15376,0.55964 -6.15376,0.55964 0,0 -2.06168,2.36422 -3.3074,3.29817 -1.68361,1.26224 -6.78189,3.75541 -6.78189,3.75541"
         style="fill:none;fill-rule:evenodd;stroke:#000000;stroke-width:1px;stroke-linecap:butt;stroke-linejoin:miter;stroke-opacity:1" />
    </g>
    <text
       xml:space="preserve"
       style="font-style:normal;font-weight:normal;font-size:15px;line-height:125%;font-family:sans-serif;letter-spacing:0px;word-spacing:0px;fill:#000000;fill-opacity:1;stroke:none;stroke-width:1px;stroke-linecap:butt;stroke-linejoin:miter;stroke-opacity:1"
       x="18.371277"
       y="937.61829"
       id="text4875"
       sodipodi:linespacing="125%"><tspan
         sodipodi:role="line"
         id="tspan4877"
         x="18.371277"
         y="937.61829"
         style="font-size:17.5px">lvarez-Lpez, H. 1999. Gua de las Aves de la Reserva Natural Laguna de Sonso.</tspan><tspan
         sodipodi:role="line"
         x="18.371277"
         y="959.49329"
         style="font-size:17.5px"
         id="tspan4879">Corporacion Autonma Regional del Valle del Cauca, CVC.</tspan></text>
    <text
       xml:space="preserve"
       style="font-style:normal;font-weight:normal;font-size:15px;line-height:125%;font-family:sans-serif;letter-spacing:0px;word-spacing:0px;fill:#000000;fill-opacity:1;stroke:none;stroke-width:1px;stroke-linecap:butt;stroke-linejoin:miter;stroke-opacity:1"
       x="40.632751"
       y="116.00374"
       id="text4875-9"
       sodipodi:linespacing="125%"><tspan
         sodipodi:role="line"
         x="40.632751"
         y="116.00374"
         style="font-size:17.5px"
         id="tspan4879-8">Regiones del cuerpo en las aves.</tspan></text>
    <text
       xml:space="preserve"
       style="font-style:normal;font-weight:normal;font-size:15px;line-height:125%;font-family:sans-serif;letter-spacing:0px;word-spacing:0px;fill:#000000;fill-opacity:1;stroke:none;stroke-width:1px;stroke-linecap:butt;stroke-linejoin:miter;stroke-opacity:1"
       x="91.770813"
       y="620.04724"
       id="text4875-9-1"
       sodipodi:linespacing="125%"><tspan
         sodipodi:role="line"
         x="91.770813"
         y="620.04724"
         style="font-size:17.5px"
         id="tspan4879-8-2">1. Coronilla</tspan><tspan
         sodipodi:role="line"
         x="91.770813"
         y="641.92224"
         style="font-size:17.5px"
         id="tspan4922">2. Superciliar</tspan><tspan
         sodipodi:role="line"
         x="91.770813"
         y="663.79724"
         style="font-size:17.5px"
         id="tspan4924">3. Mandbula superior</tspan><tspan
         sodipodi:role="line"
         x="91.770813"
         y="685.67224"
         style="font-size:17.5px"
         id="tspan4926">4. Mandbula inferior</tspan><tspan
         sodipodi:role="line"
         x="91.770813"
         y="707.54724"
         style="font-size:17.5px"
         id="tspan4928">5. Barbilla</tspan><tspan
         sodipodi:role="line"
         x="91.770813"
         y="729.42224"
         style="font-size:17.5px"
         id="tspan4930">6. Garganta</tspan><tspan
         sodipodi:role="line"
         x="91.770813"
         y="751.29724"
         style="font-size:17.5px"
         id="tspan4932">7. Pecho</tspan><tspan
         sodipodi:role="line"
         x="91.770813"
         y="773.17224"
         style="font-size:17.5px"
         id="tspan4934">8. Flancos</tspan><tspan
         sodipodi:role="line"
         x="91.770813"
         y="795.04724"
         style="font-size:17.5px"
         id="tspan4936">9. Abdomen</tspan><tspan
         sodipodi:role="line"
         x="91.770813"
         y="816.92224"
         style="font-size:17.5px"
         id="tspan4938">10. Tarso</tspan><tspan
         sodipodi:role="line"
         x="91.770813"
         y="838.79724"
         style="font-size:17.5px"
         id="tspan4940">11. Rmiges primarias</tspan></text>
    <text
       xml:space="preserve"
       style="font-style:normal;font-weight:normal;font-size:15px;line-height:125%;font-family:sans-serif;letter-spacing:0px;word-spacing:0px;fill:#000000;fill-opacity:1;stroke:none;stroke-width:1px;stroke-linecap:butt;stroke-linejoin:miter;stroke-opacity:1"
       x="389.24689"
       y="621.24365"
       id="text4875-9-1-9"
       sodipodi:linespacing="125%"><tspan
         sodipodi:role="line"
         x="389.24689"
         y="621.24365"
         style="font-size:17.5px"
         id="tspan4879-8-2-3">12. Infracaudales</tspan><tspan
         sodipodi:role="line"
         x="389.24689"
         y="643.11865"
         style="font-size:17.5px"
         id="tspan4990">13. Timoneras o rectrices</tspan><tspan
         sodipodi:role="line"
         x="389.24689"
         y="664.99365"
         style="font-size:17.5px"
         id="tspan4924-0">14. Supracaudales</tspan><tspan
         sodipodi:role="line"
         x="389.24689"
         y="686.86865"
         style="font-size:17.5px"
         id="tspan4926-8">15. Rabadilla</tspan><tspan
         sodipodi:role="line"
         x="389.24689"
         y="708.74365"
         style="font-size:17.5px"
         id="tspan4928-8">16. Rmiges secundarias</tspan><tspan
         sodipodi:role="line"
         x="389.24689"
         y="730.61865"
         style="font-size:17.5px"
         id="tspan4930-5">17. Barras alares</tspan><tspan
         sodipodi:role="line"
         x="389.24689"
         y="752.49365"
         style="font-size:17.5px"
         id="tspan4932-0">18. Espalda</tspan><tspan
         sodipodi:role="line"
         x="389.24689"
         y="774.36865"
         style="font-size:17.5px"
         id="tspan4934-9">19. Nuca</tspan><tspan
         sodipodi:role="line"
         x="389.24689"
         y="796.24365"
         style="font-size:17.5px"
         id="tspan4936-6">20. Auriculares</tspan><tspan
         sodipodi:role="line"
         x="389.24689"
         y="818.11865"
         style="font-size:17.5px"
         id="tspan4940-8">21. Linea ocular</tspan></text>
    <text
       xml:space="preserve"
       style="font-style:normal;font-weight:normal;font-size:15px;line-height:125%;font-family:sans-serif;letter-spacing:0px;word-spacing:0px;fill:#000000;fill-opacity:1;stroke:none;stroke-width:1px;stroke-linecap:butt;stroke-linejoin:miter;stroke-opacity:1"
       x="437.24686"
       y="132.38652"
       id="text4875-9-1-5"
       sodipodi:linespacing="125%"><tspan
         sodipodi:role="line"
         x="437.24686"
         y="132.38652"
         style="font-size:17.5px"
         id="tspan4940-3">1</tspan></text>
    <path
       style="fill:none;fill-rule:evenodd;stroke:#000000;stroke-width:1px;stroke-linecap:butt;stroke-linejoin:miter;stroke-opacity:1"
       d="m 442.85714,137.36221 -0.71429,36.42857"
       id="path5083"
       inkscape:connector-curvature="0" />
    <text
       xml:space="preserve"
       style="font-style:normal;font-weight:normal;font-size:15px;line-height:125%;font-family:sans-serif;letter-spacing:0px;word-spacing:0px;fill:#000000;fill-opacity:1;stroke:none;stroke-width:1px;stroke-linecap:butt;stroke-linejoin:miter;stroke-opacity:1"
       x="492.13632"
       y="146.59814"
       id="text4875-9-1-5-0"
       sodipodi:linespacing="125%"><tspan
         sodipodi:role="line"
         x="492.13632"
         y="146.59814"
         style="font-size:17.5px"
         id="tspan4940-3-4">2</tspan></text>
    <path
       style="fill:none;fill-rule:evenodd;stroke:#000000;stroke-width:1px;stroke-linecap:butt;stroke-linejoin:miter;stroke-opacity:1"
       d="m 491.42857,151.64792 -18.57143,37.14286"
       id="path5103"
       inkscape:connector-curvature="0" />
    <text
       xml:space="preserve"
       style="font-style:normal;font-weight:normal;font-size:15px;line-height:125%;font-family:sans-serif;letter-spacing:0px;word-spacing:0px;fill:#000000;fill-opacity:1;stroke:none;stroke-width:1px;stroke-linecap:butt;stroke-linejoin:miter;stroke-opacity:1"
       x="540.95367"
       y="162.42776"
       id="text4875-9-1-5-0-4"
       sodipodi:linespacing="125%"><tspan
         sodipodi:role="line"
         x="540.95367"
         y="162.42776"
         style="font-size:17.5px"
         id="tspan4940-3-4-4">3</tspan></text>
    <path
       style="fill:none;fill-rule:evenodd;stroke:#000000;stroke-width:1px;stroke-linecap:butt;stroke-linejoin:miter;stroke-opacity:1"
       d="m 537.85714,165.21935 -19.28571,30.71429"
       id="path5123"
       inkscape:connector-curvature="0" />
    <text
       xml:space="preserve"
       style="font-style:normal;font-weight:normal;font-size:15px;line-height:125%;font-family:sans-serif;letter-spacing:0px;word-spacing:0px;fill:#000000;fill-opacity:1;stroke:none;stroke-width:1px;stroke-linecap:butt;stroke-linejoin:miter;stroke-opacity:1"
       x="546.60999"
       y="240.30388"
       id="text4875-9-1-5-0-4-4"
       sodipodi:linespacing="125%"><tspan
         sodipodi:role="line"
         x="546.60999"
         y="240.30388"
         style="font-size:17.5px"
         id="tspan4940-3-4-4-7">4</tspan></text>
    <path
       style="fill:none;fill-rule:evenodd;stroke:#000000;stroke-width:1px;stroke-linecap:butt;stroke-linejoin:miter;stroke-opacity:1"
       d="M 545,230.21935 523.57143,203.0765"
       id="path5143"
       inkscape:connector-curvature="0" />
    <text
       xml:space="preserve"
       style="font-style:normal;font-weight:normal;font-size:15px;line-height:125%;font-family:sans-serif;letter-spacing:0px;word-spacing:0px;fill:#000000;fill-opacity:1;stroke:none;stroke-width:1px;stroke-linecap:butt;stroke-linejoin:miter;stroke-opacity:1"
       x="514.06848"
       y="260.45526"
       id="text4875-9-1-5-0-4-4-6"
       sodipodi:linespacing="125%"><tspan
         sodipodi:role="line"
         x="514.06848"
         y="260.45526"
         style="font-size:17.5px"
         id="tspan4940-3-4-4-7-3">5</tspan></text>
    <path
       style="fill:none;fill-rule:evenodd;stroke:#000000;stroke-width:1px;stroke-linecap:butt;stroke-linejoin:miter;stroke-opacity:1"
       d="m 512.85714,253.07649 -40,-17.85714"
       id="path5163"
       inkscape:connector-curvature="0" />
    <text
       xml:space="preserve"
       style="font-style:normal;font-weight:normal;font-size:15px;line-height:125%;font-family:sans-serif;letter-spacing:0px;word-spacing:0px;fill:#000000;fill-opacity:1;stroke:none;stroke-width:1px;stroke-linecap:butt;stroke-linejoin:miter;stroke-opacity:1"
       x="496.56851"
       y="296.35294"
       id="text4875-9-1-5-0-4-4-6-1"
       sodipodi:linespacing="125%"><tspan
         sodipodi:role="line"
         x="496.56851"
         y="296.35294"
         style="font-size:17.5px"
         id="tspan4940-3-4-4-7-3-7">6</tspan></text>
    <path
       style="fill:none;fill-rule:evenodd;stroke:#000000;stroke-width:1px;stroke-linecap:butt;stroke-linejoin:miter;stroke-opacity:1"
       d="m 489.92398,288.68689 -38.3858,-25.25382"
       id="path5183"
       inkscape:connector-curvature="0" />
    <text
       xml:space="preserve"
       style="font-style:normal;font-weight:normal;font-size:15px;line-height:125%;font-family:sans-serif;letter-spacing:0px;word-spacing:0px;fill:#000000;fill-opacity:1;stroke:none;stroke-width:1px;stroke-linecap:butt;stroke-linejoin:miter;stroke-opacity:1"
       x="493.38855"
       y="363.05713"
       id="text4875-9-1-5-0-4-4-6-1-5"
       sodipodi:linespacing="125%"><tspan
         sodipodi:role="line"
         x="493.38855"
         y="363.05713"
         style="font-size:17.5px"
         id="tspan4940-3-4-4-7-3-7-9">7</tspan></text>
    <path
       style="fill:none;fill-rule:evenodd;stroke:#000000;stroke-width:1px;stroke-linecap:butt;stroke-linejoin:miter;stroke-opacity:1"
       d="m 485.88337,353.33665 -46.46702,-19.1929"
       id="path5203"
       inkscape:connector-curvature="0" />
    <text
       xml:space="preserve"
       style="font-style:normal;font-weight:normal;font-size:15px;line-height:125%;font-family:sans-serif;letter-spacing:0px;word-spacing:0px;fill:#000000;fill-opacity:1;stroke:none;stroke-width:1px;stroke-linecap:butt;stroke-linejoin:miter;stroke-opacity:1"
       x="482.36655"
       y="430.10123"
       id="text4875-9-1-5-0-4-4-6-1-5-6"
       sodipodi:linespacing="125%"><tspan
         sodipodi:role="line"
         x="482.36655"
         y="430.10123"
         style="font-size:17.5px"
         id="tspan4940-3-4-4-7-3-7-9-2">8</tspan></text>
    <path
       style="fill:none;fill-rule:evenodd;stroke:#000000;stroke-width:1px;stroke-linecap:butt;stroke-linejoin:miter;stroke-opacity:1"
       d="M 476.792,423.03717 389.91888,388.69199"
       id="path5223"
       inkscape:connector-curvature="0" />
    <text
       xml:space="preserve"
       style="font-style:normal;font-weight:normal;font-size:15px;line-height:125%;font-family:sans-serif;letter-spacing:0px;word-spacing:0px;fill:#000000;fill-opacity:1;stroke:none;stroke-width:1px;stroke-linecap:butt;stroke-linejoin:miter;stroke-opacity:1"
       x="453.04651"
       y="485.38712"
       id="text4875-9-1-5-0-4-4-6-1-5-6-1"
       sodipodi:linespacing="125%"><tspan
         sodipodi:role="line"
         x="453.04651"
         y="485.38712"
         style="font-size:17.5px"
         id="tspan4940-3-4-4-7-3-7-9-2-7">9</tspan></text>
    <path
       style="fill:none;fill-rule:evenodd;stroke:#000000;stroke-width:1px;stroke-linecap:butt;stroke-linejoin:miter;stroke-opacity:1"
       d="M 449.51788,476.57526 383.85796,439.19961"
       id="path5243"
       inkscape:connector-curvature="0" />
    <text
       xml:space="preserve"
       style="font-style:normal;font-weight:normal;font-size:15px;line-height:125%;font-family:sans-serif;letter-spacing:0px;word-spacing:0px;fill:#000000;fill-opacity:1;stroke:none;stroke-width:1px;stroke-linecap:butt;stroke-linejoin:miter;stroke-opacity:1"
       x="410.6799"
       y="527.06726"
       id="text4875-9-1-5-0-4-4-6-1-5-6-1-8"
       sodipodi:linespacing="125%"><tspan
         sodipodi:role="line"
         x="410.6799"
         y="527.06726"
         style="font-size:17.5px"
         id="tspan4940-3-4-4-7-3-7-9-2-7-5">10</tspan></text>
    <path
       style="fill:none;fill-rule:evenodd;stroke:#000000;stroke-width:1px;stroke-linecap:butt;stroke-linejoin:miter;stroke-opacity:1"
       d="m 403.05086,522.03212 -59.599,-6.06091"
       id="path5263"
       inkscape:connector-curvature="0" />
    <text
       xml:space="preserve"
       style="font-style:normal;font-weight:normal;font-size:15px;line-height:125%;font-family:sans-serif;letter-spacing:0px;word-spacing:0px;fill:#000000;fill-opacity:1;stroke:none;stroke-width:1px;stroke-linecap:butt;stroke-linejoin:miter;stroke-opacity:1"
       x="225.91811"
       y="534.46326"
       id="text4875-9-1-5-0-4-4-6-1-5-6-1-8-7"
       sodipodi:linespacing="125%"><tspan
         sodipodi:role="line"
         x="225.91811"
         y="534.46326"
         style="font-size:17.5px"
         id="tspan4940-3-4-4-7-3-7-9-2-7-5-4">11</tspan></text>
    <path
       style="fill:none;fill-rule:evenodd;stroke:#000000;stroke-width:1px;stroke-linecap:butt;stroke-linejoin:miter;stroke-opacity:1"
       d="M 227.28432,520.01182 196.97975,483.64633"
       id="path5283"
       inkscape:connector-curvature="0" />
    <text
       xml:space="preserve"
       style="font-style:normal;font-weight:normal;font-size:15px;line-height:125%;font-family:sans-serif;letter-spacing:0px;word-spacing:0px;fill:#000000;fill-opacity:1;stroke:none;stroke-width:1px;stroke-linecap:butt;stroke-linejoin:miter;stroke-opacity:1"
       x="161.04297"
       y="554.43121"
       id="text4875-9-1-5-0-4-4-6-1-5-6-1-8-7-1"
       sodipodi:linespacing="125%"><tspan
         sodipodi:role="line"
         x="161.04297"
         y="554.43121"
         style="font-size:17.5px"
         id="tspan4940-3-4-4-7-3-7-9-2-7-5-4-8">12</tspan></text>
    <path
       style="fill:none;fill-rule:evenodd;stroke:#000000;stroke-width:1px;stroke-linecap:butt;stroke-linejoin:miter;stroke-opacity:1"
       d="M 170.71578,534.15395 183.84776,471.5245"
       id="path5303"
       inkscape:connector-curvature="0" />
    <text
       xml:space="preserve"
       style="font-style:normal;font-weight:normal;font-size:15px;line-height:125%;font-family:sans-serif;letter-spacing:0px;word-spacing:0px;fill:#000000;fill-opacity:1;stroke:none;stroke-width:1px;stroke-linecap:butt;stroke-linejoin:miter;stroke-opacity:1"
       x="59.061974"
       y="485.4278"
       id="text4875-9-1-5-0-4-4-6-1-5-6-1-8-7-1-5"
       sodipodi:linespacing="125%"><tspan
         sodipodi:role="line"
         x="59.061974"
         y="485.4278"
         style="font-size:17.5px"
         id="tspan4940-3-4-4-7-3-7-9-2-7-5-4-8-9">13</tspan></text>
    <path
       style="fill:none;fill-rule:evenodd;stroke:#000000;stroke-width:1px;stroke-linecap:butt;stroke-linejoin:miter;stroke-opacity:1"
       d="m 85,487.36221 22.14286,29.28571"
       id="path5323"
       inkscape:connector-curvature="0" />
    <text
       xml:space="preserve"
       style="font-style:normal;font-weight:normal;font-size:15px;line-height:125%;font-family:sans-serif;letter-spacing:0px;word-spacing:0px;fill:#000000;fill-opacity:1;stroke:none;stroke-width:1px;stroke-linecap:butt;stroke-linejoin:miter;stroke-opacity:1"
       x="124.31535"
       y="433.5896"
       id="text4875-9-1-5-0-4-4-6-1-5-6-1-8-7-1-5-7"
       sodipodi:linespacing="125%"><tspan
         sodipodi:role="line"
         x="124.31535"
         y="433.5896"
         style="font-size:17.5px"
         id="tspan4940-3-4-4-7-3-7-9-2-7-5-4-8-9-5">14</tspan></text>
    <path
       style="fill:none;fill-rule:evenodd;stroke:#000000;stroke-width:1px;stroke-linecap:butt;stroke-linejoin:miter;stroke-opacity:1"
       d="m 146.42857,435.21935 27.14286,22.14286"
       id="path5343"
       inkscape:connector-curvature="0" />
    <text
       xml:space="preserve"
       style="font-style:normal;font-weight:normal;font-size:15px;line-height:125%;font-family:sans-serif;letter-spacing:0px;word-spacing:0px;fill:#000000;fill-opacity:1;stroke:none;stroke-width:1px;stroke-linecap:butt;stroke-linejoin:miter;stroke-opacity:1"
       x="167.8203"
       y="405.0267"
       id="text4875-9-1-5-0-4-4-6-1-5-6-1-8-7-1-5-7-3"
       sodipodi:linespacing="125%"><tspan
         sodipodi:role="line"
         x="167.8203"
         y="405.0267"
         style="font-size:17.5px"
         id="tspan4940-3-4-4-7-3-7-9-2-7-5-4-8-9-5-8">15</tspan></text>
    <path
       style="fill:none;fill-rule:evenodd;stroke:#000000;stroke-width:1px;stroke-linecap:butt;stroke-linejoin:miter;stroke-opacity:1"
       d="m 190,405.21935 22.14286,21.42857"
       id="path5363"
       inkscape:connector-curvature="0" />
    <text
       xml:space="preserve"
       style="font-style:normal;font-weight:normal;font-size:15px;line-height:125%;font-family:sans-serif;letter-spacing:0px;word-spacing:0px;fill:#000000;fill-opacity:1;stroke:none;stroke-width:1px;stroke-linecap:butt;stroke-linejoin:miter;stroke-opacity:1"
       x="199.78703"
       y="369.31235"
       id="text4875-9-1-5-0-4-4-6-1-5-6-1-8-7-1-5-7-3-8"
       sodipodi:linespacing="125%"><tspan
         sodipodi:role="line"
         x="199.78703"
         y="369.31235"
         style="font-size:17.5px"
         id="tspan4940-3-4-4-7-3-7-9-2-7-5-4-8-9-5-8-3">16</tspan></text>
    <path
       style="fill:none;fill-rule:evenodd;stroke:#000000;stroke-width:1px;stroke-linecap:butt;stroke-linejoin:miter;stroke-opacity:1"
       d="m 225.26402,367.47878 28.28427,22.22336"
       id="path5383"
       inkscape:connector-curvature="0" />
    <text
       xml:space="preserve"
       style="font-style:normal;font-weight:normal;font-size:15px;line-height:125%;font-family:sans-serif;letter-spacing:0px;word-spacing:0px;fill:#000000;fill-opacity:1;stroke:none;stroke-width:1px;stroke-linecap:butt;stroke-linejoin:miter;stroke-opacity:1"
       x="243.97952"
       y="313.80841"
       id="text4875-9-1-5-0-4-4-6-1-5-6-1-8-7-1-5-7-3-8-1"
       sodipodi:linespacing="125%"><tspan
         sodipodi:role="line"
         x="243.97952"
         y="313.80841"
         style="font-size:17.5px"
         id="tspan4940-3-4-4-7-3-7-9-2-7-5-4-8-9-5-8-3-8">17</tspan></text>
    <path
       style="fill:none;fill-rule:evenodd;stroke:#000000;stroke-width:1px;stroke-linecap:butt;stroke-linejoin:miter;stroke-opacity:1"
       d="m 265,310.21935 27.14286,41.42857"
       id="path5403"
       inkscape:connector-curvature="0" />
    <path
       style="fill:none;fill-rule:evenodd;stroke:#000000;stroke-width:1px;stroke-linecap:butt;stroke-linejoin:miter;stroke-opacity:1"
       d="m 265.16504,309.90009 72.22591,21.2132"
       id="path5405"
       inkscape:connector-curvature="0" />
    <text
       xml:space="preserve"
       style="font-style:normal;font-weight:normal;font-size:15px;line-height:125%;font-family:sans-serif;letter-spacing:0px;word-spacing:0px;fill:#000000;fill-opacity:1;stroke:none;stroke-width:1px;stroke-linecap:butt;stroke-linejoin:miter;stroke-opacity:1"
       x="296.79092"
       y="258.59811"
       id="text4875-9-1-5-0-4-4-6-1-5-6-1-8-7-1-5-7-3-8-1-9"
       sodipodi:linespacing="125%"><tspan
         sodipodi:role="line"
         x="296.79092"
         y="258.59811"
         style="font-size:17.5px"
         id="tspan4940-3-4-4-7-3-7-9-2-7-5-4-8-9-5-8-3-8-6">18</tspan></text>
    <path
       style="fill:none;fill-rule:evenodd;stroke:#000000;stroke-width:1px;stroke-linecap:butt;stroke-linejoin:miter;stroke-opacity:1"
       d="m 320.71428,257.36221 37.14286,20.71428"
       id="path5425"
       inkscape:connector-curvature="0" />
    <text
       xml:space="preserve"
       style="font-style:normal;font-weight:normal;font-size:15px;line-height:125%;font-family:sans-serif;letter-spacing:0px;word-spacing:0px;fill:#000000;fill-opacity:1;stroke:none;stroke-width:1px;stroke-linecap:butt;stroke-linejoin:miter;stroke-opacity:1"
       x="330.49854"
       y="219.73244"
       id="text4875-9-1-5-0-4-4-6-1-5-6-1-8-7-1-5-7-3-8-1-9-4"
       sodipodi:linespacing="125%"><tspan
         sodipodi:role="line"
         x="330.49854"
         y="219.73244"
         style="font-size:17.5px"
         id="tspan4940-3-4-4-7-3-7-9-2-7-5-4-8-9-5-8-3-8-6-3">19</tspan></text>
    <path
       style="fill:none;fill-rule:evenodd;stroke:#000000;stroke-width:1px;stroke-linecap:butt;stroke-linejoin:miter;stroke-opacity:1"
       d="m 355,218.79078 31.42857,27.14286"
       id="path5445"
       inkscape:connector-curvature="0" />
    <text
       xml:space="preserve"
       style="font-style:normal;font-weight:normal;font-size:15px;line-height:125%;font-family:sans-serif;letter-spacing:0px;word-spacing:0px;fill:#000000;fill-opacity:1;stroke:none;stroke-width:1px;stroke-linecap:butt;stroke-linejoin:miter;stroke-opacity:1"
       x="355.65848"
       y="176.73245"
       id="text4875-9-1-5-0-4-4-6-1-5-6-1-8-7-1-5-7-3-8-1-9-4-3"
       sodipodi:linespacing="125%"><tspan
         sodipodi:role="line"
         x="355.65848"
         y="176.73245"
         style="font-size:17.5px"
         id="tspan4940-3-4-4-7-3-7-9-2-7-5-4-8-9-5-8-3-8-6-3-3">20</tspan></text>
    <path
       style="fill:none;fill-rule:evenodd;stroke:#000000;stroke-width:1px;stroke-linecap:butt;stroke-linejoin:miter;stroke-opacity:1"
       d="m 379.28571,178.79078 31.42857,42.14286"
       id="path5465"
       inkscape:connector-curvature="0" />
    <text
       xml:space="preserve"
       style="font-style:normal;font-weight:normal;font-size:15px;line-height:125%;font-family:sans-serif;letter-spacing:0px;word-spacing:0px;fill:#000000;fill-opacity:1;stroke:none;stroke-width:1px;stroke-linecap:butt;stroke-linejoin:miter;stroke-opacity:1"
       x="390.08759"
       y="145.16101"
       id="text4875-9-1-5-0-4-4-6-1-5-6-1-8-7-1-5-7-3-8-1-9-4-3-8"
       sodipodi:linespacing="125%"><tspan
         sodipodi:role="line"
         x="390.08759"
         y="145.16101"
         style="font-size:17.5px"
         id="tspan4940-3-4-4-7-3-7-9-2-7-5-4-8-9-5-8-3-8-6-3-3-6">21</tspan></text>
    <path
       style="fill:none;fill-rule:evenodd;stroke:#000000;stroke-width:1px;stroke-linecap:butt;stroke-linejoin:miter;stroke-opacity:1"
       d="m 408.57143,151.64792 15.71429,41.42857"
       id="path5485"
       inkscape:connector-curvature="0" />
  </g>
</svg>
