<?xml version="1.0" encoding="UTF-8" standalone="no"?>
<!-- Created with Inkscape (http://www.inkscape.org/) -->

<svg
   xmlns:dc="http://purl.org/dc/elements/1.1/"
   xmlns:cc="http://creativecommons.org/ns#"
   xmlns:rdf="http://www.w3.org/1999/02/22-rdf-syntax-ns#"
   xmlns:svg="http://www.w3.org/2000/svg"
   xmlns="http://www.w3.org/2000/svg"
   xmlns:sodipodi="http://sodipodi.sourceforge.net/DTD/sodipodi-0.dtd"
   xmlns:inkscape="http://www.inkscape.org/namespaces/inkscape"
   width="94.369659mm"
   height="63.339722mm"
   viewBox="0 0 334.38068 224.43208"
   id="svg2"
   version="1.1"
   inkscape:version="0.91 r13725"
   sodipodi:docname="Passerine_silhouette.svg">
  <defs
     id="defs4" />
  <sodipodi:namedview
     id="base"
     pagecolor="#ffffff"
     bordercolor="#666666"
     borderopacity="1.0"
     inkscape:pageopacity="0.0"
     inkscape:pageshadow="2"
     inkscape:zoom="0.44743195"
     inkscape:cx="160.31784"
     inkscape:cy="65.966364"
     inkscape:document-units="px"
     inkscape:current-layer="layer1"
     showgrid="false"
     inkscape:window-width="1366"
     inkscape:window-height="719"
     inkscape:window-x="0"
     inkscape:window-y="0"
     inkscape:window-maximized="1"
     fit-margin-top="0"
     fit-margin-left="0"
     fit-margin-right="0"
     fit-margin-bottom="0" />
  <metadata
     id="metadata7">
    <rdf:RDF>
      <cc:Work
         rdf:about="">
        <dc:format>image/svg+xml</dc:format>
        <dc:type
           rdf:resource="http://purl.org/dc/dcmitype/StillImage" />
        <dc:title></dc:title>
      </cc:Work>
    </rdf:RDF>
  </metadata>
  <g
     inkscape:label="Layer 1"
     inkscape:groupmode="layer"
     id="layer1"
     transform="translate(-292.4425,-413.43363)">
    <path
       style="fill:none;fill-rule:evenodd;stroke:#000000;stroke-width:0;stroke-linecap:butt;stroke-linejoin:miter;stroke-miterlimit:4;stroke-dasharray:none;stroke-opacity:1"
       d="m 333.39286,422.71935 c 0,0 49.28571,8.75 50,-0.17858 0.71428,-8.92857 0.71428,-9.10714 0.71428,-9.10714"
       id="path4217"
       inkscape:connector-curvature="0" />
    <path
       style="fill:#000000;fill-rule:evenodd;stroke:#000000;stroke-width:0.5;stroke-linecap:butt;stroke-linejoin:miter;stroke-miterlimit:4;stroke-dasharray:none;stroke-opacity:1"
       d="m 321.36376,439.30896 c 2.70789,-2.68056 4.92634,-5.8639 8.29531,-7.71155 7.34243,-4.02681 14.41508,-3.28941 22.14024,-3.84136 0,0 18.25734,-4.60159 23.5371,-1.6064 l 13.04726,7.40169 c 19.93585,-6.06183 67.84424,15.90178 69.62651,18.07377 l 5.04289,6.14563 c 4.01494,3.22654 8.02988,5.00057 11.89231,6.38603 0,0 12.4664,-4.88737 18.8448,-1.40938 l 7.3357,3.99999 c 0,0 92.84312,-16.39083 98.22839,-16.50509 l 26.56559,-0.56363 -24.07636,15.03087 c -4.85837,2.9669 -27.04169,4.02087 -44.16013,6.35772 -11.9957,1.63753 -21.43856,5.09618 -21.43856,5.09618 0,0 -4.49053,4.74683 -9.26062,9.76625 -4.13817,4.35446 -11.1169,3.92216 -11.2633,6.85022 l -0.34921,6.9843 c 0,0 17.56967,6.17777 17.67027,10.0574 l 14.92895,6.94106 0.92121,1.87883 22.00477,10.24725 -10.47645,1.04765 c -2.86313,0.26722 -10.63277,-3.28315 -19.99795,-8.16072 -14.89722,-7.75877 -37.23842,-7.58889 -37.23842,-7.58889 0,0 0.0105,5.42034 -2.1302,6.53033 l -3.84137,1.81592 c 0,0 12.06129,8.31162 16.97186,10.61614 l 31.77421,14.83916 c 11.37953,7.12127 5.20473,6.65874 -7.82643,5.57195 -4.94316,-0.41226 -56.02801,-5.63201 -56.02801,-5.63201 0,0 0.16913,18.68323 0.69807,22.22439 l 2.34586,15.7049 c 0,0 1.62154,8.37899 1.65444,10.61809 0.0494,3.35828 2.13584,9.00961 2.13584,9.00961 0,0 2.94245,0.93297 4.36295,-0.60731 l 2.89849,-3.14293 c -0.22546,2.24837 -0.67223,4.40429 -2.30483,6.04141 -1.15451,1.1577 -3.61437,1.781 -3.61437,1.781 0.67753,0.47189 1.56897,1.48041 3.30008,-0.0698 l 2.33974,-2.09529 -0.24445,4.88901 c -0.15012,5.25401 -8.95587,3.59162 -7.78749,1.18733 l -1.99053,3.49216 c -1.76695,3.09993 -5.45701,3.45079 -5.45701,3.45079 l 3.94164,-7.39147 c 1.2969,-2.43199 -2.28162,-1.54108 -3.80406,-4.4681 -0.91443,-1.75807 1.0814,-4.47194 0.43691,-6.58819 -1.11999,-3.67761 -4.57044,-6.53798 -4.57044,-6.53798 l -2.23068,6.72145 c -1.00187,3.01882 -3.23768,9.81514 -5.64809,9.53935 l -0.87916,-1.50905 c -1.36207,-2.33797 4.97866,-17.6186 6.52524,-18.44742 l 1.582,-7.94686 c 1.03307,-5.18943 0.58475,-35.56033 0.30455,-35.62403 l -3.82029,-0.83199 -3.94614,-0.24445 c 1.77686,5.77847 -10.02247,9.39389 -13.37493,14.00353 -4.57739,6.29391 -22.05155,8.07321 -22.05155,8.07321 0,0 -10.51978,13.09305 -10.94786,13.636 -4.64653,5.89345 -7.89666,11.78691 -9.1365,17.68036 2.45194,-1.99286 11.33703,7.8323 8.14877,11.35889 l -3.51826,3.8916 1.25348,-3.38286 c 0.48903,-1.71702 0.80377,-3.43405 -0.007,-5.15107 -2.77746,-5.882 -7.40797,-4.14846 -7.40797,-4.14846 0.73955,9.94314 2.51715,19.78751 4.7411,29.63188 1.81124,8.01751 -6.50667,3.8645 -6.50667,3.8645 l 2.21004,-0.45684 c 4.12231,-0.85214 -3.41583,-10.20712 -3.41583,-10.20712 0.21872,-1.83586 0.22596,-3.90301 -0.24142,-6.08881 -0.99683,-4.66188 -4.5823,-17.03475 -7.9344,-14.43092 -4.55374,2.08569 -3.77717,19.9747 1.71436,19.66429 l 3.41426,-0.19299 c 0.96262,3.65492 -6.96229,5.64314 -9.68112,-4.23541 -1.29051,-4.6889 -4.1324,-9.72722 1.32702,-14.91148 l -4.33028,0.52382 c -5.77362,0.73315 -4.05089,15.08609 -4.05089,15.08609 -2.90261,-4.88337 -9.55031,-17.39016 6.42556,-20.39416 l 8.24965,-1.47261 5.9608,-10.56363 6.66137,-7.94175 c 4.79358,-6.62642 11.06258,-12.88987 11.06258,-12.88987 -2.5729,2.03656 -5.90187,2.79938 -9.52349,3.05006 l -11.03171,0.17928 c -3.5634,-0.12479 -7.12681,-0.57148 -10.69021,-1.34915 -3.54477,-0.77362 -7.08955,-1.87477 -10.63432,-3.3124 -19.92045,-8.07902 -32.39753,-17.23588 -32.39753,-17.23588 l -16.00122,-16.4457 c -5.19528,-5.3396 -4.83915,-15.25033 -4.83915,-15.25033 l -3.38274,-3.96335 c -3.01445,-3.53185 -2.20144,-13.38766 -2.20144,-13.38766 1.31004,-5.96859 1.02677,-11.69808 -0.38625,-18.04606 -1.50573,-6.76448 -8.87516,-19.61717 -8.91656,-19.39 l -1.8871,-0.89638 c -4.88483,-2.32032 -16.6773,0.84918 -16.6773,0.84918 l -1.46251,0.51894 c -1.95328,0.69308 -3.98651,0.20053 -3.98651,0.20053 2.15808,-2.75657 2.8626,-4.69589 6.41616,-6.47512 7.11368,-3.56174 17.98869,-4.24025 18.35075,-4.38351 0,0 -1.45838,-8.25828 3.71819,-13.38257 z"
       id="path4389"
       inkscape:connector-curvature="0"
       sodipodi:nodetypes="sscscsccscscsscsscccccsscscscscscscscscscscscssscscscscccscscsccscscscscscscscsccscccsscscscscscscscs" />
  </g>
</svg>
