<?xml version="1.0" encoding="UTF-8" standalone="no"?>
<!-- Created with Inkscape (http://www.inkscape.org/) -->

<svg
   xmlns:dc="http://purl.org/dc/elements/1.1/"
   xmlns:cc="http://creativecommons.org/ns#"
   xmlns:rdf="http://www.w3.org/1999/02/22-rdf-syntax-ns#"
   xmlns:svg="http://www.w3.org/2000/svg"
   xmlns="http://www.w3.org/2000/svg"
   xmlns:sodipodi="http://sodipodi.sourceforge.net/DTD/sodipodi-0.dtd"
   xmlns:inkscape="http://www.inkscape.org/namespaces/inkscape"
   width="58.495186mm"
   height="101.77938mm"
   viewBox="0 0 207.26641 360.6356"
   id="svg2"
   version="1.1"
   inkscape:version="0.91 r13725"
   sodipodi:docname="Psittacoidea_silhouette.svg">
  <defs
     id="defs4" />
  <sodipodi:namedview
     id="base"
     pagecolor="#ffffff"
     bordercolor="#666666"
     borderopacity="1.0"
     inkscape:pageopacity="0.0"
     inkscape:pageshadow="2"
     inkscape:zoom="0.7"
     inkscape:cx="40.352959"
     inkscape:cy="312.50739"
     inkscape:document-units="px"
     inkscape:current-layer="layer1"
     showgrid="false"
     inkscape:window-width="1366"
     inkscape:window-height="719"
     inkscape:window-x="0"
     inkscape:window-y="0"
     inkscape:window-maximized="1"
     fit-margin-top="0"
     fit-margin-left="0"
     fit-margin-right="0"
     fit-margin-bottom="0" />
  <metadata
     id="metadata7">
    <rdf:RDF>
      <cc:Work
         rdf:about="">
        <dc:format>image/svg+xml</dc:format>
        <dc:type
           rdf:resource="http://purl.org/dc/dcmitype/StillImage" />
        <dc:title></dc:title>
      </cc:Work>
    </rdf:RDF>
  </metadata>
  <g
     inkscape:label="Layer 1"
     inkscape:groupmode="layer"
     id="layer1"
     transform="translate(-252.3668,-279.18726)">
    <path
       style="fill:#000000;fill-rule:evenodd;stroke:#000000;stroke-width:0.5;stroke-linecap:butt;stroke-linejoin:miter;stroke-miterlimit:4;stroke-dasharray:none;stroke-opacity:1"
       d="m 257.62577,316.06242 -2.47946,5.45871 -1.7444,5.0664 -0.59119,5.56467 c -0.59507,5.60128 0.0944,13.70092 3.38263,19.74679 3.30949,6.08497 7.77588,9.85799 7.77588,9.85799 l -0.62413,-5.98591 c -0.0806,-0.77282 -0.19016,-3.9466 0.12457,-6.2754 0.3492,-2.58378 1.16257,-4.27756 1.16257,-4.27756 0,0 5.03378,5.77923 8.8772,6.18462 l 7.97389,0.84106 c 0,0 2.73937,4.3295 4.26493,9.06751 1.08014,3.35458 1.29858,6.84323 1.02884,8.97415 l 0.0201,4.07302 -1.23521,5.73281 c -0.41385,-0.3617 0.36449,10.64336 2.33291,19.21133 1.2812,5.57673 3.57339,9.60233 3.71742,13.06413 l 0.87908,21.12917 c 0,0 3.6741,21.92146 7.40328,29.33784 l 7.91325,15.73743 c 0,0 7.75539,17.08637 10.15763,21.3926 l 8.52316,15.27856 c 0,0 -1.18593,0.45288 -5.61897,8.33376 l -0.56821,1.01015 c 0,0 -8.73034,6.39755 -9.45672,9.32597 -0.55482,2.23673 0.0766,4.47347 0.69067,6.8325 0,0 2.02909,2.01267 5.54538,-0.59199 l 2.41072,-1.78572 c 0,0 2.47302,10.0971 6.96427,5.17858 l 3.0604,-3.35155 -0.31343,-4.19582 c -0.34549,-4.32969 0.71004,-5.34933 1.08763,-4.98728 -0.0936,13.13235 6.39624,11.78739 7.35448,7.85916 4.94871,-7.84525 3.26576,-10.76963 9.41967,-12.2252 0,0 4.70599,7.21208 0.55198,11.1864 l -6.19535,5.92736 c 0,0 -1.78954,2.68568 0.25675,4.90034 l 0.4269,0.46202 c 0,0 10.51365,-9.35926 11.83389,-13.54936 l 1.06285,-3.37321 c 0,0 1.95819,0.62609 3.43317,-4.70801 l 0.47312,-1.71098 c 0,0 20.36779,6.20559 25.95813,12.09152 l 3.14834,3.3148 5.18936,6.91899 c 0,0 -18.75556,2.3471 -21.12289,5.26225 l -3.38451,1.61893 -4.57193,4.01471 c -1.93535,2.55664 -2.28143,5.11329 -2.84713,7.58064 0,0 3.87128,1.22465 6.875,0.80357 l 4.77679,-0.66964 -5.67676,5.24378 c -3.1438,2.85684 -4.27327,8.64962 -2.14023,11.21636 0,0 7.10818,2.51484 10.09377,-2.12978 l 2.23229,-3.47273 4.79836,-5.13063 c 1.80393,-1.89887 9.49178,-5.28269 9.49178,-5.28269 0,0 2.0274,3.63592 0.89912,8.49795 l 1.05403,5.93531 c 0.25198,1.53567 -0.0573,2.91827 -1.0498,3.97636 -2.92058,2.67832 -0.66585,4.55455 -7.86857,6.27441 0,0 7.91568,7.49449 13.44537,-3.77722 l 2.52014,-5.10237 1.90039,-7.74383 c 0.49129,-2.00192 -0.54359,-10.82692 -0.54359,-10.82692 0,0 0.26995,-0.30301 0.90774,-0.71193 l 0.71509,-0.45848 c 0,0 2.52836,21.70105 2.71965,26.75134 0.39903,10.53516 1.3077,20.23602 0.0523,30.99716 0,0 0.0945,1.36097 0.72839,1.76204 0.539,0.34103 1.41116,2.10212 2.36918,2.18692 0.67185,0.0595 1.38593,-1.65837 2.05694,-1.17806 1.51615,1.08526 2.72961,4.05687 4.91644,5.05821 0.76145,0.34866 1.99898,-1.23396 2.8166,-0.81272 1.01777,0.52436 1.99022,3.61638 3.0909,4.08045 0.91841,0.38722 2.47891,-1.71236 3.42604,-1.29848 1.0204,0.44588 2.05431,2.93084 3.09491,3.34075 0.8231,0.32424 2.18218,-1.49217 3.00179,-1.16428 0.78639,0.31461 1.56932,2.05096 2.34521,2.35 2.57983,0.99431 5.20881,2.43175 7.58023,2.23119 1.1152,-0.0943 2.17344,-2.08076 3.14281,-1.83862 0.76087,0.19005 1.47372,2.87509 2.13556,3.1816 2.73826,1.26813 4.6034,0.67653 5.38321,-0.64191 2.32049,-3.92331 2.82777,-7.84662 3.56039,-11.68514 l 1.24791,-15.22376 c 0.23099,-2.8701 -0.74229,-21.44536 -0.74229,-21.44536 0,0 0.98051,-12.02518 1.04791,-14.90654 l 0.18453,-7.89182 c 0,0 1.57154,-37.52077 1.51484,-40.99444 l -0.13765,-9.38374 -0.55157,-11.11485 c -0.1268,-2.55518 -2.84814,-15.1789 -2.84814,-15.1789 0,0 0.0162,-8.65508 -0.19201,-11.32256 -0.23865,-3.05745 -3.02488,-20.08835 -3.02488,-20.08835 0,0 -3.7842,-24.97026 -6.26083,-30.00093 l -10,-20.31251 -8.66072,-17.09821 c -3.13455,-6.17215 -8.66071,-13.21429 -8.66071,-13.21429 l -8.57143,-8.39285 c -3.67871,-3.527 -18.25893,-8.75 -18.25893,-8.75 l -3.52678,-2.14286 c -1.72996,-1.05112 -5,-6.29464 -5,-6.29464 l -3.03571,-7.54464 c -1.55434,-3.86301 -9.3881,-18.8949 -9.3881,-18.8949 l -8.59939,-15.1556 c -2.11111,-3.72063 -14.77348,-16.92004 -14.77348,-16.92004 l -15.65737,-8.71258 c -3.91813,-2.18025 -20.67655,-4.76665 -20.67655,-4.76665 -6.97138,-1.35132 -14.16717,-1.90311 -22.00239,-0.66291 -5.35555,0.84771 -15.50199,5.75453 -15.50199,5.75453 -1.88846,-0.22612 -12.71709,13.06578 -12.86503,17.751 -0.0893,2.82738 -0.7105,3.52702 -0.40822,8.33507 z"
       id="path4309-3"
       inkscape:connector-curvature="0"
       sodipodi:nodetypes="cccsscsscscssccsscscscscscscscscccscscscscsccscccscscscscscccscscscscsssssssssssssscscscscscscscscscscscscscscscc" />
  </g>
</svg>
