<?xml version="1.0" encoding="UTF-8" standalone="no"?>
<!-- Created with Inkscape (http://www.inkscape.org/) -->

<svg
   xmlns:dc="http://purl.org/dc/elements/1.1/"
   xmlns:cc="http://creativecommons.org/ns#"
   xmlns:rdf="http://www.w3.org/1999/02/22-rdf-syntax-ns#"
   xmlns:svg="http://www.w3.org/2000/svg"
   xmlns="http://www.w3.org/2000/svg"
   xmlns:sodipodi="http://sodipodi.sourceforge.net/DTD/sodipodi-0.dtd"
   xmlns:inkscape="http://www.inkscape.org/namespaces/inkscape"
   width="131.65422mm"
   height="61.768421mm"
   viewBox="0 0 466.49133 218.86448"
   id="svg2"
   version="1.1"
   inkscape:version="0.91 r13725"
   sodipodi:docname="Ramphastidae_silhouette.svg">
  <defs
     id="defs4" />
  <sodipodi:namedview
     id="base"
     pagecolor="#ffffff"
     bordercolor="#666666"
     borderopacity="1.0"
     inkscape:pageopacity="0.0"
     inkscape:pageshadow="2"
     inkscape:zoom="0.49497475"
     inkscape:cx="255.11874"
     inkscape:cy="19.07334"
     inkscape:document-units="px"
     inkscape:current-layer="layer1"
     showgrid="false"
     inkscape:window-width="1366"
     inkscape:window-height="719"
     inkscape:window-x="0"
     inkscape:window-y="0"
     inkscape:window-maximized="1"
     fit-margin-top="0"
     fit-margin-left="0"
     fit-margin-right="0"
     fit-margin-bottom="0" />
  <metadata
     id="metadata7">
    <rdf:RDF>
      <cc:Work
         rdf:about="">
        <dc:format>image/svg+xml</dc:format>
        <dc:type
           rdf:resource="http://purl.org/dc/dcmitype/StillImage" />
        <dc:title></dc:title>
      </cc:Work>
    </rdf:RDF>
  </metadata>
  <g
     inkscape:label="Layer 1"
     inkscape:groupmode="layer"
     id="layer1"
     transform="translate(-168.61502,-419.16445)">
    <path
       style="fill:#000000;fill-rule:evenodd;stroke:#000000;stroke-width:0.5;stroke-linecap:butt;stroke-linejoin:miter;stroke-miterlimit:4;stroke-dasharray:none;stroke-opacity:1"
       d="m 273.16713,419.41992 c -23.93246,0.25249 -55.70129,9.25845 -77.18359,22.48828 -36.49347,22.47445 -25.5957,52.98242 -25.5957,52.98242 0,0 -0.71684,-10.76832 26.45312,-16.125 30.76607,-6.06567 63.31783,-4.33346 93.41602,-7.39257 0,0 11.47784,16.09462 12.79883,26.4414 l 2.10937,16.51563 c 0,0 4.76986,28.50812 32.69141,38.92578 11.5923,4.32514 24.87544,15.61039 36.80664,16.24805 0,0 5.88374,8.64384 6.65234,19.51367 l 0.50977,6.5293 -18.07618,1.10156 c -3.08851,0.18818 -18.4375,2.63281 -18.4375,2.63281 -5.07942,-0.75863 -16.86017,8.10701 -18.4375,12.99219 -1.41774,4.39088 4.04672,20.49771 9.01954,19.28515 l 0.11914,-0.0254 -3.91602,-7.82812 c -7.39277,-14.78557 11.32448,-18.80779 12.99023,-15.81836 -0.37,1.99804 -0.11401,-0.0228 -1.07226,5.09961 -0.34526,1.84557 1.33556,4.26867 2.01953,5.8457 0,0 -0.36372,-6.04995 0.45703,-7.88086 0.98847,-2.20507 1.05469,-2.20508 1.05469,-2.20508 0,0 10.95457,3.63492 11.91797,15.22266 l 1.10937,13.33594 2.98633,-4.38672 c 4.70919,-12.08848 -5.6425,-23.88172 -9.4414,-26.90235 -0.45244,-0.21619 -0.85994,-0.41518 -1.33399,-0.64062 -0.0331,-0.28056 0.49585,-0.0258 1.33399,0.64062 9.31634,4.45187 14.09278,7.02151 13.67578,10.00977 l -0.50782,3.63867 2.69141,-3.66211 c 3.23075,-4.40558 -10.98047,-10.47851 -10.98047,-10.47851 0,0 5.68886,-1.62278 8.85938,-1.64258 l 16.2207,-0.13867 -1.79102,2.16992 -0.82812,2.31445 c -1.98154,3.21928 5.2793,10.50586 5.2793,10.50586 l -2.74414,-6.51758 c -2.00952,-4.77613 3.89062,-8.94531 3.89062,-8.94531 3.21705,-0.88167 1.47211,-0.18649 4.41211,-0.86719 l 1.74805,-0.33007 c 0.46587,-0.13876 0.80859,-0.1543 0.80859,-0.1543 l -0.80859,0.1543 c -1.78498,0.53162 -5.46202,3.00398 0.59961,14.57617 l 3.87304,7.36328 1.76563,5.12305 c 1.61619,1.80468 3.10932,-4.48088 0.66211,-7.04883 l -2.88282,-6.20313 c -5.27059,-11.34534 -2.23343,-12.75653 2.21875,-15.0664 1.1301,-0.39923 3.09859,-1.52303 4.57032,-3.56836 0,0 8.31092,9.09561 4.77539,13.76757 -3.53553,4.67196 -0.15625,6.25 -0.15625,6.25 l 1.79883,-4.16796 c 3.32488,-7.69969 -5.17774,-17.92969 -5.17774,-17.92969 l 2.08399,0.12695 c 1.14569,0.0694 3.63476,0.66211 3.63476,0.66211 0,0 5.50839,22.97214 1.4043,30.1543 l -4.82031,8.4375 c 2.55953,-1.41369 5.93794,1.57189 8.75,-7.54297 3.68941,-11.95863 -0.0137,-29.58203 -0.0137,-29.58203 l 23.75391,2.53125 c 13.62278,1.45174 8.21094,-22.54492 8.21094,-22.54492 l 4.79492,-0.73243 c 2.9841,-0.45585 4.01172,-1.68164 4.01172,-1.68164 0,0 11.29634,19.33794 30.25195,10.71485 24.18337,-9.95612 34.89078,-24.42651 43.60547,-38.1875 0,0 41.19259,0.7663 54.3125,2.16015 15.09468,1.60365 26.875,2.90235 26.875,2.90235 0,0 5.15424,-6.98378 13.125,-7.36719 l 8.7832,-0.42187 -0.0332,-4.57813 c 0.1458,-6.16416 -8.4043,-7.75195 -8.4043,-7.75195 l -48.94726,-2.13672 c -33.21194,-1.46618 -73.19727,2.08008 -73.19727,2.08008 l -21.69726,-17.12891 c -22.05096,-17.47459 -62.2168,-23.91602 -62.2168,-23.91602 l -23.73826,-8.07225 c -14.47465,-4.92154 -33.13477,-2.94141 -33.13477,-2.94141 -11.98017,-11.42778 -17.66431,-34.54765 -35.80664,-47.27539 -12.67763,-9.91796 -30.82031,-7.66211 -30.82031,-7.66211 l -0.0527,-1.15039 -0.23047,-0.84765 c -5.87909,-2.85316 -14.04333,-4.0949 -23.40821,-3.9961 z m 134.25,155.79688 c 0,0 4.73447,0.12707 7.63868,0.69531 l 3.41015,0.63086 -0.12695,-0.12695 c 0,0 7.28897,6.13473 8.52344,8.90234 l 1.95703,4.38867 -6.12305,-0.28515 c -3.8395,0.0149 -14.83789,-0.75586 -14.83789,-0.75586 l -0.18945,-4.54688 c -0.13003,-3.16413 -0.25196,-8.90234 -0.25196,-8.90234 z"
       id="path4402"
       inkscape:connector-curvature="0" />
  </g>
</svg>
