<?xml version="1.0" encoding="UTF-8" standalone="no"?>
<!-- Created with Inkscape (http://www.inkscape.org/) -->

<svg
   xmlns:dc="http://purl.org/dc/elements/1.1/"
   xmlns:cc="http://creativecommons.org/ns#"
   xmlns:rdf="http://www.w3.org/1999/02/22-rdf-syntax-ns#"
   xmlns:svg="http://www.w3.org/2000/svg"
   xmlns="http://www.w3.org/2000/svg"
   xmlns:sodipodi="http://sodipodi.sourceforge.net/DTD/sodipodi-0.dtd"
   xmlns:inkscape="http://www.inkscape.org/namespaces/inkscape"
   width="28.360382mm"
   height="30.302679mm"
   viewBox="0 0 100.48954 107.3717"
   id="svg2"
   version="1.1"
   inkscape:version="0.91 r13725"
   sodipodi:docname="Trochilidae_silhouette.svg">
  <defs
     id="defs4" />
  <sodipodi:namedview
     id="base"
     pagecolor="#ffffff"
     bordercolor="#666666"
     borderopacity="1.0"
     inkscape:pageopacity="0.0"
     inkscape:pageshadow="2"
     inkscape:zoom="0.49497475"
     inkscape:cx="-204.96155"
     inkscape:cy="78.336044"
     inkscape:document-units="px"
     inkscape:current-layer="layer1"
     showgrid="false"
     inkscape:window-width="1366"
     inkscape:window-height="719"
     inkscape:window-x="0"
     inkscape:window-y="0"
     inkscape:window-maximized="1"
     fit-margin-top="0"
     fit-margin-left="0"
     fit-margin-right="0"
     fit-margin-bottom="0" />
  <metadata
     id="metadata7">
    <rdf:RDF>
      <cc:Work
         rdf:about="">
        <dc:format>image/svg+xml</dc:format>
        <dc:type
           rdf:resource="http://purl.org/dc/dcmitype/StillImage" />
        <dc:title></dc:title>
      </cc:Work>
    </rdf:RDF>
  </metadata>
  <g
     inkscape:label="Layer 1"
     inkscape:groupmode="layer"
     id="layer1"
     transform="translate(-332.60304,-392.58482)">
    <path
       style="fill:#000000;fill-opacity:1;fill-rule:evenodd;stroke:#000000;stroke-width:0.5;stroke-linecap:butt;stroke-linejoin:miter;stroke-miterlimit:4;stroke-dasharray:none;stroke-opacity:1"
       d="m 392.069,465.32763 c -7.14299,7.28472 -14.78797,9.84074 -14.78797,9.84074 -1.22016,1.86889 -2.2381,1.8166 -7.24383,1.33307 0,0 -0.18141,0.5045 -1.94827,1.72024 l -2.46257,1.66401 -2.09898,6.642 c -0.81715,2.58579 -3.31456,6.58176 -3.31456,6.58176 l -7.79712,4.05641 c -3.59571,1.87065 -14.86819,2.50959 -14.86819,2.50959 0,0 6.05208,-7.65177 8.3022,-11.19059 l 6.91343,-11.01684 c 2.16685,-5.21656 4.65501,-9.15355 7.29007,-13.30883 l 4.77679,-7.2768 c 0,0 -3.28765,-3.76481 -8.97321,-11.20535 -2.07224,-2.71187 -3.93946,-6.03876 -5.58036,-10.26786 0,0 -1.9345,-5.82095 -3.88393,-9.64285 l -4.65632,-9.12881 c -1.24756,-1.79648 -6.12982,-8.45816 -6.77302,-9.74638 -2.50718,-5.02145 -2.18072,-5.66296 -1.97859,-6.45392 l 6.13109,6.96988 c 5.13252,5.8347 26.57904,25.03374 33.11,29.37447 0.10449,-3.08059 -0.91144,-3.01866 -1.27959,-5.9706 -0.12779,-1.10251 -0.19819,-2.20425 -0.18689,-3.30882 0,0 0.40106,-2.07713 -1.42342,-7.26573 -0.95659,-2.72044 -0.37881,0.31567 -1.86248,-8.17592 0,0 -0.70483,-4.83957 -1.16798,-7.0395 -1.01016,-4.79823 -0.66079,-12.35471 -0.66079,-12.35471 0,0 2.11734,6.14259 4.00691,9.5286 l 3.3259,5.95982 c 0,0 1.89957,5.12982 3.32589,7.61162 l 4.47788,7.76047 3.23345,6.46391 c 0.67935,1.35807 1.97321,5.07454 1.97321,5.07454 0,0 2.92244,-7.9978 9.74725,-8.3321 l 2.19298,-0.10742 c 0,0 5.88141,0.14406 8.72029,3.39655 l 2.38333,2.73057 c 0,0 2.08575,1.65867 4.87714,2.19392 l 4.24209,0.81342 c 0,0 4.37528,-0.0445 6.08295,0.095 l 3.47039,0.28352 c 0,0 1.6609,-0.0716 3.94537,0.82837 l 1.06007,0.41762 c 0,0 -0.63527,0.93142 -2.92425,0.77002 l -3.37193,-0.24067 -2.51381,-0.3648 c -2.24733,-0.32613 -4.05275,-0.21235 -4.05275,-0.21235 l -3.28648,-0.0857 c -1.37479,-0.0358 -3.04624,0.12622 -3.04624,0.12622 0,0 -4.05374,0.23176 -6.32924,3.1883 l -1.10488,1.43556 c 0,0 -0.71431,2.20253 -2.76789,3.80966 -2.73046,2.13688 -3.28125,4.7768 -3.28125,4.7768 0,0 -0.79316,3.15281 -1.62946,6.20536 -1.64891,2.89131 -3.46899,5.42192 -4.03423,6.18319 z"
       id="path4302-3"
       inkscape:connector-curvature="0"
       sodipodi:nodetypes="sccscscscscscscscscscccscscscscscscscscscscscscscscscccs" />
  </g>
</svg>
